<svg width="757" height="587" viewBox="0 0 757 587" fill="none" xmlns="http://www.w3.org/2000/svg">
<g clip-path="url(#clip0_27_102)">
<rect x="0.724609" y="382.559" width="500.796" height="315.624" rx="20.0318" transform="rotate(-49.8094 0.724609 382.559)" fill="#060706"/>
<g opacity="0.5">
<path d="M105.812 149.552C105.812 149.552 105.812 149.552 105.812 149.552C113.88 151.165 121.756 153.456 129.222 156.361C137.109 159.429 144.347 163.113 150.736 167.308C157.755 171.918 163.669 177.098 168.309 182.703C173.479 188.947 177.046 195.689 178.913 202.741C179.848 206.275 180.346 209.861 180.411 213.466C180.421 214.011 180.692 214.519 181.144 214.825C186.106 218.185 190.485 221.841 194.129 225.683C198.159 229.932 201.314 234.427 203.509 239.046C205.988 244.262 207.255 249.656 207.275 255.076C207.298 261.584 205.524 268.169 202.002 274.649C198.953 280.261 194.682 285.635 189.31 290.624C181.465 297.908 171.898 304.542 160.876 310.344C150.93 315.579 139.74 320.168 127.616 323.986C116.508 327.484 104.652 330.325 92.3776 332.433C80.8473 334.413 69.141 335.715 57.5829 336.304L40.3365 337.182C39.4404 337.227 38.6769 336.538 38.6313 335.642L37.2655 308.825C37.2199 307.929 37.9093 307.165 38.8055 307.12L56.0519 306.241C90.0651 304.509 135.179 294.516 159.791 271.662C165.314 266.534 168.471 260.807 168.453 255.949C168.448 254.4 168.133 252.867 167.564 251.366C167.158 250.297 165.768 250.156 165.006 251.008C163.517 252.672 161.931 254.294 160.252 255.869C155.147 260.655 149.282 264.912 142.819 268.519C126.288 277.747 105.912 284.008 82.2579 287.126C72.3352 288.434 61.7892 289.187 50.9126 289.365C41.1697 289.524 31.0947 289.224 20.9677 288.474C13.1965 287.898 1.56201 286.792 -9.70928 283.848C-15.5806 282.315 -20.9615 280.386 -25.7029 278.114C-31.3017 275.431 -36.1883 272.192 -40.2275 268.484C-45.3629 263.77 -49.1254 258.084 -51.1106 252.039C-53.2819 245.426 -53.2409 238.596 -50.9903 232.288C-48.6666 225.774 -43.995 219.934 -37.1046 214.929C-32.3407 211.468 -26.5488 208.42 -19.3984 205.612C-12.54 202.919 -5.12342 200.544 2.64623 198.553C9.70936 196.744 17.2864 195.196 25.1661 193.954C38.5081 191.849 53.0257 190.539 69.5486 189.947C84.4286 189.415 98.7926 189.994 112.243 191.669C116.47 192.196 120.616 192.832 124.672 193.576C126.326 193.88 127.246 191.915 125.852 190.975C117.606 185.411 107.144 181.358 97.0567 179.127C96.0854 178.912 95.5133 177.896 95.853 176.961L105.811 149.552C105.811 149.552 105.812 149.552 105.812 149.552ZM137.316 228.942C137.316 228.942 137.316 228.942 137.316 228.942C137.186 228.894 137.056 228.846 136.926 228.799C118.426 222.069 96.0187 219.123 70.325 220.043C68.0709 220.124 65.8548 220.22 63.6825 220.33C35.9023 221.745 14.7183 225.621 -2.59549 232.422C-7.06874 234.179 -12.6083 236.853 -13.5937 239.617C-14.5366 242.259 -13.1549 246.073 -10.3085 248.685C-2.81628 255.562 12.8491 257.534 25.6589 258.482C48.5699 260.18 91.3822 260.585 120.698 244.219C127.26 240.556 133.408 235.202 137.316 228.942C137.316 228.942 137.316 228.942 137.316 228.942Z" fill="url(#paint0_linear_27_102)"/>
<g filter="url(#filter0_f_27_102)">
<ellipse cx="42.9523" cy="21.3729" rx="42.9523" ry="21.3729" transform="matrix(-0.947746 -0.319027 0.505594 -0.862772 183.873 256.058)" fill="black"/>
</g>
<path d="M95.4733 178.722L106.077 149.536C114.145 151.149 122.021 153.44 129.487 156.345C137.373 159.413 144.612 163.096 151.001 167.292C158.021 171.902 163.933 177.081 168.574 182.687C173.743 188.931 177.311 195.672 179.178 202.725C180.188 206.544 180.689 210.424 180.684 214.322C181.69 234.093 166.944 249.075 166.829 249.192L166.828 249.192C164.903 251.491 162.796 253.714 160.518 255.852C155.413 260.639 149.547 264.895 143.085 268.503C132.214 274.572 119.679 279.357 105.642 282.809L72.0938 258C89.005 256.212 106.603 252.219 120.963 244.203C127.525 240.54 133.673 235.185 137.581 228.925C137.581 228.925 148.909 207.166 131.158 194.802C122.001 186.865 108.303 181.288 95.4733 178.722Z" fill="#0058F3"/>
</g>
<g filter="url(#filter1_f_27_102)">
<ellipse cx="-32.1863" cy="324.956" rx="248.92" ry="125.123" transform="rotate(121.67 -32.1863 324.956)" fill="url(#paint1_linear_27_102)"/>
</g>
<g filter="url(#filter2_f_27_102)">
<ellipse cx="602.625" cy="286.141" rx="276.138" ry="124.656" transform="rotate(115.477 602.625 286.141)" fill="url(#paint2_linear_27_102)"/>
</g>
<path d="M305.16 133.08L302.641 136.061L291.246 126.435L287.501 130.867L284.814 128.597L294.839 116.731L297.526 119.001L293.764 123.453L305.16 133.08Z" fill="white"/>
<path d="M317.357 118.642L313.442 117.149L308.819 122.621L310.928 126.252L308.393 129.252L298.785 112.06L301.535 108.804L320.058 115.445L317.357 118.642ZM303.349 113.261L307.158 119.773L310.373 115.968L303.349 113.261Z" fill="white"/>
<path d="M329.262 104.55L313.984 102.702L323.81 111.003L321.507 113.729L307.425 101.832L310.142 98.6158L324.664 100.364L315.328 92.4768L317.648 89.7309L331.73 101.628L329.262 104.55Z" fill="white"/>
<path d="M339.495 92.4358L336.977 95.417L325.582 85.7903L321.837 90.223L319.15 87.953L329.174 76.0869L331.861 78.3569L328.1 82.8091L339.495 92.4358Z" fill="white"/>
<g opacity="0.9">
<path d="M309.573 140.791L309.1 141.35L305.448 138.265L307.321 136.047L307.81 136.459L306.409 138.118L307.599 139.123L308.794 137.709L309.282 138.122L308.087 139.536L309.573 140.791Z" fill="white"/>
<path d="M315.047 134.31L314.574 134.87L310.922 131.784L311.395 131.225L315.047 134.31Z" fill="white"/>
<path d="M320.915 127.364L316.437 126.876L319.291 129.286L318.853 129.805L315.2 126.72L315.716 126.109L320.079 126.579L317.302 124.232L317.74 123.714L321.392 126.799L320.915 127.364Z" fill="white"/>
<path d="M327.319 119.784L326.134 119.35L324.802 120.927L325.424 122.027L324.947 122.592L322.476 118.107L322.996 117.492L327.821 119.189L327.319 119.784ZM323.336 118.328L324.491 120.376L325.539 119.135L323.336 118.328Z" fill="white"/>
<path d="M333.446 112.53L328.968 112.042L331.822 114.453L331.384 114.972L327.731 111.887L328.247 111.276L332.61 111.745L329.833 109.399L330.271 108.88L333.923 111.966L333.446 112.53Z" fill="white"/>
<path d="M339.148 105.936C338.289 106.953 336.793 107.041 335.715 106.13C334.642 105.223 334.484 103.739 335.343 102.721C336.117 101.806 337.346 101.589 338.362 102.212L337.86 102.807C337.184 102.411 336.363 102.536 335.851 103.142C335.241 103.864 335.396 104.867 336.205 105.55C337.024 106.242 338.039 106.228 338.649 105.505C339.16 104.9 339.142 104.065 338.638 103.465L339.141 102.87C339.93 103.772 339.922 105.02 339.148 105.936Z" fill="white"/>
<path d="M345.675 97.0639L346.164 97.4765L344.208 99.791L340.556 96.7056L342.481 94.4267L342.97 94.8392L341.517 96.5585L342.555 97.4352L343.878 95.8684L344.367 96.281L343.043 97.8477L344.193 98.8189L345.675 97.0639Z" fill="white"/>
</g>
<g clip-path="url(#clip1_27_102)">
<path d="M273.915 155.247L275.605 156.674C276.116 157.106 276.516 157.618 276.803 158.179C276.845 158.261 276.885 158.344 276.923 158.426C276.88 158.325 276.837 158.236 276.796 158.158C276.818 158.17 276.84 158.182 276.866 158.193C276.882 158.199 276.899 158.21 276.915 158.216C278.333 158.936 279.754 159.654 281.172 160.374C281.173 160.339 281.17 160.305 281.171 160.27C281.168 160.074 281.157 159.88 281.141 159.684C281.045 158.557 280.738 157.473 280.229 156.468C279.698 155.425 278.974 154.513 278.075 153.754L276.386 152.326L273.917 155.248L273.915 155.247ZM276.957 158.513C276.953 158.501 276.948 158.49 276.943 158.479C276.936 158.462 276.928 158.445 276.921 158.429C276.933 158.457 276.945 158.485 276.957 158.513ZM276.985 158.582C276.98 158.571 276.975 158.56 276.972 158.546C276.972 158.542 276.967 158.539 276.967 158.535C276.963 158.528 276.962 158.52 276.96 158.514C276.967 158.535 276.977 158.557 276.985 158.582ZM277.014 158.653C277.009 158.642 277.006 158.629 276.999 158.616C276.994 158.604 276.989 158.593 276.987 158.584C276.996 158.606 277.004 158.631 277.014 158.653ZM276.928 167.899C277.016 167.845 277.103 167.794 277.189 167.738C277.104 167.791 277.018 167.847 276.928 167.899ZM276.717 168.021C276.765 167.994 276.813 167.967 276.859 167.942C276.811 167.969 276.763 167.996 276.717 168.021ZM276.242 135.994C274.323 135.397 272.333 135.18 270.324 135.349C268.315 135.518 266.388 136.061 264.597 136.967C262.742 137.902 261.118 139.189 259.767 140.789C258.417 142.386 257.418 144.204 256.802 146.193C256.208 148.111 255.993 150.1 256.166 152.109C256.268 153.337 256.513 154.537 256.898 155.693C257.14 156.426 257.439 157.143 257.793 157.838C257.893 158.036 257.997 158.231 258.106 158.423C258.703 159.481 259.415 160.461 260.238 161.349L258.394 163.532C257.72 164.368 257.398 165.417 257.491 166.488C257.571 167.476 258.001 168.393 258.706 169.091C258.763 169.146 258.817 169.2 258.878 169.251L262.439 172.259C264.041 173.612 265.858 174.613 267.847 175.229C269.766 175.826 271.756 176.044 273.765 175.874C275.776 175.706 277.699 175.165 279.491 174.258C281.346 173.32 282.971 172.034 284.323 170.434C284.65 170.047 284.958 169.644 285.243 169.231C285.243 169.231 285.243 169.231 285.247 169.231C287.449 169.053 289.596 168.258 291.415 166.875C292.004 166.427 292.561 165.916 293.072 165.345C293.18 165.226 293.291 165.094 293.509 164.836C293.728 164.578 293.838 164.447 293.938 164.32C297.834 159.442 297.233 152.356 292.569 148.191L292.567 148.189C292.447 148.081 292.318 147.972 292.059 147.753L281.653 138.962C280.049 137.611 278.229 136.612 276.242 135.994ZM265.555 160.983L267.478 158.707L274.664 164.777C274.584 164.817 274.504 164.856 274.422 164.89C274.381 164.909 274.338 164.926 274.293 164.946C273.979 165.072 273.655 165.163 273.325 165.224C273.322 165.224 273.316 165.226 273.312 165.227C273.259 165.235 273.207 165.245 273.152 165.252C273.123 165.256 273.094 165.26 273.063 165.263C272.937 165.277 272.808 165.29 272.683 165.295C272.661 165.295 272.638 165.297 272.619 165.298C272.571 165.3 272.523 165.302 272.476 165.302C272.451 165.302 272.424 165.301 272.399 165.301C272.374 165.301 272.346 165.3 272.321 165.3C272.296 165.3 272.27 165.296 272.245 165.296C272.22 165.297 272.197 165.295 272.17 165.293C272.121 165.291 272.072 165.286 272.024 165.284C272 165.282 271.977 165.28 271.953 165.278C271.93 165.276 271.907 165.274 271.885 165.27C271.819 165.264 271.752 165.254 271.683 165.243C271.661 165.239 271.64 165.235 271.62 165.232C271.579 165.226 271.54 165.218 271.5 165.209C271.5 165.209 271.498 165.208 271.496 165.21C271.475 165.206 271.457 165.201 271.435 165.197C271.392 165.189 271.351 165.179 271.309 165.169C271.167 165.135 271.026 165.094 270.884 165.046C270.316 164.855 269.776 164.556 269.292 164.147L265.552 160.987L265.555 160.983ZM264.904 169.341L261.408 166.388C261.278 166.271 261.259 166.073 261.369 165.938L263.085 163.907L266.825 167.067C267.724 167.826 268.744 168.388 269.861 168.736C270.898 169.058 271.969 169.182 273.053 169.109C273.076 169.107 273.097 169.107 273.121 169.105C273.142 169.105 273.163 169.102 273.186 169.1C274.082 169.025 274.951 168.817 275.772 168.479C275.799 168.47 275.827 168.458 275.851 168.446C275.896 168.427 275.941 168.407 275.985 168.388C276.03 168.369 276.077 168.348 276.12 168.327C276.149 168.313 276.179 168.298 276.209 168.284C276.24 168.268 276.27 168.254 276.304 168.24C276.335 168.223 276.367 168.207 276.399 168.191C276.508 168.137 276.614 168.08 276.715 168.023C276.763 167.996 276.811 167.969 276.858 167.944C276.88 167.93 276.902 167.917 276.928 167.903C277.016 167.849 277.103 167.797 277.189 167.742C277.198 167.735 277.211 167.728 277.22 167.722C277.229 167.715 277.242 167.708 277.252 167.702C277.268 167.691 277.283 167.682 277.299 167.671C277.323 167.655 277.349 167.638 277.373 167.622C277.499 167.536 277.617 167.451 277.723 167.372C277.736 167.361 277.751 167.352 277.763 167.342C277.772 167.335 277.781 167.328 277.791 167.322C277.791 167.322 277.799 167.329 277.815 167.339C277.852 167.363 277.924 167.41 278.002 167.461C278.028 167.476 278.055 167.495 278.081 167.511C278.102 167.524 278.124 167.536 278.143 167.548C278.157 167.557 278.169 167.563 278.184 167.572C278.196 167.579 278.208 167.585 278.218 167.594C278.22 167.596 278.222 167.598 278.222 167.598C278.231 167.605 278.239 167.608 278.249 167.613C278.259 167.618 278.265 167.623 278.275 167.628C278.322 167.657 278.365 167.682 278.406 167.706C278.455 167.733 278.506 167.762 278.553 167.791C278.567 167.799 278.583 167.81 278.597 167.814C278.617 167.824 278.636 167.836 278.656 167.846C278.66 167.85 278.668 167.853 278.672 167.856C278.677 167.86 278.682 167.861 278.69 167.864C278.705 167.873 278.721 167.879 278.735 167.888C278.743 167.891 278.751 167.898 278.759 167.901C278.759 167.901 278.759 167.901 278.762 167.903C278.786 167.917 278.814 167.93 278.841 167.945C278.845 167.948 278.853 167.952 278.859 167.953C278.883 167.966 278.909 167.978 278.934 167.991C278.964 168.006 278.994 168.021 279.021 168.036C279.033 168.043 279.049 168.049 279.061 168.056C279.13 168.089 279.192 168.121 279.251 168.149C279.287 168.165 279.322 168.184 279.356 168.198C279.4 168.218 279.443 168.239 279.483 168.255C279.495 168.262 279.515 168.268 279.539 168.282C279.549 168.287 279.561 168.289 279.573 168.296C279.591 168.304 279.61 168.312 279.634 168.322C279.65 168.329 279.662 168.335 279.678 168.342C279.702 168.351 279.726 168.361 279.752 168.372C279.76 168.375 279.768 168.379 279.778 168.384C279.786 168.387 279.792 168.388 279.8 168.391C279.814 168.396 279.828 168.405 279.842 168.409C279.85 168.412 279.858 168.416 279.866 168.419C279.89 168.428 279.912 168.436 279.935 168.448C279.959 168.458 279.987 168.467 280.013 168.478C280.029 168.485 280.045 168.491 280.063 168.499C280.071 168.502 280.081 168.507 280.089 168.511C280.119 168.522 280.145 168.533 280.175 168.544C280.215 168.56 280.259 168.576 280.307 168.591C280.351 168.607 280.397 168.624 280.441 168.64C280.483 168.654 280.525 168.668 280.569 168.684C280.593 168.693 280.616 168.699 280.64 168.709C280.664 168.718 280.69 168.726 280.716 168.733C276.455 172.943 269.574 173.287 264.904 169.341ZM277.127 161.854L269.947 155.788L271.782 153.616C271.784 153.614 271.786 153.612 271.788 153.61C271.834 153.56 271.914 153.553 271.969 153.599L275.606 156.672C276.117 157.103 276.517 157.616 276.805 158.177C276.847 158.259 276.887 158.342 276.925 158.424C276.937 158.452 276.949 158.48 276.961 158.508L276.963 158.51C276.973 158.533 276.982 158.555 276.99 158.576L276.992 158.577C277.002 158.6 277.01 158.624 277.019 158.647C277.031 158.675 277.041 158.701 277.049 158.73C277.055 158.745 277.06 158.76 277.065 158.775C277.068 158.788 277.075 158.801 277.078 158.814C277.09 158.846 277.101 158.88 277.112 158.914C277.117 158.929 277.122 158.948 277.127 158.963C277.138 158.997 277.149 159.031 277.157 159.067C277.166 159.095 277.174 159.124 277.182 159.152C277.188 159.179 277.194 159.201 277.2 159.228C277.203 159.234 277.203 159.238 277.204 159.245C277.411 160.095 277.391 160.995 277.134 161.841C277.128 161.848 277.129 161.852 277.127 161.854ZM283.055 165.352C282.081 165.197 281.123 164.862 280.242 164.339C280.244 164.337 280.246 164.331 280.249 164.327C280.254 164.317 280.259 164.307 280.266 164.295C280.28 164.264 280.297 164.232 280.312 164.198C280.325 164.17 280.338 164.142 280.353 164.111C280.363 164.091 280.372 164.071 280.38 164.049C280.415 163.974 280.45 163.894 280.482 163.814C280.497 163.78 280.511 163.746 280.526 163.708C280.554 163.636 280.583 163.564 280.611 163.488C280.619 163.466 280.625 163.446 280.635 163.426C280.687 163.284 280.735 163.142 280.777 162.999C281.043 162.143 281.172 161.263 281.166 160.369C281.167 160.334 281.164 160.299 281.165 160.264C281.162 160.069 281.151 159.874 281.134 159.678C281.039 158.552 280.732 157.468 280.222 156.463C279.692 155.419 278.968 154.508 278.069 153.748L274.433 150.677C274.4 150.649 274.369 150.622 274.334 150.596C272.665 149.279 270.235 149.511 268.856 151.144L267.27 153.02C266.412 151.32 266.593 149.197 267.895 147.656C268.001 147.531 268.109 147.415 268.226 147.303C269.283 146.276 270.713 145.814 272.107 145.949C273.066 146.042 274.006 146.414 274.796 147.082L279.998 151.477C284.118 154.957 285.234 160.69 283.07 165.354C283.063 165.355 283.058 165.351 283.055 165.352ZM289.588 150.674C289.82 150.869 289.937 150.968 290.021 151.042C293.168 153.854 293.574 158.637 290.943 161.933C290.875 162.018 290.776 162.135 290.581 162.366C290.386 162.597 290.287 162.714 290.215 162.795C290.171 162.844 290.126 162.892 290.084 162.938C289.294 163.784 288.354 164.418 287.344 164.835C287.895 162.977 288.088 161.056 287.92 159.115C287.749 157.104 287.202 155.178 286.295 153.388C285.353 151.532 284.065 149.905 282.463 148.551L277.263 144.158C276.364 143.399 275.344 142.837 274.226 142.489C273.15 142.155 272.03 142.033 270.904 142.127C270.008 142.202 269.142 142.41 268.321 142.747C268.108 142.835 267.897 142.932 267.689 143.034C266.794 143.488 265.991 144.088 265.304 144.817C265.192 144.936 265.084 145.056 264.978 145.181C264.22 146.078 263.66 147.097 263.313 148.214C262.98 149.289 262.861 150.408 262.956 151.535C263.052 152.662 263.359 153.745 263.868 154.75C264.105 155.215 264.381 155.658 264.695 156.069L262.729 158.396C261.906 157.433 261.265 156.359 260.803 155.227C260.384 154.195 260.114 153.114 260.002 152.016C259.684 148.96 260.559 145.783 262.691 143.259C266.852 138.333 274.251 137.717 279.184 141.884L289.588 150.674ZM276.717 168.021C276.765 167.994 276.813 167.967 276.859 167.942C276.811 167.969 276.763 167.996 276.717 168.021ZM276.928 167.899C277.016 167.845 277.103 167.794 277.189 167.738C277.104 167.791 277.018 167.847 276.928 167.899ZM277.22 167.718C277.229 167.711 277.242 167.704 277.251 167.698C277.268 167.687 277.282 167.678 277.299 167.667C277.271 167.683 277.246 167.7 277.22 167.718ZM276.985 158.582C276.995 158.608 277.004 158.631 277.014 158.653C277.009 158.642 277.006 158.629 276.999 158.616C276.991 158.591 276.982 158.569 276.97 158.544C276.969 158.541 276.965 158.537 276.965 158.533C276.96 158.526 276.96 158.518 276.957 158.513C276.967 158.535 276.977 158.557 276.985 158.582ZM273.915 155.247L275.605 156.674C276.116 157.106 276.516 157.618 276.803 158.179C276.845 158.261 276.885 158.344 276.923 158.426C276.88 158.325 276.837 158.236 276.796 158.158C276.818 158.17 276.84 158.182 276.866 158.193C276.882 158.199 276.899 158.21 276.915 158.216C278.333 158.936 279.754 159.654 281.172 160.374C281.173 160.339 281.17 160.305 281.171 160.27C281.168 160.074 281.157 159.88 281.141 159.684C281.045 158.557 280.738 157.473 280.229 156.468C279.698 155.425 278.974 154.513 278.075 153.754L276.386 152.326L273.917 155.248L273.915 155.247ZM276.957 158.513C276.953 158.501 276.948 158.49 276.943 158.479C276.936 158.462 276.928 158.445 276.921 158.429C276.933 158.457 276.945 158.485 276.957 158.513ZM276.717 168.021C276.765 167.994 276.813 167.967 276.859 167.942C276.811 167.969 276.763 167.996 276.717 168.021ZM276.928 167.899C277.016 167.845 277.103 167.794 277.189 167.738C277.104 167.791 277.018 167.847 276.928 167.899ZM273.915 155.247L275.605 156.674C276.116 157.106 276.516 157.618 276.803 158.179C276.845 158.261 276.885 158.344 276.923 158.426C276.88 158.325 276.837 158.236 276.796 158.158C276.818 158.17 276.84 158.182 276.866 158.193C276.882 158.199 276.899 158.21 276.915 158.216C278.333 158.936 279.754 159.654 281.172 160.374C281.173 160.339 281.17 160.305 281.171 160.27C281.168 160.074 281.157 159.88 281.141 159.684C281.045 158.557 280.738 157.473 280.229 156.468C279.698 155.425 278.974 154.513 278.075 153.754L276.386 152.326L273.917 155.248L273.915 155.247ZM276.957 158.513C276.953 158.501 276.948 158.49 276.943 158.479C276.936 158.462 276.928 158.445 276.921 158.429C276.933 158.457 276.945 158.485 276.957 158.513ZM276.985 158.582C276.98 158.571 276.975 158.56 276.972 158.546C276.972 158.542 276.967 158.539 276.967 158.535C276.963 158.528 276.962 158.52 276.96 158.514C276.967 158.535 276.977 158.557 276.985 158.582ZM277.014 158.653C277.009 158.642 277.006 158.629 276.999 158.616C276.994 158.604 276.989 158.593 276.987 158.584C276.996 158.606 277.004 158.631 277.014 158.653Z" fill="url(#paint3_linear_27_102)"/>
<path d="M260.002 152.016C260.116 153.112 260.384 154.195 260.803 155.227C260.363 155.744 259.924 156.258 259.488 156.775C259.025 157.323 258.562 157.87 258.102 158.42C257.992 158.228 257.889 158.033 257.789 157.834C257.435 157.14 257.136 156.423 256.894 155.69L259.999 152.014L260.002 152.016Z" fill="url(#paint4_linear_27_102)"/>
<path d="M272.102 145.948C270.708 145.813 269.275 146.277 268.22 147.302C268.105 147.205 268.015 147.125 267.873 147.005C266.994 146.252 266.16 145.543 265.293 144.822C265.982 144.091 266.785 143.491 267.678 143.039C267.884 142.935 268.095 142.838 268.31 142.752C269.742 143.969 270.704 144.764 272.102 145.948Z" fill="url(#paint5_linear_27_102)" fill-opacity="0.71"/>
<path d="M264.686 156.081C264.915 156.364 265.392 156.934 265.807 157.285C266.366 157.757 266.925 158.229 267.487 158.697C267.178 159.071 266.865 159.446 266.545 159.821C266.269 160.148 265.992 160.471 265.715 160.794C264.75 159.957 263.788 159.124 262.823 158.286C263.402 157.601 264.105 156.768 264.686 156.081Z" fill="url(#paint6_linear_27_102)"/>
<path d="M281.162 160.273C281.161 160.308 281.164 160.343 281.163 160.378C281.169 161.272 281.039 162.15 280.775 163.008C280.731 163.153 280.683 163.295 280.633 163.434C280.625 163.456 280.617 163.478 280.609 163.496C280.58 163.572 280.552 163.644 280.523 163.717C280.508 163.751 280.494 163.785 280.48 163.823C280.446 163.905 280.41 163.982 280.378 164.058C280.368 164.078 280.358 164.098 280.35 164.12C280.337 164.148 280.322 164.179 280.309 164.207C280.292 164.239 280.28 164.271 280.263 164.304C280.258 164.314 280.253 164.324 280.246 164.336C280.243 164.34 280.243 164.344 280.24 164.348C279.749 164.015 279.233 163.64 278.703 163.222C278.122 162.763 277.595 162.303 277.124 161.863C277.124 161.859 277.126 161.857 277.125 161.853C277.383 161.007 277.403 160.107 277.195 159.256C277.193 159.251 277.194 159.245 277.192 159.239C277.186 159.213 277.18 159.19 277.174 159.163C277.166 159.135 277.159 159.105 277.149 159.078C277.14 159.042 277.13 159.008 277.119 158.974C277.116 158.957 277.108 158.94 277.103 158.925C277.093 158.891 277.082 158.857 277.07 158.826C277.067 158.812 277.06 158.799 277.057 158.786C277.051 158.771 277.046 158.756 277.041 158.741C277.031 158.715 277.021 158.684 277.011 158.658C277.001 158.636 276.993 158.611 276.984 158.589L276.982 158.587C276.972 158.565 276.962 158.542 276.955 158.521L276.953 158.52C276.941 158.492 276.929 158.464 276.916 158.436C276.88 158.352 276.838 158.27 276.797 158.188C276.792 158.181 276.79 158.175 276.787 158.17C276.81 158.181 276.832 158.193 276.858 158.204C276.874 158.211 276.89 158.221 276.907 158.227C277.917 158.728 279.907 159.677 281.162 160.273Z" fill="url(#paint7_linear_27_102)"/>
<path d="M274.663 164.776L274.658 164.771C274.663 164.771 274.666 164.773 274.663 164.776Z" fill="url(#paint8_linear_27_102)"/>
<path d="M277.785 167.314C277.776 167.321 277.767 167.327 277.758 167.334C277.745 167.344 277.73 167.353 277.718 167.364C277.61 167.445 277.496 167.53 277.367 167.614C277.343 167.63 277.32 167.645 277.294 167.663C277.277 167.674 277.263 167.683 277.246 167.694C277.237 167.7 277.224 167.707 277.215 167.714C277.206 167.72 277.193 167.727 277.184 167.734C277.097 167.79 277.009 167.843 276.923 167.895C276.9 167.909 276.878 167.922 276.852 167.936C276.804 167.963 276.758 167.992 276.71 168.015C276.608 168.072 276.505 168.127 276.393 168.183C276.362 168.199 276.33 168.216 276.299 168.232C276.267 168.248 276.235 168.264 276.204 168.276C276.174 168.291 276.144 168.305 276.114 168.319C276.069 168.338 276.025 168.361 275.98 168.38C275.935 168.399 275.89 168.419 275.846 168.438C275.819 168.448 275.791 168.46 275.767 168.472C274.946 168.809 274.077 169.017 273.181 169.092C273.157 169.094 273.138 169.095 273.115 169.097C273.092 169.099 273.071 169.099 273.048 169.101C272.228 167.57 271.253 165.754 270.845 165.027C270.855 165.032 270.867 165.035 270.881 165.036C271.02 165.082 271.161 165.123 271.305 165.159C271.347 165.169 271.388 165.179 271.432 165.187C271.45 165.192 271.471 165.196 271.493 165.2C271.493 165.2 271.495 165.202 271.497 165.199C271.536 165.208 271.575 165.216 271.617 165.222C271.638 165.226 271.66 165.23 271.68 165.233C271.746 165.243 271.813 165.252 271.881 165.26C271.905 165.262 271.926 165.266 271.95 165.268C271.973 165.27 271.997 165.272 272.02 165.274C272.069 165.28 272.117 165.281 272.166 165.283C272.189 165.285 272.214 165.285 272.242 165.286C272.267 165.286 272.292 165.29 272.318 165.29C272.343 165.29 272.37 165.291 272.395 165.291C272.42 165.291 272.448 165.293 272.473 165.292C272.519 165.292 272.567 165.29 272.616 165.288C272.637 165.288 272.658 165.288 272.679 165.285C272.806 165.278 272.933 165.267 273.06 165.253C273.089 165.249 273.119 165.246 273.148 165.242C273.202 165.234 273.255 165.225 273.309 165.217C273.312 165.217 273.318 165.214 273.322 165.214C273.652 165.153 273.977 165.06 274.29 164.936C274.334 164.916 274.378 164.899 274.419 164.88C274.499 164.845 274.581 164.807 274.661 164.767C275.121 165.217 275.645 165.692 276.234 166.168C276.774 166.606 277.292 166.983 277.785 167.314Z" fill="url(#paint9_linear_27_102)"/>
<path d="M290.083 162.943C290.303 163.621 290.892 165.353 291.412 166.878C289.593 168.261 287.444 169.054 285.244 169.234C285.274 169.185 285.906 168.158 286.216 167.55C286.712 166.577 287.076 165.66 287.342 164.842C288.353 164.423 289.291 163.787 290.083 162.943Z" fill="url(#paint10_linear_27_102)"/>
<path d="M283.065 165.356C282.853 165.844 282.558 166.413 282.154 167.01C281.662 167.736 281.146 168.3 280.703 168.718C280.678 168.711 280.654 168.701 280.628 168.693C280.602 168.686 280.58 168.678 280.556 168.668C280.414 168.62 280.283 168.573 280.165 168.531C280.135 168.52 280.107 168.51 280.079 168.497C280.071 168.494 280.06 168.489 280.052 168.486C280.036 168.479 280.018 168.471 280.002 168.465C279.976 168.453 279.948 168.444 279.924 168.435C279.9 168.425 279.878 168.417 279.856 168.405C279.848 168.402 279.84 168.399 279.832 168.396C279.818 168.391 279.804 168.383 279.79 168.378C279.782 168.375 279.776 168.373 279.768 168.37C279.76 168.367 279.75 168.362 279.742 168.359C279.715 168.347 279.691 168.338 279.667 168.328C279.651 168.322 279.639 168.315 279.623 168.309C279.601 168.301 279.581 168.291 279.563 168.283C279.553 168.278 279.539 168.273 279.529 168.268C279.502 168.257 279.484 168.249 279.472 168.242C279.434 168.224 279.392 168.206 279.345 168.185C279.311 168.17 279.279 168.153 279.24 168.135C279.182 168.107 279.115 168.076 279.051 168.043C279.038 168.036 279.022 168.03 279.01 168.023C278.98 168.008 278.952 167.995 278.923 167.978C278.911 167.971 278.899 167.964 278.885 167.96C278.873 167.953 278.86 167.946 278.848 167.94C278.842 167.938 278.836 167.933 278.83 167.931C278.8 167.917 278.775 167.903 278.751 167.89C278.751 167.89 278.751 167.89 278.749 167.888C278.741 167.885 278.733 167.878 278.725 167.874C278.706 167.866 278.692 167.858 278.68 167.851C278.672 167.848 278.668 167.844 278.662 167.843C278.658 167.839 278.65 167.836 278.645 167.833C278.627 167.824 278.609 167.812 278.587 167.801C278.572 167.792 278.558 167.784 278.542 167.777C278.499 167.752 278.45 167.725 278.395 167.693C278.355 167.669 278.31 167.642 278.265 167.615C278.257 167.611 278.248 167.604 278.238 167.599C278.228 167.594 278.222 167.589 278.212 167.584C278.21 167.582 278.21 167.582 278.208 167.581C278.196 167.574 278.183 167.567 278.173 167.558C278.159 167.55 278.146 167.543 278.132 167.535C278.114 167.523 278.091 167.511 278.071 167.497C278.044 167.482 278.018 167.463 277.991 167.448C277.911 167.398 277.842 167.35 277.805 167.326C277.788 167.316 277.78 167.308 277.78 167.308L280.236 164.333C281.119 164.854 282.075 165.191 283.048 165.346C283.057 165.353 283.061 165.356 283.065 165.356Z" fill="url(#paint11_linear_27_102)"/>
<path d="M261.37 165.939C261.26 166.074 261.279 166.272 261.408 166.389L263.215 167.915L260.75 170.833L258.879 169.252C258.82 169.199 258.761 169.146 258.706 169.092L261.37 165.939Z" fill="url(#paint12_linear_27_102)"/>
<path d="M274.431 150.679L276.381 152.327L273.915 155.247L271.966 153.601C271.912 153.555 271.831 153.562 271.785 153.612L274.331 150.599C274.364 150.623 274.398 150.651 274.431 150.679Z" fill="url(#paint13_linear_27_102)"/>
</g>
<rect x="120.551" y="409.956" width="61.6032" height="48.1167" rx="7.8173" transform="rotate(-49.8094 120.551 409.956)" fill="white"/>
<mask id="path-22-inside-1_27_102" fill="white">
<path d="M166.156 367.031L192.036 388.894C195.234 391.596 195.652 396.381 192.969 399.558L162.34 435.813C159.656 438.99 154.869 439.377 151.671 436.676L125.791 414.813C122.582 412.102 122.175 407.326 124.859 404.149L155.487 367.894C158.171 364.717 162.948 364.321 166.156 367.031Z"/>
</mask>
<path d="M155.487 367.894L156.42 368.682L155.487 367.894ZM165.368 367.964L191.248 389.827L192.825 387.961L166.944 366.098L165.368 367.964ZM191.248 389.827C193.936 392.098 194.279 396.113 192.036 398.769L193.902 400.346C197.026 396.648 196.532 391.093 192.825 387.961L191.248 389.827ZM192.036 398.769L161.407 435.025L163.273 436.602L193.902 400.346L192.036 398.769ZM161.407 435.025C159.163 437.681 155.148 438.014 152.459 435.743L150.883 437.609C154.59 440.741 160.149 440.3 163.273 436.602L161.407 435.025ZM152.459 435.743L126.579 413.88L125.003 415.746L150.883 437.609L152.459 435.743ZM126.579 413.88C123.881 411.601 123.547 407.595 125.792 404.938L123.925 403.361C120.802 407.058 121.283 412.604 125.003 415.746L126.579 413.88ZM125.792 404.938L156.42 368.682L154.554 367.105L123.925 403.361L125.792 404.938ZM156.42 368.682C158.665 366.025 162.67 365.685 165.368 367.964L166.944 366.098C163.225 362.956 157.677 363.408 154.554 367.105L156.42 368.682Z" fill="#F0F0F0" mask="url(#path-22-inside-1_27_102)"/>
<path d="M157.693 382.716L168.551 369.863L167.728 369.167L156.579 382.365L157.314 390.983L152.835 396.285L140.752 386.077L140.057 386.9L152.14 397.108L147.67 402.399L139.041 403.125L127.892 416.323L128.715 417.018L139.574 404.164L147.76 403.475L153.052 407.945L138.444 425.237L139.267 425.932L153.875 408.641L159.176 413.12L159.92 422.066L149.413 434.503L150.236 435.198L161.033 422.417L160.253 413.029L164.723 407.738L176.797 417.938L177.492 417.115L165.418 406.915L169.897 401.613L179.274 400.824L190.072 388.043L189.249 387.348L178.742 399.785L169.806 400.537L164.505 396.058L179.103 378.777L178.28 378.082L163.682 395.362L158.39 390.892L157.693 382.716ZM168.863 401.168L159.632 412.094L148.695 402.855L157.926 391.928L168.863 401.168Z" fill="white" stroke="#F0F0F0" stroke-width="0.488581"/>
<mask id="path-25-inside-2_27_102" fill="white">
<path d="M166.394 366.747L192.274 388.611C195.472 391.312 195.876 396.114 193.174 399.312L162.345 435.805C159.643 439.003 154.842 439.407 151.644 436.706L125.763 414.843C122.555 412.132 122.162 407.339 124.863 404.141L155.692 367.648C158.394 364.45 163.185 364.037 166.394 366.747Z"/>
</mask>
<path d="M155.692 367.648L156.626 368.436L155.692 367.648ZM165.605 367.68L191.486 389.544L193.062 387.678L167.182 365.814L165.605 367.68ZM191.486 389.544C194.168 391.81 194.507 395.841 192.241 398.523L194.107 400.1C197.244 396.387 196.775 390.814 193.062 387.678L191.486 389.544ZM192.241 398.523L161.412 435.017L163.278 436.594L194.107 400.1L192.241 398.523ZM161.412 435.017C159.146 437.7 155.114 438.039 152.432 435.773L150.855 437.639C154.569 440.776 160.141 440.307 163.278 436.594L161.412 435.017ZM152.432 435.773L126.552 413.909L124.975 415.776L150.855 437.639L152.432 435.773ZM126.552 413.909C123.86 411.635 123.529 407.613 125.796 404.93L123.93 403.353C120.794 407.065 121.25 412.629 124.975 415.776L126.552 413.909ZM125.796 404.93L156.626 368.436L154.759 366.86L123.93 403.353L125.796 404.93ZM156.626 368.436C158.893 365.752 162.913 365.406 165.605 367.68L167.182 365.814C163.457 362.668 157.895 363.147 154.759 366.86L156.626 368.436Z" fill="#061523" mask="url(#path-25-inside-2_27_102)"/>
<path d="M157.931 382.433L168.79 369.579L167.967 368.884L156.818 382.081L157.552 390.699L153.073 396.001L140.99 385.793L140.295 386.616L152.378 396.824L147.908 402.115L139.28 402.841L128.131 416.039L128.954 416.734L139.812 403.88L147.998 403.191L153.29 407.662L138.683 424.953L139.505 425.648L154.113 408.357L159.415 412.836L160.158 421.782L149.651 434.219L150.474 434.914L161.271 422.133L160.491 412.745L164.961 407.454L177.035 417.654L177.731 416.831L165.656 406.631L170.135 401.329L179.513 400.54L190.31 387.759L189.487 387.064L178.98 399.501L170.045 400.253L164.743 395.774L179.342 378.493L178.519 377.798L163.92 395.078L158.628 390.608L157.931 382.433ZM169.101 400.884L159.871 411.81L148.933 402.571L158.164 391.644L169.101 400.884Z" fill="#061523" stroke="#061523" stroke-width="0.488581"/>
<path d="M237.003 496.88L244.035 502.82C246.453 504.863 246.748 507.543 244.73 509.931C242.75 512.275 240.086 512.43 237.856 510.648L239.256 508.991C240.665 510.079 242.092 510.056 243.252 508.683C244.425 507.294 244.262 505.852 242.709 504.54L235.603 498.537L237.003 496.88ZM258.03 493.733L254.553 492.459L250.643 497.087L252.468 500.317L251.068 501.974L243.817 488.813L245.343 487.007L259.506 491.987L258.03 493.733ZM246.34 489.461L249.731 495.472L252.808 491.829L246.34 489.461ZM267.413 482.627L256.354 479.092L264.55 486.016L263.276 487.523L252.557 478.468L254.26 476.453L266.003 480.208L260.326 469.272L262.041 467.241L272.76 476.297L271.474 477.82L263.263 470.883L268.598 481.223L267.413 482.627ZM281.546 462.99L282.979 464.201L277.24 470.994L266.521 461.938L272.171 455.25L273.605 456.461L269.342 461.507L272.387 464.08L276.272 459.481L277.705 460.692L273.82 465.29L277.194 468.141L281.546 462.99ZM290.614 448.803C292.48 450.38 292.637 453.071 290.443 455.668C288.261 458.251 285.518 458.62 283.27 456.951L284.682 455.279C286.104 456.352 287.716 456.23 289.104 454.588C290.251 453.23 290.467 451.672 289.362 450.739C288.467 449.982 287.527 450.186 286.211 451.198L284.601 452.499C283.029 453.754 281.107 454.484 279.286 452.946C277.479 451.42 277.458 448.69 279.337 446.465C281.216 444.241 284 443.701 286.248 445.371L284.835 447.043C283.476 446.048 281.798 446.216 280.663 447.56C279.49 448.949 279.668 450.404 280.594 451.185C281.609 452.043 282.711 451.465 283.765 450.641L285.416 449.324C287.34 447.803 289.017 447.454 290.614 448.803ZM306.522 429.973C308.388 431.549 308.545 434.24 306.35 436.838C304.169 439.42 301.426 439.79 299.178 438.121L300.59 436.449C302.012 437.522 303.624 437.4 305.011 435.758C306.159 434.399 306.375 432.842 305.27 431.908C304.374 431.152 303.435 431.356 302.119 432.368L300.509 433.668C298.936 434.924 297.015 435.654 295.193 434.115C293.387 432.589 293.365 429.859 295.244 427.635C297.124 425.41 299.907 424.871 302.156 426.54L300.743 428.212C299.384 427.217 297.706 427.386 296.571 428.73C295.398 430.118 295.576 431.573 296.501 432.355C297.517 433.213 298.619 432.634 299.673 431.811L301.323 430.493C303.248 428.972 304.924 428.623 306.522 429.973ZM317.922 422.837L306.863 419.302L315.059 426.226L313.785 427.734L303.066 418.679L304.769 416.663L316.512 420.418L310.835 409.482L312.55 407.452L323.269 416.507L321.983 418.03L313.772 411.094L319.107 421.434L317.922 422.837ZM329.137 409.562L327.75 411.204L317.03 402.149L318.418 400.507L329.137 409.562ZM337.216 399.998L335.829 401.64L326.588 393.833L323.637 397.327L322.159 396.078L329.448 387.449L330.926 388.698L327.975 392.191L337.216 399.998ZM345.303 390.425L343.916 392.067L333.197 383.012L334.584 381.37L339.063 385.154L343.654 379.719L339.175 375.936L340.562 374.294L351.281 383.349L349.894 384.991L345.087 380.93L340.496 386.364L345.303 390.425Z" fill="white"/>
<path d="M193.106 461.815C190.582 464.803 186.704 465.445 183.892 463.263L185.823 460.977C187.587 462.195 189.612 461.773 191.046 460.075C192.825 457.97 192.391 455.819 190.648 454.347C189.064 453.008 186.727 452.974 185.006 455.011C183.858 456.369 183.564 457.866 184.137 459.437L181.981 460.796L174.594 452.228L181.498 444.056L183.535 445.777L178.028 452.297L181.868 456.705C181.916 455.271 182.421 454.03 183.301 452.989C186.15 449.616 190.053 449.771 192.656 451.97C195.395 454.284 196.108 458.261 193.106 461.815ZM206.717 445.658C204.039 448.827 200.309 449.477 197.596 447.224L199.489 444.983C201.218 446.289 203.315 445.965 204.883 444.109C206.508 442.185 206.462 440.128 204.809 438.732C203.202 437.375 201.055 437.85 199.277 439.955L197.938 441.539L196.104 439.99L197.347 438.519C198.801 436.799 198.761 434.825 197.267 433.563C195.818 432.339 193.984 432.536 192.684 434.075C191.364 435.637 191.481 437.52 192.985 438.907L191.111 441.125C188.656 438.935 188.575 435.22 190.927 432.436C193.413 429.493 196.717 429.026 199.116 431.053C200.61 432.315 201.064 434.211 200.473 436.427C202.718 434.871 205.006 434.826 206.772 436.317C209.488 438.612 209.47 442.398 206.717 445.658ZM208.431 427.741C203.36 423.457 202.233 419.052 205.292 415.431C208.352 411.809 212.903 412.162 217.973 416.445C223.044 420.729 224.145 425.073 221.047 428.74C217.949 432.407 213.501 432.025 208.431 427.741ZM210.42 425.387C214.2 428.58 217.171 429.15 218.987 427C220.804 424.85 219.787 422.012 215.984 418.8C212.159 415.568 209.169 415.02 207.352 417.171C205.574 419.276 206.594 422.155 210.42 425.387ZM222.901 410.613C217.83 406.329 216.703 401.924 219.762 398.302C222.822 394.68 227.373 395.033 232.443 399.317C237.514 403.6 238.615 407.945 235.517 411.612C232.419 415.279 227.971 414.896 222.901 410.613ZM224.89 408.258C228.67 411.452 231.641 412.022 233.457 409.872C235.274 407.721 234.257 404.884 230.454 401.671C226.629 398.439 223.639 397.892 221.822 400.042C220.044 402.148 221.064 405.027 224.89 408.258ZM262.974 378.651L261.024 380.96L247.713 369.716L245.208 372.681L243.216 370.998L247.672 365.724L262.974 378.651ZM274.86 360.449L276.897 362.17L268.54 372.062L267.228 370.953L266.101 361.816C265.662 358.342 265.191 356.741 263.81 355.575C262.293 354.294 260.331 354.459 259.011 356.021C257.577 357.718 257.73 359.787 259.428 361.221L257.534 363.462C254.705 361.072 254.465 357.223 257.028 354.19C259.437 351.338 263.053 350.823 265.565 352.946C267.308 354.418 267.976 356.107 268.525 360.877L269.41 366.9L274.86 360.449ZM286.343 351.401C283.666 354.57 279.936 355.221 277.223 352.968L279.116 350.727C280.845 352.032 282.942 351.709 284.51 349.852C286.135 347.928 286.088 345.871 284.436 344.476C282.829 343.118 280.682 343.593 278.903 345.698L277.565 347.283L275.731 345.734L276.974 344.262C278.428 342.542 278.388 340.569 276.894 339.306C275.445 338.083 273.611 338.279 272.311 339.818C270.991 341.38 271.108 343.263 272.612 344.65L270.738 346.869C268.283 344.678 268.202 340.963 270.554 338.179C273.04 335.236 276.344 334.769 278.743 336.796C280.237 338.058 280.691 339.954 280.1 342.17C282.345 340.614 284.633 340.569 286.399 342.06C289.115 344.355 289.097 348.142 286.343 351.401ZM301.722 325.942L299.962 328.025L303.335 330.874L301.404 333.16L298.031 330.311L291.816 337.668L290.209 336.31L286.542 319.713L288.033 317.947L297.97 326.342L299.73 324.259L301.722 325.942ZM291.985 333.427L296.039 328.628L289.565 323.159L291.985 333.427ZM328.462 301.59C325.938 304.578 322.06 305.22 319.248 303.038L321.179 300.752C322.943 301.97 324.968 301.548 326.402 299.85C328.18 297.745 327.747 295.594 326.004 294.122C324.42 292.783 322.083 292.749 320.362 294.786C319.214 296.144 318.92 297.641 319.493 299.212L317.337 300.571L309.95 292.003L316.854 283.831L318.891 285.552L313.383 292.072L317.224 296.48C317.271 295.046 317.777 293.805 318.656 292.763C321.506 289.391 325.409 289.546 328.012 291.745C330.751 294.059 331.464 298.036 328.462 301.59ZM342.164 285.325C339.429 288.562 335.177 289.004 332.392 286.652C330.446 285.007 329.816 283.273 329.341 280.621L327.537 271.185L329.736 268.581L331.545 277.829C331.769 277.242 332.061 276.713 332.405 276.305C334.929 273.317 338.78 272.846 341.745 275.351C344.642 277.799 344.936 282.043 342.164 285.325ZM340.259 283.677C341.788 281.866 341.706 279.392 339.805 277.785C337.79 276.083 335.382 276.454 333.853 278.265C332.342 280.053 332.224 282.397 334.351 284.195C336.276 285.82 338.748 285.465 340.259 283.677ZM344.997 253.226L353.973 270.933L351.889 273.4L343.561 256.396L337.002 264.16L334.942 262.42L343.662 252.097L344.997 253.226ZM368.342 245.199C371.013 247.455 370.935 251.268 368.124 254.595C365.293 257.946 361.528 258.683 358.857 256.426C357.001 254.858 356.85 252.558 357.619 250.454C355.963 251.266 353.941 251.226 352.379 249.906C349.889 247.803 349.905 244.248 352.391 241.305C354.839 238.408 358.36 237.775 360.85 239.878C362.412 241.198 362.771 243.207 362.266 244.953C364.212 243.843 366.486 243.631 368.342 245.199ZM354.436 247.609C355.93 248.872 357.753 248.55 359.092 246.965C360.411 245.403 360.424 243.552 358.93 242.29C357.413 241.009 355.544 241.292 354.225 242.854C352.886 244.438 352.919 246.328 354.436 247.609ZM360.839 253.989C362.537 255.423 364.665 254.971 366.29 253.046C367.896 251.145 368.006 248.949 366.308 247.515C364.656 246.119 362.532 246.613 360.925 248.514C359.3 250.438 359.187 252.593 360.839 253.989ZM380.596 207.964C383.35 204.704 387.583 204.285 390.367 206.637C392.246 208.224 392.891 209.894 393.419 212.668L395.242 222.082L393.023 224.708L391.215 215.46C390.991 216.047 390.676 216.557 390.313 216.987C387.808 219.953 383.958 220.424 381.015 217.938C378.117 215.49 377.842 211.223 380.596 207.964ZM382.501 209.612C380.971 211.423 381.053 213.897 382.955 215.504C384.969 217.205 387.377 216.835 388.907 215.024C390.418 213.235 390.555 210.869 388.427 209.071C386.503 207.446 384.012 207.824 382.501 209.612ZM397.798 203.581C392.727 199.298 391.6 194.893 394.659 191.271C397.719 187.649 402.27 188.002 407.34 192.286C412.411 196.569 413.512 200.913 410.414 204.58C407.316 208.248 402.868 207.865 397.798 203.581ZM399.787 201.227C403.567 204.421 406.538 204.991 408.354 202.84C410.171 200.69 409.154 197.853 405.351 194.64C401.526 191.408 398.536 190.861 396.719 193.011C394.941 195.116 395.961 197.995 399.787 201.227ZM423.666 188.435L421.715 190.744L408.405 179.5L405.9 182.465L403.908 180.782L408.363 175.508L423.666 188.435ZM421.546 175.47C416.476 171.186 415.348 166.781 418.408 163.159C421.467 159.537 426.018 159.891 431.088 164.174C436.159 168.458 437.26 172.802 434.163 176.469C431.065 180.136 426.617 179.753 421.546 175.47ZM423.535 173.115C427.315 176.309 430.286 176.879 432.103 174.729C433.919 172.578 432.903 169.741 429.1 166.528C425.274 163.296 422.284 162.749 420.468 164.899C418.689 167.005 419.709 169.884 423.535 173.115Z" fill="white"/>
<path d="M399.397 269.272L402.434 274.69L402.005 275.198L396.161 273.103L396.569 272.62L401.692 274.488L399.005 269.736L399.397 269.272ZM406.371 270.03L404.747 269.454L402.996 271.527L403.83 273.038L403.443 273.495L400.459 268.016L400.887 267.508L406.784 269.541L406.371 270.03ZM401.157 268.192L402.739 271.066L404.244 269.284L401.157 268.192ZM409.493 266.334L407.35 268.871L402.907 265.117L403.299 264.653L407.327 268.056L409.079 265.983L409.493 266.334ZM410.468 265.18L410.076 265.644L405.633 261.89L406.025 261.426L410.468 265.18ZM412.383 262.913L411.317 264.175L406.874 260.422L407.94 259.16C409.142 257.736 410.71 257.714 412.009 258.811C413.29 259.894 413.559 261.521 412.383 262.913ZM407.668 260.298L411.306 263.371L411.97 262.586C412.922 261.459 412.713 260.212 411.612 259.282C410.517 258.356 409.294 258.373 408.332 259.512L407.668 260.298ZM408.571 279.822L408.184 280.28L404.156 276.877L402.896 278.368L402.481 278.018L405.388 274.577L405.802 274.928L404.543 276.419L408.571 279.822ZM410.749 277.243L410.357 277.708L405.914 273.954L406.306 273.49L408.256 275.137L410.388 272.612L408.439 270.965L408.831 270.501L413.274 274.255L412.882 274.719L410.791 272.952L408.658 275.477L410.749 277.243ZM414.512 272.79L414.12 273.254L409.677 269.5L411.015 267.916C411.81 266.976 412.795 266.801 413.649 267.522C414.317 268.087 414.447 268.95 413.974 269.748L416.849 270.024L416.378 270.581L413.612 270.29L412.754 271.305L414.512 272.79ZM410.459 269.366L412.365 270.976L413.279 269.893C413.854 269.212 413.876 268.509 413.257 267.986C412.638 267.464 411.948 267.602 411.373 268.283L410.459 269.366ZM415.714 262.354L418.634 264.822C419.631 265.663 419.706 266.83 418.88 267.807C418.049 268.791 416.886 268.912 415.89 268.07L412.969 265.603L413.361 265.139L416.307 267.627C417.031 268.239 417.885 268.144 418.465 267.457C419.046 266.77 418.991 265.918 418.267 265.307L415.322 262.818L415.714 262.354Z" fill="white"/>
<path d="M419.623 256.534C416.279 253.709 415.535 250.804 417.553 248.415C419.571 246.026 422.572 246.259 425.916 249.084C429.26 251.909 429.987 254.774 427.944 257.193C425.901 259.611 422.967 259.359 419.623 256.534ZM420.934 254.981C423.428 257.087 425.387 257.463 426.585 256.045C427.783 254.627 427.113 252.756 424.605 250.637C422.082 248.505 420.11 248.144 418.912 249.563C417.739 250.951 418.411 252.85 420.934 254.981ZM437.8 245.496C436.034 247.586 433.574 248.014 431.785 246.529L433.033 245.051C434.174 245.912 435.556 245.698 436.591 244.474C437.663 243.205 437.632 241.849 436.542 240.928C435.482 240.032 434.066 240.346 432.893 241.734L432.01 242.779L430.801 241.758L431.621 240.787C432.579 239.653 432.553 238.351 431.568 237.519C430.612 236.712 429.403 236.841 428.545 237.856C427.675 238.886 427.752 240.128 428.744 241.043L427.508 242.506C425.889 241.061 425.835 238.611 427.386 236.775C429.026 234.834 431.205 234.526 432.787 235.863C433.773 236.695 434.072 237.946 433.682 239.407C435.163 238.381 436.672 238.351 437.836 239.335C439.628 240.849 439.616 243.346 437.8 245.496ZM447.084 240.077L445.811 241.585L437.797 223.482L439.058 221.989L447.084 240.077ZM455.592 224.434C453.826 226.524 451.366 226.953 449.577 225.467L450.826 223.989C451.966 224.85 453.349 224.637 454.383 223.413C455.455 222.144 455.424 220.787 454.334 219.867C453.274 218.971 451.858 219.285 450.685 220.673L449.802 221.718L448.593 220.696L449.413 219.726C450.371 218.591 450.345 217.29 449.36 216.458C448.404 215.65 447.195 215.78 446.337 216.795C445.467 217.825 445.544 219.067 446.536 219.982L445.3 221.445C443.681 220 443.627 217.55 445.178 215.714C446.818 213.773 448.997 213.465 450.579 214.802C451.565 215.634 451.864 216.885 451.474 218.346C452.955 217.32 454.464 217.29 455.628 218.274C457.42 219.787 457.408 222.285 455.592 224.434ZM457.227 212.021C453.883 209.196 453.139 206.29 455.157 203.902C457.175 201.513 460.176 201.746 463.52 204.571C466.865 207.396 467.591 210.261 465.548 212.68C463.505 215.098 460.571 214.846 457.227 212.021ZM458.539 210.468C461.032 212.574 462.991 212.95 464.189 211.532C465.387 210.114 464.717 208.242 462.209 206.124C459.686 203.992 457.714 203.631 456.516 205.049C455.343 206.438 456.016 208.337 458.539 210.468Z" fill="white"/>
</g>
<rect x="0.0360836" y="382.617" width="501.773" height="316.601" rx="20.5204" transform="rotate(-49.8094 0.0360836 382.617)" stroke="#0374B9" stroke-width="0.977163"/>
<circle opacity="0.1" cx="531" cy="238.364" r="21" fill="white"/>
<circle cx="531" cy="238.364" r="11" fill="url(#paint14_linear_27_102)"/>
<line x1="522" y1="237.864" x2="756" y2="237.864" stroke="url(#paint15_linear_27_102)"/>
<line x1="756.5" y1="207.364" x2="756.5" y2="269.364" stroke="url(#paint16_linear_27_102)"/>
<circle opacity="0.1" cx="432" cy="361.364" r="21" fill="white"/>
<circle cx="432" cy="361.364" r="11" fill="url(#paint17_linear_27_102)"/>
<line x1="438" y1="360.864" x2="756" y2="360.864" stroke="url(#paint18_linear_27_102)"/>
<line x1="756.5" y1="330.364" x2="756.5" y2="392.364" stroke="url(#paint19_linear_27_102)"/>
<circle opacity="0.1" cx="326" cy="484.364" r="21" fill="white"/>
<circle cx="326" cy="484.364" r="11" fill="url(#paint20_linear_27_102)"/>
<line x1="347" y1="483.864" x2="756" y2="483.864" stroke="url(#paint21_linear_27_102)"/>
<line x1="756.5" y1="453.364" x2="756.5" y2="515.364" stroke="url(#paint22_linear_27_102)"/>
<defs>
<filter id="filter0_f_27_102" x="66.5127" y="155.61" width="174.917" height="136.612" filterUnits="userSpaceOnUse" color-interpolation-filters="sRGB">
<feFlood flood-opacity="0" result="BackgroundImageFix"/>
<feBlend mode="normal" in="SourceGraphic" in2="BackgroundImageFix" result="shape"/>
<feGaussianBlur stdDeviation="22.6653" result="effect1_foregroundBlur_27_102"/>
</filter>
<filter id="filter1_f_27_102" x="-387.924" y="-84.0555" width="711.474" height="818.023" filterUnits="userSpaceOnUse" color-interpolation-filters="sRGB">
<feFlood flood-opacity="0" result="BackgroundImageFix"/>
<feBlend mode="normal" in="SourceGraphic" in2="BackgroundImageFix" result="shape"/>
<feGaussianBlur stdDeviation="93.5746" result="effect1_foregroundBlur_27_102"/>
</filter>
<filter id="filter2_f_27_102" x="252.551" y="-155.351" width="700.149" height="882.983" filterUnits="userSpaceOnUse" color-interpolation-filters="sRGB">
<feFlood flood-opacity="0" result="BackgroundImageFix"/>
<feBlend mode="normal" in="SourceGraphic" in2="BackgroundImageFix" result="shape"/>
<feGaussianBlur stdDeviation="93.2255" result="effect1_foregroundBlur_27_102"/>
</filter>
<linearGradient id="paint0_linear_27_102" x1="-4.36765" y1="163.246" x2="67.6545" y2="355.953" gradientUnits="userSpaceOnUse">
<stop stop-color="#00FFFF"/>
<stop offset="0.579376" stop-color="#0158FF"/>
<stop offset="1" stop-color="#0152FF"/>
</linearGradient>
<linearGradient id="paint1_linear_27_102" x1="232.417" y1="356.924" x2="-108.512" y2="100.848" gradientUnits="userSpaceOnUse">
<stop stop-color="#00FFFF"/>
<stop offset="0.0001" stop-color="#00FFFF"/>
<stop offset="1" stop-color="#0152FF"/>
</linearGradient>
<linearGradient id="paint2_linear_27_102" x1="896.162" y1="317.989" x2="548.071" y2="26.8593" gradientUnits="userSpaceOnUse">
<stop stop-color="#00FFFF"/>
<stop offset="0.0001" stop-color="#00FFFF"/>
<stop offset="1" stop-color="#0152FF"/>
</linearGradient>
<linearGradient id="paint3_linear_27_102" x1="290.353" y1="144.752" x2="257.429" y2="164.322" gradientUnits="userSpaceOnUse">
<stop stop-color="#00FFFF"/>
<stop offset="1" stop-color="#0152FF"/>
</linearGradient>
<linearGradient id="paint4_linear_27_102" x1="257.927" y1="154.558" x2="260.63" y2="156.14" gradientUnits="userSpaceOnUse">
<stop stop-color="#004ABE"/>
<stop offset="1" stop-color="#0164FF" stop-opacity="0"/>
</linearGradient>
<linearGradient id="paint5_linear_27_102" x1="267.519" y1="146.79" x2="269.307" y2="144.658" gradientUnits="userSpaceOnUse">
<stop stop-color="#003992"/>
<stop offset="1" stop-color="#00B8FF" stop-opacity="0"/>
</linearGradient>
<linearGradient id="paint6_linear_27_102" x1="266.193" y1="157.273" x2="264.23" y2="159.576" gradientUnits="userSpaceOnUse">
<stop stop-color="#003992"/>
<stop offset="1" stop-color="#0164FF" stop-opacity="0"/>
</linearGradient>
<linearGradient id="paint7_linear_27_102" x1="279.87" y1="159.792" x2="277.407" y2="162.446" gradientUnits="userSpaceOnUse">
<stop stop-color="#00B5FF" stop-opacity="0"/>
<stop offset="1" stop-color="#003992"/>
</linearGradient>
<linearGradient id="paint8_linear_27_102" x1="274.662" y1="164.773" x2="274.661" y2="164.775" gradientUnits="userSpaceOnUse">
<stop stop-color="#9B3F00"/>
<stop offset="0.2168" stop-color="#AB4500" stop-opacity="0.7832"/>
<stop offset="0.641" stop-color="#D65600" stop-opacity="0.359"/>
<stop offset="1" stop-color="#FF6600" stop-opacity="0"/>
</linearGradient>
<linearGradient id="paint9_linear_27_102" x1="275.395" y1="165.38" x2="271.846" y2="168.001" gradientUnits="userSpaceOnUse">
<stop stop-color="#003992"/>
<stop offset="0.3315" stop-color="#0056BC" stop-opacity="0.653"/>
<stop offset="0.7479" stop-color="#0176EC" stop-opacity="0.2171"/>
<stop offset="0.9553" stop-color="#0183FF" stop-opacity="0"/>
</linearGradient>
<linearGradient id="paint10_linear_27_102" x1="290.522" y1="167.183" x2="286.608" y2="165.687" gradientUnits="userSpaceOnUse">
<stop offset="0.219" stop-color="#00D6FF" stop-opacity="0"/>
<stop offset="0.9001" stop-color="#003992"/>
</linearGradient>
<linearGradient id="paint11_linear_27_102" x1="282.068" y1="167.469" x2="278.917" y2="165.299" gradientUnits="userSpaceOnUse">
<stop offset="0.00559998" stop-color="#003992"/>
<stop offset="0.2157" stop-color="#0059B4" stop-opacity="0.7589"/>
<stop offset="0.5073" stop-color="#0180DC" stop-opacity="0.4243"/>
<stop offset="0.7379" stop-color="#0198F6" stop-opacity="0.1597"/>
<stop offset="0.8771" stop-color="#01A1FF" stop-opacity="0"/>
</linearGradient>
<linearGradient id="paint12_linear_27_102" x1="262.13" y1="169.283" x2="260.01" y2="167.505" gradientUnits="userSpaceOnUse">
<stop stop-color="#0164FF" stop-opacity="0"/>
<stop offset="1" stop-color="#003992"/>
</linearGradient>
<linearGradient id="paint13_linear_27_102" x1="275.146" y1="153.874" x2="273.042" y2="152.082" gradientUnits="userSpaceOnUse">
<stop stop-color="#00B2FF" stop-opacity="0"/>
<stop offset="1" stop-color="#003992"/>
</linearGradient>
<linearGradient id="paint14_linear_27_102" x1="551.788" y1="251.853" x2="520.187" y2="239.054" gradientUnits="userSpaceOnUse">
<stop stop-color="#00FFFF"/>
<stop offset="1" stop-color="#0152FF"/>
</linearGradient>
<linearGradient id="paint15_linear_27_102" x1="860.114" y1="239.477" x2="860.07" y2="235.349" gradientUnits="userSpaceOnUse">
<stop stop-color="#00FFFF"/>
<stop offset="1" stop-color="#0152FF"/>
</linearGradient>
<linearGradient id="paint16_linear_27_102" x1="755.5" y1="207.364" x2="755.5" y2="269.364" gradientUnits="userSpaceOnUse">
<stop stop-color="white" stop-opacity="0"/>
<stop offset="0.5" stop-color="#01A4FF"/>
<stop offset="1" stop-color="white" stop-opacity="0"/>
</linearGradient>
<linearGradient id="paint17_linear_27_102" x1="452.788" y1="374.853" x2="421.187" y2="362.054" gradientUnits="userSpaceOnUse">
<stop stop-color="#00FFFF"/>
<stop offset="1" stop-color="#0152FF"/>
</linearGradient>
<linearGradient id="paint18_linear_27_102" x1="897.488" y1="362.477" x2="897.456" y2="358.349" gradientUnits="userSpaceOnUse">
<stop stop-color="#00FFFF"/>
<stop offset="1" stop-color="#0152FF"/>
</linearGradient>
<linearGradient id="paint19_linear_27_102" x1="755.5" y1="330.364" x2="755.5" y2="392.364" gradientUnits="userSpaceOnUse">
<stop stop-color="white" stop-opacity="0"/>
<stop offset="0.5" stop-color="#01A4FF"/>
<stop offset="1" stop-color="white" stop-opacity="0"/>
</linearGradient>
<linearGradient id="paint20_linear_27_102" x1="346.788" y1="497.853" x2="315.187" y2="485.054" gradientUnits="userSpaceOnUse">
<stop stop-color="#00FFFF"/>
<stop offset="1" stop-color="#0152FF"/>
</linearGradient>
<linearGradient id="paint21_linear_27_102" x1="937.976" y1="485.477" x2="937.951" y2="481.349" gradientUnits="userSpaceOnUse">
<stop stop-color="#00FFFF"/>
<stop offset="1" stop-color="#0152FF"/>
</linearGradient>
<linearGradient id="paint22_linear_27_102" x1="755.5" y1="453.364" x2="755.5" y2="515.364" gradientUnits="userSpaceOnUse">
<stop stop-color="white" stop-opacity="0"/>
<stop offset="0.5" stop-color="#01A4FF"/>
<stop offset="1" stop-color="white" stop-opacity="0"/>
</linearGradient>
<clipPath id="clip0_27_102">
<rect x="0.724609" y="382.559" width="500.796" height="315.624" rx="20.0318" transform="rotate(-49.8094 0.724609 382.559)" fill="white"/>
</clipPath>
<clipPath id="clip1_27_102">
<rect width="37.8324" height="41.292" fill="white" transform="translate(245.365 157.836) rotate(-49.8094)"/>
</clipPath>
</defs>
</svg>
