<svg width="40" height="40" viewBox="0 0 40 40" fill="none" xmlns="http://www.w3.org/2000/svg">
<path d="M39.4015 24.8381C36.7304 35.5525 25.8784 42.0731 15.1628 39.4012C4.45162 36.7301 -2.06895 25.8775 0.603365 15.1639C3.27334 4.44838 14.1253 -2.07268 24.8376 0.598468C35.5525 3.26961 42.0727 14.1234 39.4012 24.8383L39.4014 24.8381H39.4015Z" fill="#F7931A"/>
<path fill-rule="evenodd" clip-rule="evenodd" d="M28.8212 17.1506C29.2192 14.489 27.1929 13.0583 24.422 12.1039L25.3209 8.49857L23.1263 7.95171L22.2512 11.4621C21.6743 11.3182 21.0818 11.1826 20.4929 11.0482L21.3742 7.51463L19.1809 6.96777L18.2816 10.5719C17.8041 10.4632 17.3352 10.3558 16.8802 10.2426L16.8827 10.2312L13.8562 9.47547L13.2724 11.8195C13.2724 11.8195 14.9007 12.1928 14.8664 12.2157C15.7551 12.4375 15.9158 13.0258 15.8891 13.4922L14.8652 17.5995C14.9264 17.615 15.0058 17.6375 15.0934 17.6727L15.0297 17.6568L15.0296 17.6568C14.9755 17.6432 14.9192 17.6291 14.8614 17.6153L13.4262 23.3691C13.3176 23.6391 13.0419 24.0443 12.4206 23.8904C12.4426 23.9223 10.8255 23.4923 10.8255 23.4923L9.73584 26.0045L12.5918 26.7165C12.9046 26.7949 13.2137 26.8755 13.5196 26.9552L13.5198 26.9553C13.7335 27.011 13.9457 27.0663 14.1566 27.1202L13.2484 30.7669L15.4405 31.3138L16.3399 27.7058C16.9388 27.8684 17.5199 28.0183 18.0889 28.1597L17.1925 31.7506L19.3873 32.2975L20.2954 28.6577C24.0378 29.3659 26.8517 29.0804 28.0362 25.6954C28.9906 22.9701 27.9887 21.3982 26.0198 20.3731C27.4538 20.0423 28.534 19.0992 28.822 17.1509L28.8213 17.1504L28.8212 17.1506ZM23.8069 24.1819C23.1846 26.6823 19.2708 25.6486 17.4801 25.1756C17.319 25.1331 17.1751 25.0951 17.0524 25.0646L18.2575 20.2334C18.4072 20.2707 18.59 20.3118 18.7972 20.3582C20.6494 20.7739 24.4444 21.6256 23.807 24.1819H23.8069ZM19.1687 18.116C20.6616 18.5144 23.9184 19.3836 24.4856 17.1111H24.4858C25.065 14.7868 21.8999 14.0861 20.3541 13.7439C20.1802 13.7054 20.0268 13.6714 19.9015 13.6402L18.8089 18.0218C18.912 18.0475 19.0331 18.0798 19.1687 18.116Z" fill="white"/>
</svg>
