<svg width="17" height="17" viewBox="0 0 17 17" fill="none" xmlns="http://www.w3.org/2000/svg">
<g clip-path="url(#clip0_104_3058)">
<path fill-rule="evenodd" clip-rule="evenodd" d="M8.80884 0.5C4.30634 0.5 0.666504 4.16667 0.666504 8.70283C0.666504 12.3288 2.99867 15.3982 6.234 16.4845C6.6385 16.5662 6.78667 16.308 6.78667 16.0908C6.78667 15.9007 6.77334 15.2488 6.77334 14.5697C4.50834 15.0587 4.03667 13.5918 4.03667 13.5918C3.67267 12.6412 3.13334 12.3968 3.13334 12.3968C2.392 11.8943 3.18734 11.8943 3.18734 11.8943C4.00967 11.9487 4.44117 12.7363 4.44117 12.7363C5.169 13.9857 6.34184 13.6327 6.81367 13.4153C6.881 12.8857 7.09684 12.519 7.326 12.3153C5.5195 12.1252 3.61884 11.419 3.61884 8.26817C3.61884 7.37183 3.94217 6.6385 4.4545 6.06817C4.37367 5.8645 4.0905 5.02233 4.5355 3.89517C4.5355 3.89517 5.223 3.67783 6.77317 4.73717C7.43685 4.55761 8.1213 4.46627 8.80884 4.4655C9.49634 4.4655 10.1972 4.56067 10.8443 4.73717C12.3947 3.67783 13.0822 3.89517 13.0822 3.89517C13.5272 5.02233 13.2438 5.8645 13.163 6.06817C13.6888 6.6385 13.9988 7.37183 13.9988 8.26817C13.9988 11.419 12.0982 12.1115 10.2782 12.3153C10.5748 12.5733 10.8308 13.0622 10.8308 13.8363C10.8308 14.9363 10.8175 15.8192 10.8175 16.0907C10.8175 16.308 10.9658 16.5662 11.3702 16.4847C14.6055 15.398 16.9377 12.3288 16.9377 8.70283C16.951 4.16667 13.2978 0.5 8.80884 0.5Z" fill="#8591B1"/>
</g>
<defs>
<clipPath id="clip0_104_3058">
<rect width="16.3333" height="16" fill="white" transform="translate(0.666504 0.5)"/>
</clipPath>
</defs>
</svg>
