<svg width="40" height="40" viewBox="0 0 40 40" fill="none" xmlns="http://www.w3.org/2000/svg">
<path d="M39.4016 24.8381C36.7301 35.5525 25.877 42.0731 15.1601 39.4012C4.44772 36.7301 -2.07358 25.8775 0.599038 15.1639C3.26931 4.44838 14.1225 -2.07268 24.836 0.598468C35.5521 3.26961 42.073 14.1234 39.4013 24.8383L39.4015 24.8381H39.4016Z" fill="#F3BA2F"/>
<path fill-rule="evenodd" clip-rule="evenodd" d="M20.0023 12.6933L14.8229 17.8722L14.823 17.872L11.8094 14.8586L20.0023 6.66663L28.1979 14.8611L25.1843 17.8744L20.0023 12.6933ZM9.68126 16.9861L6.66748 20L9.68105 23.0128L12.6948 19.9993L9.68126 16.9861ZM14.8229 22.1281L20.0024 27.3066L25.1842 22.1256L28.1995 25.1373L28.198 25.1389L20.0024 33.3333L11.8094 25.1413L11.8052 25.137L14.8229 22.1281ZM30.3235 16.9878L27.3097 20.0012L30.3234 23.0145L33.3371 20.001L30.3235 16.9878Z" fill="white"/>
<path d="M23.0591 19.9984H23.0604L20.0025 16.9407L17.7423 19.2L17.4827 19.4597L16.9471 19.9953L16.9429 19.9994L16.9471 20.0038L20.0025 23.0593L23.0606 20.0016L23.0621 19.9999L23.0593 19.9984" fill="white"/>
</svg>
