<svg width="40" height="40" viewBox="0 0 40 40" fill="none" xmlns="http://www.w3.org/2000/svg">
<circle cx="20" cy="20" r="20" fill="#988430"/>
<circle cx="20" cy="20" r="19.3594" fill="#7A6A2A"/>
<circle cx="19.9998" cy="20.0001" r="18.9515" fill="#BA9F33"/>
<path fill-rule="evenodd" clip-rule="evenodd" d="M8.74451 17.8642C8.63123 17.7607 8.51155 17.657 8.40147 17.5535C8.29139 17.4501 8.17832 17.3464 8.06504 17.2429L7.7284 16.9229C7.67336 16.8679 7.61512 16.8195 7.56008 16.7642C7.50504 16.7158 7.4404 16.6607 7.38536 16.6121C6.93864 16.1882 6.48936 15.7643 6.04883 15.3402C6.50515 15.7577 6.95187 16.1722 7.40819 16.5959L7.56669 16.7546C7.62173 16.8094 7.67998 16.8581 7.73501 16.9131L8.07144 17.2237C8.18472 17.3272 8.2948 17.4309 8.40808 17.5437C8.52136 17.6566 8.63144 17.7605 8.74472 17.8637L8.74451 17.8642ZM2.81576 17.8002C2.81576 17.8002 4.44029 17.9683 5.23325 18.0815C5.96776 18.1852 8.26557 18.5379 8.26557 18.5379L2.81576 17.8002ZM2.81564 17.8002C3.27196 17.839 3.72828 17.8874 4.1846 17.936C4.41756 17.9587 4.64092 17.9845 4.86428 18.0071L5.20711 18.0461C5.32039 18.0621 5.43047 18.0783 5.54375 18.0946L6.90311 18.3113L7.58258 18.4246C7.80594 18.4634 8.0293 18.5056 8.26226 18.5445C8.0389 18.5219 7.80594 18.4894 7.58258 18.457L6.90311 18.3599L5.54375 18.1594C5.43047 18.1432 5.32039 18.1204 5.20711 18.1044L4.86407 18.0649C4.64071 18.0423 4.40775 18.0099 4.18439 17.9838C3.72807 17.929 3.27175 17.8706 2.81543 17.7995L2.81564 17.8002ZM8.10374 18.9611C8.10374 18.9611 6.36913 19.4014 5.78332 19.5698C5.20732 19.7283 3.46289 20.259 3.46289 20.259L8.10353 18.9613L8.10374 18.9611Z" fill="#CFB66C"/>
<path fill-rule="evenodd" clip-rule="evenodd" d="M8.1037 18.9611C7.71863 19.0743 7.3357 19.1844 6.94509 19.2881L5.78647 19.5987C5.40141 19.712 5.01847 19.8221 4.63447 19.9354L4.05847 20.0939C3.86754 20.1489 3.67341 20.1973 3.47607 20.2526C3.66679 20.1886 3.86114 20.1231 4.05207 20.068L4.62807 19.8837C5.01314 19.7638 5.39607 19.6506 5.78007 19.5309C6.17154 19.4338 6.55682 19.3301 6.94829 19.2363C7.32034 19.1424 7.71202 19.0487 8.1037 18.9613V18.9611ZM3.70589 21.3269C3.89661 21.2557 6.09736 20.23 6.60872 19.9904C6.86472 19.8705 7.60883 19.6064 7.60883 19.6064L3.70589 21.3269Z" fill="#CFB66C"/>
<path fill-rule="evenodd" clip-rule="evenodd" d="M3.70578 21.3269C3.87389 21.2629 4.03261 21.1846 4.19431 21.1102L4.67325 20.8868L5.63453 20.4241C5.95453 20.272 6.26557 20.1041 6.59559 19.9612C6.76391 19.8901 6.93223 19.8319 7.10034 19.7769L7.35634 19.696C7.44359 19.6734 7.52466 19.6474 7.61234 19.6248C7.29234 19.7769 6.95549 19.9064 6.63506 20.055C6.31506 20.2138 5.98781 20.3433 5.65757 20.4856L4.68029 20.9158C4.35218 21.0488 4.03218 21.191 3.70557 21.3269H3.70578ZM3.91911 22.2229C3.91911 22.2229 5.91249 21.0547 6.59857 20.6793C6.95783 20.4787 8.11964 19.9025 8.11964 19.9025L3.91911 22.2229Z" fill="#CFB66C"/>
<path fill-rule="evenodd" clip-rule="evenodd" d="M3.91943 22.2233C4.25586 22.0162 4.5989 21.8058 4.94194 21.5923L5.45394 21.2814C5.62866 21.178 5.79698 21.0809 5.97511 20.9774C6.14983 20.8738 6.31815 20.7703 6.49607 20.6732C6.58077 20.6209 6.66952 20.5755 6.76146 20.5373L7.03325 20.4014C7.3925 20.2267 7.75175 20.0486 8.13042 19.8965C7.78738 20.1134 7.43453 20.298 7.08189 20.4887C6.90717 20.5858 6.72903 20.6732 6.55431 20.7703C6.37959 20.8674 6.21127 20.971 6.03314 21.0649C5.85842 21.1684 5.6901 21.2654 5.51218 21.3593L4.98461 21.6473L3.91986 22.2233H3.91943ZM8.10362 20.1585C8.10362 20.1585 6.86416 21.1099 6.46288 21.4141C6.0616 21.7184 4.88037 22.5728 4.88037 22.5728L8.10362 20.1585Z" fill="#CFB66C"/>
<path fill-rule="evenodd" clip-rule="evenodd" d="M15.2168 27.8317L14.5825 26.631L14.9514 25.1294L17.5824 24.1133L16.4626 21.8157L17.016 19.4952L18.0549 17.4174L21.2654 16.9126L23.6244 14.6635L28.7184 15.0485L29.7183 20.4951L27.7928 27.3527L26.6958 30.903L22.2491 31.0713L20.1844 29.6409L17.7669 28.631L15.2168 27.8317Z" fill="#E2CC85"/>
<path fill-rule="evenodd" clip-rule="evenodd" d="M23.0165 27.7928C23.0165 27.7928 22.4015 28.0744 21.3525 28.0096C21.0489 27.6019 18.9229 27.4109 18.9229 27.4109C18.9229 27.4109 18.6575 27.3301 18.1881 27.5242C17.7158 27.7162 17.2691 27.6925 16.8516 27.796C16.4341 27.8995 16.0196 27.3559 15.6996 27.2426C15.3796 27.1229 14.9553 26.8349 14.9553 26.8349L14.0593 26.7475L12.26 25.9869L9.40157 23.1392L8.62483 24.3552L8.38525 25.86L9.24947 27.6433L11.5763 29.7629L16.1135 30.9149L18.8027 30.1226L22.1717 28.6986L23.0165 27.7926V27.7928Z" fill="#F1D789"/>
<path fill-rule="evenodd" clip-rule="evenodd" d="M6.89645 17.7282L7.47245 15.984L8.15874 14.8576L10.3689 14.6731L9.70541 16.6085L7.85773 19.8966L8.62466 22.8318L7.26552 23.5113L6.84781 22.8706L6.51138 21.4014L6.48877 19.7509L6.89645 17.7282Z" fill="#F4ECB4"/>
<path fill-rule="evenodd" clip-rule="evenodd" d="M9.37537 27.6732L8.95148 27.0809C8.95148 27.0809 8.8382 26.7993 8.90305 26.5534C8.96705 26.3042 8.95788 26.288 8.92567 26.1941C8.89346 26.1003 8.62145 25.7766 8.63767 25.4982C8.65367 25.2166 8.61505 25.1228 8.82199 24.8996C9.03873 24.6829 8.97409 24.3074 8.97409 24.3074L9.25569 24.4821L9.31969 24.385C9.31969 24.385 9.42316 24.4659 9.42316 24.5922C9.44578 24.4175 9.35191 23.6083 9.56545 23.424C9.779 23.2397 10.1577 24.288 10.1577 24.288L9.92471 22.7669L9.32588 21.2072L8.26113 19.7832L8.19713 18.2135V18.0776C8.19713 18.0776 7.70839 18.8286 7.57249 19.4216C7.47543 19.8293 7.70839 20.3245 7.65996 20.9103C7.62092 21.4929 7.57249 21.4475 7.71479 21.6783C7.85708 21.9091 8.20353 22.3838 8.06764 22.7268C7.94796 23.0214 7.54007 22.8143 7.54007 22.8143C7.54007 22.8143 7.45921 23.0536 7.34913 23.1411C7.31031 22.9988 7.26828 22.9081 7.19063 22.8211C7.18401 22.8761 7.16801 22.9506 7.16801 22.9506C7.16801 22.9506 7.09676 22.7272 7.02551 22.4456C6.92865 22.0704 6.82497 21.5752 6.73111 21.3099C6.69228 21.462 6.59521 21.9247 6.59521 21.9247L6.65025 22.6368L6.91564 23.6141L7.17164 24.2541L7.42081 25.0372L7.63735 25.5633L7.81207 25.9646L7.96417 26.8676L8.69868 27.6441L9.09036 27.8191L9.37495 27.6734L9.37537 27.6732Z" fill="#F3E19D"/>
<path fill-rule="evenodd" clip-rule="evenodd" d="M7.28143 16.3042C7.28143 16.3042 6.75386 17.2002 6.60197 18.1035C6.45007 19.0067 6.31397 19.9612 6.40997 21.1908C6.50703 22.4305 6.69157 23.1908 6.84047 23.7346C7.09647 24.6377 7.75951 25.8933 7.75951 25.8933L7.78213 25.8447C7.67068 25.6335 7.58173 25.4111 7.51674 25.1812C7.42927 24.8382 7.39685 24.4305 7.31599 24.246C7.24474 24.0617 7.12506 23.9029 7.06682 23.6764C7.01178 23.4596 7.00282 23.1166 6.83386 22.861C6.76261 22.7573 6.67514 22.4856 6.64933 22.2138C6.6169 21.8059 6.66554 21.3496 6.62671 20.9743C6.55546 20.3497 6.50703 19.9258 6.57167 19.5987C6.63631 19.2717 6.97317 18.3433 7.18031 17.6053C7.31621 17.1328 7.23514 16.7347 7.48431 16.3236C7.73349 15.916 7.88581 15.5567 7.94063 15.3075C8.00463 15.081 7.28058 16.3042 7.28058 16.3042H7.28143Z" fill="#F2E8B0"/>
<path fill-rule="evenodd" clip-rule="evenodd" d="M9.78311 15.9449C9.78311 15.9449 9.51132 16.026 9.38183 16.1683C9.25234 16.3042 9.1973 16.4175 9.02258 16.6472C8.84786 16.877 8.83804 17.0647 8.69554 17.3527C8.55324 17.6343 8.23922 18.0582 8.20039 18.2103C8.16156 18.3624 8.09692 19.0743 8.01607 19.411C7.94482 19.7476 8.09692 20.1619 8.09692 20.1619L8.28124 20.1229C8.28124 20.1229 8.28124 20.3624 8.46578 20.5244C8.6501 20.6829 8.68252 19.987 8.68252 19.987L9.3718 17.6601L10.4105 16.9547L10.5238 16.3851L9.78268 15.9449H9.78311Z" fill="#F5EEC0"/>
<path fill-rule="evenodd" clip-rule="evenodd" d="M10.2881 17.0001C10.2881 17.0001 9.79934 17.0324 9.55998 17.2073C9.46291 17.2783 9.42408 17.3366 9.32062 17.424C9.12968 17.5825 8.93534 17.7282 8.84168 17.936C8.738 18.143 8.62472 18.457 8.54707 19.0492C8.51464 19.2984 8.51464 19.5281 8.49203 19.7289C8.4596 20.0007 8.41118 20.2174 8.43699 20.3689C8.46942 20.6795 8.78984 20.8414 8.82099 21.1941L9.48446 20.8576L10.1091 18.3947L11.436 17.5627L10.6851 16.7213L10.2872 16.9986L10.2881 17.0001Z" fill="#E6DB9D"/>
<path fill-rule="evenodd" clip-rule="evenodd" d="M6.78781 33.5849C6.79058 33.5605 6.79336 33.5362 6.79613 33.5113C6.89298 32.6793 6.90941 32.0486 6.98045 31.6538C7.08392 31.094 7.15517 30.8858 7.13896 30.6763C7.11634 30.3398 7.09053 30.0939 7.12296 29.8349C7.17138 29.4918 7.50802 29.0842 7.49842 28.8026C7.49181 28.5792 7.37853 28.4337 7.28146 28.2978C7.1844 28.1619 7.10674 28.0486 7.10674 28.0486C7.10674 28.0486 7.77021 27.5923 7.76381 25.754C7.77736 25.7578 7.7904 25.7633 7.80264 25.7702L8.12946 26.6989L8.35282 26.9707L9.21042 28.5694L10.314 29.6407L11.9449 30.7377L12.9677 31.8507L13.0711 34.8183L11.7346 36.553L11.5157 36.9493C9.77676 36.0763 8.18215 34.9416 6.7876 33.5846L6.78781 33.5849Z" fill="#E5CB7A"/>
<path fill-rule="evenodd" clip-rule="evenodd" d="M10.8706 36.4239C10.8706 36.4239 10.8932 36.0551 11.1974 35.8155C11.2461 35.8963 11.2783 35.9742 11.2687 36.0322C11.3237 35.9354 11.7088 35.3139 12.5794 35.152C13.45 34.9935 13.6604 34.3593 13.6604 34.3593L15.508 32.6797L17.6213 30.7347L20.1909 29.8317L21.3918 29.5371C21.3918 29.5371 21.4144 29.6245 21.3692 29.8187C21.5923 29.8027 22.0875 29.6894 22.602 29.5081C22.8092 29.4272 23.0035 29.3948 23.107 29.5017C23.2591 29.644 23.2817 29.9806 23.2913 30.1811C23.5405 30.1261 23.8285 29.8867 24.0593 29.9093C24.4284 29.9482 24.7552 30.3819 25.1307 30.3819C25.6258 30.3819 25.849 30.0777 26.1954 29.8381C26.4026 29.6958 26.7002 29.5181 26.8685 29.398C27.2698 29.1034 31.5157 27.8057 31.5157 27.8057L33.0044 27.9027L33.2439 29.5015L33.1159 33.6807C33.1002 33.6958 33.0844 33.7116 33.0684 33.7267L26.2997 37.2619L16.9173 38.7002C14.8156 38.3568 12.7875 37.6592 10.9192 36.637L10.8712 36.4237L10.8706 36.4239Z" fill="#D8C173"/>
<path fill-rule="evenodd" clip-rule="evenodd" d="M7.35693 34.1165C7.49027 33.8377 7.61016 33.6045 7.63128 33.5211C7.64792 33.6892 7.67843 34.0581 7.73987 34.4502C7.61087 34.3405 7.48323 34.2292 7.35693 34.1163V34.1165Z" fill="#F1D789"/>
<path fill-rule="evenodd" clip-rule="evenodd" d="M14.2105 38.0495L15.4239 37.712L15.5274 37.7445C15.5274 37.7445 15.5824 37.7769 15.5824 37.8868C15.7345 37.7995 15.864 37.8155 15.9579 37.7575C16.0063 37.8609 16.0547 38.204 16.2685 38.246C16.4917 38.2946 16.7312 38.1489 16.974 37.9646C17.2134 37.7737 17.486 37.5341 17.6923 37.437C17.768 37.5762 17.835 37.7199 17.893 37.8673C18.1648 37.6506 18.6374 36.7704 19.3104 36.7864C19.505 36.3267 19.83 35.934 20.2453 35.657C20.8699 35.2331 21.2614 35.2007 21.7501 35.2395C21.9442 34.9873 22.1834 34.7734 22.4556 34.6085C22.5365 34.6409 22.7598 34.7768 23.0382 34.6473C23.3198 34.518 23.6368 34.0162 24.0543 33.9516C24.2793 33.9206 24.508 33.9687 24.7016 34.0875C24.7016 34.0875 25.9176 32.8802 26.7566 32.479C26.7242 32.3819 26.6595 32.0162 27.6432 31.2071C27.6983 31.2557 27.6594 31.3916 27.6983 31.3991C27.7143 31.3991 27.9543 31.2956 28.2581 31.0624C28.6335 30.781 29.0832 30.4864 29.355 30.4056C29.867 30.2535 30.4102 30.5641 30.4102 30.5641C30.4563 30.5317 30.5078 30.5076 30.5623 30.4928C30.6915 30.4702 30.7854 30.454 30.8567 30.4288C30.8503 30.5972 30.9441 30.8852 30.8567 31.1343C30.958 31.1913 31.0653 31.2369 31.1767 31.2702C31.1218 31.3899 31.0019 31.6941 30.8014 31.8398C30.9695 31.9207 30.9921 32.0145 31.2317 32.0958C31.1346 32.2317 30.9757 32.4649 30.9049 32.6078C30.8336 32.7599 30.5778 33.391 30.4646 33.6303C30.3449 33.8699 30.1832 34.31 30.1053 34.3983C30.0274 34.4866 29.7461 34.861 29.5293 35.0454C29.7213 34.9741 30.5068 34.7348 30.84 34.6441C30.7408 34.7896 30.238 35.5356 29.7546 36.253C25.0723 39.0595 19.4087 39.7152 14.209 38.0527L14.2105 38.0495Z" fill="#E0CD81"/>
<path fill-rule="evenodd" clip-rule="evenodd" d="M10.3679 16.9126C10.3679 16.9126 10.0865 16.9126 10.0314 16.9515C9.97639 16.9903 10.313 17.0713 10.4165 17.1102C10.52 17.149 10.7433 17.3269 10.8016 17.4694C10.8566 17.6053 12.8242 18.3981 12.8242 18.3981L14.2157 18.3268L14.6955 17.664L13.7829 16.8646L14.4229 14.9779L13.5751 15.1138L11.5363 16.3298L10.5136 16.7215L10.3679 16.9126Z" fill="#DFC57C"/>
<path fill-rule="evenodd" clip-rule="evenodd" d="M13.4237 17.5373C13.4646 17.6035 13.5378 17.643 13.6157 17.6407C13.9037 17.6407 14.1689 17.712 14.279 17.8575C14.4635 18.0906 14.9748 18.835 14.9748 18.835L16.1981 19.2751L16.277 17.8346L14.9405 16.906L13.4194 17.4658V17.537H13.4228L13.4237 17.5373Z" fill="#E5CC7C"/>
<path fill-rule="evenodd" clip-rule="evenodd" d="M13.1842 18.0712C13.1842 18.0712 13.4073 18.0874 13.6889 17.9837C13.9705 17.8801 14.4332 17.6569 14.634 17.7444C14.9154 17.8641 14.8571 18.2395 15.1616 18.5764C15.3459 18.7835 15.6825 18.7771 15.8735 19.0005C16.0644 19.2238 16.7212 19.1202 16.7212 19.1202L16.9704 20.4642L15.9705 21.7459L15.6435 23.338H14.2914L13.0562 22.848L12.4478 21.376L12.752 19.8873L13.1842 18.0712Z" fill="#D2C281"/>
<path fill-rule="evenodd" clip-rule="evenodd" d="M15.7996 18.1359C15.8331 18.1462 15.868 18.1517 15.903 18.1521C15.8642 18.1845 15.7831 18.2556 15.8156 18.4401C15.848 18.6247 15.9515 18.8576 15.8642 18.9999C15.9339 19.0761 15.9858 19.1667 16.0163 19.2653C16.0714 19.424 16.0876 19.5695 16.4466 19.5923C16.3948 19.6242 16.347 19.6623 16.3043 19.7056C16.3043 19.7056 16.5535 19.9224 16.6798 20.1229C16.8091 20.1173 17.1521 20.0107 17.1521 20.0107L17.2234 20.0593L17.3755 19.9953C17.3755 19.9953 17.2332 19.9403 17.3366 19.594C17.4337 19.2898 17.5212 19.306 17.5286 19.2834C17.5361 19.2608 17.5999 18.9404 17.5999 18.8109C17.6483 18.6428 17.6871 18.1314 17.6871 18.1314L17.5837 17.002L17.0013 16.6492L16.5277 16.192L16.081 17.0334L15.7868 17.3267L15.7642 18.0548L15.7996 18.1359Z" fill="#E2C270"/>
<path fill-rule="evenodd" clip-rule="evenodd" d="M17.2007 17.191C17.2007 17.191 17.3042 17.4854 17.3432 17.712C17.3569 17.6679 17.3646 17.6222 17.3658 17.5761C17.3658 17.5761 17.4467 18.0228 17.4627 18.2073C17.4951 18.2007 17.5267 18.1911 17.5339 18.2233C17.5412 18.2556 17.615 18.615 17.5979 18.8156C17.7327 18.5932 17.9192 18.4067 18.1415 18.272C18.271 18.1909 18.4231 18.1037 18.5818 18.097C18.831 18.0906 19.0121 18.2558 19.3099 18.2558C20.0282 18.2558 20.6789 17.7282 21.1578 17.5665C21.5104 17.4466 21.8147 17.3593 22.0282 17.165C22.1319 17.0777 22.3164 16.8836 22.4845 16.5954C22.7079 16.2114 22.9408 15.8771 23.174 15.8351C23.0685 15.8545 22.9612 15.862 22.854 15.8577C22.854 15.8577 22.9253 15.7864 23.046 15.6894C23.1668 15.5923 23.3114 15.4726 23.5183 15.4726C23.8874 15.4726 24.0717 15.5274 24.2789 15.5274C24.486 15.521 24.6057 15.4726 24.6057 15.4726C24.6057 15.4726 24.8227 15.6247 25.3112 15.6247C25.7999 15.6311 26.1268 15.6732 26.3826 15.696C26.6383 15.7188 27.4957 15.6247 27.7417 15.632C27.9021 15.6382 28.0595 15.6767 28.2046 15.7453L27.4117 13.4413L24.5632 10.9517L22.8675 12.1523L20.2588 14.7607L17.7347 15.696L17.2071 16.2882V17.191H17.2007Z" fill="#CCB360"/>
<path fill-rule="evenodd" clip-rule="evenodd" d="M22.8642 15.8705C22.8642 15.8705 22.9354 15.7994 23.0549 15.7024C23.1744 15.6053 23.3205 15.4854 23.5274 15.4854C23.8963 15.4854 24.0808 15.5404 24.288 15.5404C24.4951 15.534 24.6148 15.4854 24.6148 15.4854C24.6148 15.4854 24.832 15.6373 25.3203 15.6373C25.809 15.6437 26.1359 15.6857 26.3916 15.7083C26.6474 15.731 27.5048 15.6373 27.7508 15.6443C27.9111 15.6504 28.0685 15.6889 28.2135 15.7576L27.8543 14.7187L27.437 13.9259L26.2459 12.6216C26.2459 12.6216 24.8166 11.7802 24.8057 11.7738C24.7993 11.7674 24.3106 11.6379 24.3106 11.6379L23.0161 12.4211L21.8415 15.46L21.8188 16.1L22.5792 16.4593C22.7701 16.1393 22.9807 15.8833 23.178 15.8508C22.9999 15.8703 22.864 15.8703 22.864 15.8703L22.8642 15.8705Z" fill="#D5B457"/>
<path fill-rule="evenodd" clip-rule="evenodd" d="M22.8483 16.0875C22.735 16.0939 22.6413 16.0713 22.6153 15.9904C22.5182 15.7186 22.4406 15.6798 22.3593 15.6798C22.278 15.6798 22.1684 15.8545 22.1033 15.8705C22.0382 15.8865 21.961 15.67 21.961 15.67L21.8898 15.6376C21.8898 15.6376 21.4723 15.9094 21.1779 16.2298C20.8835 16.5502 20.4011 17.094 20.1844 17.1909C19.9676 17.2877 19.2231 17.3203 18.9684 17.3754C18.7137 17.4304 18.4312 17.615 18.3924 17.657C18.3535 17.699 18.5059 17.7442 18.5285 17.7863C18.5511 17.8251 18.2791 17.8089 18.2565 17.8503C18.2405 17.8827 18.3205 18.067 18.3602 18.1609C18.4296 18.1264 18.5058 18.1076 18.5833 18.1058C18.8325 18.0994 19.0138 18.2646 19.3114 18.2646C20.0299 18.2646 20.6804 17.737 21.1593 17.5751C21.5122 17.4554 21.8164 17.3679 22.0299 17.1738C22.1334 17.0865 22.3179 16.8922 22.4862 16.6042C22.6091 16.4069 22.729 16.2223 22.8489 16.0864L22.8483 16.0875Z" fill="#D2B257"/>
<path fill-rule="evenodd" clip-rule="evenodd" d="M12.5439 32.1037C12.5439 32.1037 12.4799 31.8641 11.8868 31.2461C11.7185 31.0714 11.615 30.9261 11.5017 30.8222C11.2201 30.5566 11.055 30.4856 10.8545 30.3335C10.4144 30.0066 9.93546 30.0066 9.5666 29.6054C9.19775 29.2041 8.76788 28.4374 8.46922 27.6538C8.17482 26.8706 8.09375 26.6215 8.09375 26.5989C8.09375 26.5762 8.17482 26.4241 8.27828 26.4467C8.38175 26.4694 8.38175 26.6699 8.40778 26.7185C8.45933 26.7979 8.51779 26.8726 8.5825 26.9417C8.7346 27.1166 8.95135 27.3257 9.06143 27.6376C9.03882 27.3722 8.94815 27.0778 8.94815 27.0778C8.94815 27.0778 9.51775 27.437 10.0031 27.8123C10.4918 28.1878 10.6924 28.3173 10.8351 28.5566C10.9778 28.796 11.314 29.4272 11.4751 29.6118C11.6362 29.7963 13.8431 30.492 13.8431 30.492L14.8929 31.2747L15.4141 32.4171L15.0062 33.0571L14.223 33.2254L12.9511 32.6558L12.5439 32.1035V32.1037Z" fill="#D2B159"/>
<path fill-rule="evenodd" clip-rule="evenodd" d="M9.71826 28.1684C9.71826 28.1684 9.98365 28.5923 10.6309 28.9935C11.2135 29.3464 12.1358 29.6668 12.9579 29.8578C13.4303 29.971 13.9028 30.0583 14.3267 30.0649C15.4691 30.0809 16.2554 29.7543 17.2297 29.6474C17.7573 29.5924 18.4046 29.5503 19.0776 29.3914C19.9416 29.1843 20.453 28.9511 21.1489 28.6234C21.6536 28.3905 22.1166 28.2157 22.4918 27.9924C23.0194 27.6818 23.4044 27.3355 23.8512 27.2321C23.7961 27.3842 23.7379 27.6559 23.2978 27.9375C23.5307 27.9309 23.8512 27.9149 23.8512 27.9149C23.8512 27.9149 23.5406 28.0993 22.9936 28.5135C22.6569 28.7695 22.2104 29.2028 21.7541 29.4908C21.4595 29.6754 21.1391 29.8108 20.9287 29.9213C20.4167 30.2029 20.2102 30.3452 19.8738 30.6893C19.9935 30.6829 20.0033 30.6893 20.0033 30.6893C20.0033 30.6893 19.5792 30.7444 19.2752 30.9061C19.2112 30.9061 19.1002 30.8835 18.9061 30.9385C18.754 30.9869 18.5532 31.0972 18.3463 31.1553C18.0517 31.2427 17.9548 31.2039 17.9548 31.2039L18.0033 31.301C18.0033 31.301 17.6193 31.2943 17.4913 31.3074C17.5139 31.3138 17.5075 31.3236 17.5075 31.3236C17.485 31.3273 17.4633 31.335 17.4435 31.3462C17.3819 31.3861 17.3141 31.4156 17.243 31.4334C17.2041 31.4398 17.1717 31.4398 17.1231 31.4497C17.1393 31.4885 17.2656 31.7057 17.3238 31.8337C17.2754 31.8661 16.5471 32.4163 16.5471 32.4163C16.5697 32.4518 16.5881 32.4898 16.6021 32.5295C16.6247 32.6006 16.6345 32.7043 16.6571 32.7527C16.712 32.8498 16.7444 32.866 16.7444 32.866C16.7444 32.866 16.6571 32.8822 16.5048 32.921C16.3755 32.9534 16.2168 33.0083 15.9928 33.0407C15.9241 33.0496 15.855 33.055 15.7857 33.0569C15.8181 33.1282 15.9604 33.3999 15.6982 33.7138C15.436 34.0276 15.3552 34.0732 15.2743 34.2738C15.2336 34.243 15.1903 34.2159 15.1448 34.1927C15.0576 34.1539 14.9377 34.0958 14.8956 34.018C14.8712 34.1217 14.8387 34.2234 14.7986 34.3222C14.7177 34.5389 14.598 34.7527 14.5754 34.9144C14.488 34.8173 14.3263 34.6264 14.1029 34.6652C13.8795 34.7041 13.7016 35.0083 13.6628 35.0957C13.6628 35.0407 13.624 34.9987 13.6144 35.0633C13.6078 35.1346 13.4849 35.8787 12.7988 36.4807C12.7924 36.3286 12.7924 35.9919 12.7762 35.8821C12.7122 35.9461 12.6339 36.0406 12.1678 36.2413C11.7114 36.4419 11.7838 36.6426 11.7838 36.6426C11.7838 36.6426 11.7449 36.3226 11.9909 35.9855C12.2401 35.6491 12.3922 35.4904 12.3922 35.4646C12.3882 35.4383 12.3769 35.4136 12.3598 35.3933C12.3273 35.3609 12.2627 35.3221 12.2627 35.2963C12.3015 35.2803 12.6866 35.0957 12.664 34.7137C12.6414 34.3708 12.4959 34.1927 12.3922 34.0666C12.3762 34.0504 12.5445 33.9307 12.5217 33.8919C12.5055 33.8693 12.2985 33.717 12.2725 33.6359C12.2786 33.5875 12.2895 33.5399 12.3049 33.4936C12.3275 33.4223 12.3438 33.3737 12.3374 33.3253C12.3211 33.2444 12.2337 33.0211 12.2079 32.9985C12.2305 33.0049 12.3922 32.9985 12.3922 32.9985C12.3922 32.9985 12.2629 32.7913 12.2401 32.6942C12.2172 32.5972 12.1688 32.3414 12.143 32.293C12.198 32.2994 12.3339 32.309 12.3339 32.293C12.3406 32.2443 12.2143 32.1635 12.2699 32.101C12.3088 32.1074 12.3832 32.1398 12.4543 32.2305C12.4154 32.1268 12.3508 31.9262 12.2147 31.8454C12.2787 31.8228 12.4963 31.7643 12.6872 31.8776C12.8782 31.9909 12.9432 32.1494 12.9432 32.1494C12.9432 32.1494 13.0565 32.2369 13.2314 32.3663C13.432 32.5249 13.6875 32.7503 14.0954 32.9099C14.1829 32.9586 14.406 32.9586 14.568 32.9261C14.6385 32.9093 14.7061 32.8821 14.7685 32.8453C14.791 32.832 14.8149 32.8211 14.8398 32.8129C14.805 32.743 14.765 32.6759 14.7201 32.6121C14.7751 32.6121 14.8398 32.6187 14.8398 32.6187C14.8398 32.6187 14.8786 32.5313 14.7039 32.3627C14.7427 32.3239 14.7913 32.2987 14.7913 32.2332C14.7363 32.2268 14.6392 32.146 14.6166 32.1135C14.6488 32.0909 14.6975 32.0165 14.7525 31.9939C14.7039 31.955 14.5842 31.7931 14.5291 31.7771C14.5817 31.7576 14.6326 31.7338 14.6812 31.7059C14.6812 31.7059 14.4095 31.6346 14.322 31.5764C14.2345 31.5124 14.1052 31.4017 14.0276 31.3692C13.9465 31.3368 13.8042 31.3208 13.746 31.2559C13.8008 31.2722 13.8883 31.2559 13.9531 31.2559C14.0016 31.2559 14.0244 31.2623 14.0404 31.2623C14.034 31.2397 14.034 31.1911 14.1603 31.1751C14.221 31.1659 14.28 31.1474 14.335 31.1201C14.335 31.1201 14.2151 31.1137 14.079 30.9842C13.9429 30.8547 13.8298 30.7512 13.7522 30.735C13.6713 30.7188 13.5192 30.79 13.4254 30.7834C13.2959 30.7674 13.2408 30.7026 13.2408 30.7026C13.2408 30.7026 12.8105 30.7414 11.8559 30.159C11.0305 29.654 10.6712 29.2075 10.6712 29.2075C10.594 29.1795 10.5193 29.1448 10.4481 29.1038C10.1375 28.9421 9.70696 28.6055 9.71997 28.1652L9.71826 28.1684Z" fill="#C2A44D"/>
<path fill-rule="evenodd" clip-rule="evenodd" d="M21.6242 8.74437C21.6991 8.76869 21.7656 8.81356 21.8162 8.87386C21.9683 9.04858 22.0654 9.37861 21.7192 9.73146C21.8551 9.77989 21.9112 9.79546 22.0298 9.77989C21.9101 9.92239 21.6383 10.2266 21.6221 10.492C21.6059 10.7087 21.7418 10.7736 21.7418 10.7736C21.7418 10.7736 21.5346 11.013 21.525 11.4136C21.6229 11.3033 21.7299 11.2015 21.845 11.1094C22.0846 10.9184 22.4146 10.7017 22.638 10.5658C22.635 10.6228 22.6426 10.6798 22.6606 10.7339C22.6606 10.7339 23.0779 10.3909 23.4286 10.5432C23.5871 10.6144 23.5159 10.8376 23.5159 10.8376C23.5159 10.8376 23.7328 10.7567 23.8849 10.9088C24.037 11.061 24.2521 11.4533 24.3624 11.6054C24.4108 11.6766 24.5371 11.8125 24.6664 12.0229C24.843 12.3174 24.9905 12.6284 25.1067 12.9515C25.1131 12.7832 25.1551 12.5212 25.6343 12.6861C26.1132 12.8544 26.6568 13.2073 27.1131 13.9021C27.5694 14.597 27.6825 15.3814 27.9122 15.68C28.1452 15.968 28.3848 16.447 28.401 16.6477C28.4172 16.8485 28.3297 17.4955 28.8087 19.2463C28.9446 18.7028 29.1517 17.4955 29.1517 17.4955L29.265 16.4308L29.3945 13.1363L25.9543 10.2782L23.265 8.32666L21.5142 8.49498L21.624 8.74415L21.6242 8.74437Z" fill="#CAA13E"/>
<path fill-rule="evenodd" clip-rule="evenodd" d="M28.0159 13.6471C28.0159 13.6471 27.9673 13.3271 27.1583 12.7831C26.3491 12.2459 25.7181 12.2459 25.1357 11.7896C24.689 11.4304 24.2231 10.605 23.9197 10.3332C23.6251 10.0646 23.5767 9.28786 23.5767 9.28786L24.5702 8.45586L26.0477 6.32018L27.2968 4.94482L27.8954 5.77682L28.7274 6.7541L29.1901 8.71528L29.3584 11.5859L28.0144 13.6473L28.0159 13.6471Z" fill="#B59544"/>
<path fill-rule="evenodd" clip-rule="evenodd" d="M29.0164 17.088C29.0409 16.6527 28.9871 16.2165 28.8577 15.8001C28.6443 15.1367 28.1782 13.9586 27.9617 13.5175C27.8742 13.0287 27.9391 12.9899 28.0329 12.9348C28.1268 12.8798 28.4796 12.6788 28.6729 11.9738C28.8662 11.2687 29.4659 11.2457 29.4659 11.2457L29.8347 10.9739L30.3947 12.3751L30.8833 13.6405L31.0354 14.6082L31.1487 15.4334L30.8833 17.1778L29.5728 18.3622L29.0162 17.088H29.0164Z" fill="#C89D3A"/>
<path fill-rule="evenodd" clip-rule="evenodd" d="M10.728 36.531V36.4952C10.7553 36.4781 10.7793 36.4565 10.7991 36.4312C10.8217 36.3987 10.8381 36.3599 10.8541 36.3503C10.8865 36.3341 11.0386 36.2863 11.1195 36.3017C11.2003 36.317 11.4141 36.4051 11.5274 36.3987C11.7603 36.3923 12.0321 36.2142 12.4626 36.2953C13.1099 36.415 13.262 36.8551 13.6375 37.1042C13.8935 37.2792 14.1584 37.2013 14.1973 37.2013H14.2845C14.3007 37.2013 14.4204 37.0654 14.4853 37.072C14.6147 37.0784 14.6275 37.1853 14.7084 37.1917C14.8993 37.2143 15.2684 37.0946 15.4529 37.1433C15.564 37.1781 15.651 37.265 15.6859 37.376C15.7247 37.4957 15.6923 37.6478 15.5984 37.7353C15.3979 37.9196 15.207 38.0945 15.1681 38.2473C15.2175 38.2849 15.2649 38.3251 15.3102 38.3676C13.709 37.9596 12.1684 37.3428 10.728 36.5329V36.531Z" fill="#CEB052"/>
<path fill-rule="evenodd" clip-rule="evenodd" d="M27.9614 30.0649C27.9614 30.0649 28.4662 29.3918 28.6411 29.0583C28.8158 28.7147 28.0877 24.3627 28.0877 24.3627L29.5505 19.5699L29.5115 18.01C29.5115 18.01 29.5828 16.5698 29.7511 15.9452C29.9518 16.3044 30.5765 16.7381 30.7124 16.9679C30.7764 16.5276 30.9937 15.5989 30.9615 14.6086C31.0812 14.793 31.3692 16.6475 31.3692 16.6475L31.6572 17.8965L32.0327 19.2235L32.4502 20.6249L32.6993 21.5925L32.8416 21.8255L32.9615 22.2332L33.0748 22.6735L33.4016 23.7058L33.5936 24.5536L33.7457 26.0909C33.7788 26.2086 33.8027 26.3287 33.817 26.4501C33.8234 26.6185 33.7944 26.7155 33.7944 26.7448C33.7944 26.774 33.8494 27.1136 33.8268 27.3694C33.7944 27.6254 33.7944 27.8257 33.5936 28.0094C33.3929 28.1931 33.2668 29.2909 33.2668 29.2909L32.9076 29.0515C32.9076 29.0515 32.9788 28.7245 32.8105 28.4269C32.6422 28.1293 32.3153 28.0676 32.1308 28.1163C31.9465 28.1551 31.5776 28.2131 31.4577 28.3168C31.3445 28.4203 31.0663 28.7407 30.8105 28.8864C30.4905 29.0784 29.9691 29.0935 29.6909 29.1582C29.4093 29.2222 29.0987 29.4142 28.7717 29.6371C28.5152 29.8031 28.2445 29.9459 27.9627 30.0638L27.9614 30.0649Z" fill="#CCA847"/>
<path fill-rule="evenodd" clip-rule="evenodd" d="M27.9614 37.136C27.9614 37.136 27.9828 37.1499 28.0239 37.1725C30.3231 36.0953 32.3832 34.5683 34.0826 32.6818C34.064 32.0269 34.0399 31.3555 34.0135 31.1068C33.9587 30.5792 33.9975 30.042 33.9813 29.7314C33.9651 29.4208 33.7903 28.1553 33.7095 27.8285C33.622 27.5016 33.4535 27.3397 33.4279 27.3397C33.4053 27.3463 33.2692 27.9548 33.2692 28.1077C33.2692 28.2607 33.2367 28.6289 33.2367 28.7228C33.2141 28.7161 33.2045 28.6588 33.2045 28.6353C33.1721 28.7161 33.1333 28.8587 33.1171 28.8749C33.1008 28.8911 33.1397 28.739 33.1171 28.7065C33.0944 28.6741 33.0531 28.6903 33.062 28.6095C33.0658 28.5615 33.0734 28.514 33.0846 28.4672C33.0846 28.4672 32.9876 28.6095 32.9165 28.9719C32.8453 29.3312 32.8453 29.341 32.8195 29.3732C32.7968 29.4123 32.6673 29.5415 32.6607 29.5902C32.6543 29.6774 32.7806 29.7649 32.7902 29.8133C32.7966 29.8944 32.6769 30.2696 32.6381 30.4533C32.5993 30.637 32.6155 30.9969 32.5741 31.1814C32.5417 31.3497 32.5101 31.4468 32.3994 31.5179C32.4803 31.5341 32.5579 31.5567 32.5579 31.5567C32.5579 31.5567 32.6712 32.0356 32.3832 32.4435C32.2797 32.5858 32.2539 32.6507 32.1438 32.7801C31.9269 33.0195 31.7585 33.2921 31.7423 33.4694C31.7311 33.4171 31.7236 33.3641 31.7197 33.3107C31.7197 33.3107 31.3833 33.7024 31.2408 33.9257C31.0565 34.2137 30.8007 34.1975 30.7288 34.2688C30.6569 34.34 30.6413 34.4693 30.6648 34.573C30.6008 34.589 30.4805 34.6118 30.3994 34.861C30.3606 34.9903 30.2635 35.117 30.1114 35.204C29.9593 35.2911 29.7748 35.3173 29.6809 35.3399C29.7617 35.3625 29.7942 35.3625 29.833 35.3884C29.7846 35.4692 29.5612 35.5955 29.312 35.7574C29.0629 35.9095 28.943 36.1327 28.8815 36.2784C28.8175 36.4143 28.723 36.5017 28.5709 36.518C28.6349 36.5568 28.7296 36.6472 28.7781 36.6765C28.7068 36.6927 28.5861 36.6927 28.3704 36.8772C28.1438 37.0649 28.0662 37.12 27.9625 37.1362L27.9614 37.136Z" fill="#C39D3C"/>
<path fill-rule="evenodd" clip-rule="evenodd" d="M23.4581 38.6358C23.582 38.5489 23.7162 38.4778 23.8577 38.4239C24.3624 38.2234 24.8964 38.1846 25.1067 38.1199C25.3075 38.0559 25.466 37.9676 25.7152 37.9192C25.7086 37.9759 25.703 38.0293 25.697 38.0796C24.9624 38.3106 24.2144 38.4963 23.457 38.6358H23.4581Z" fill="#D2BA6B"/>
<path fill-rule="evenodd" clip-rule="evenodd" d="M32.7679 25.3593C32.7679 25.3593 32.6645 25.9191 32.4799 26.272C32.2954 26.6248 32.0959 27.1134 32.0959 27.1134C32.0971 27.0033 32.1102 26.8936 32.1348 26.7863C31.9018 26.9222 31.3354 27.2493 31.1748 27.3948C31.0227 27.5307 30.7669 27.7702 30.7022 27.8835C30.8543 27.437 31.0128 27.0357 31.0389 26.8512C30.8059 27.0195 29.7183 27.9159 29.1521 28.5081L27.3883 29.9353C27.1848 30.0452 26.9751 30.1433 26.7605 30.2293C26.4565 30.3586 26.0972 30.4687 25.8318 30.5724C25.9031 30.3814 26.0161 30.2129 26.1749 30.0512C26.3432 29.8927 26.8479 29.3457 26.9256 29.0912C26.9968 28.8258 27.0131 28.6673 26.9192 28.4439C26.8317 28.4665 26.6312 28.4764 26.4953 28.5152C26.3594 28.554 26.2137 28.6995 26.2137 28.6995C26.2137 28.6995 26.3172 28.1073 26.5405 27.5475C26.3722 27.5539 26.0842 27.6023 26.0842 27.6023C26.0842 27.6023 26.4855 26.9293 27.1722 26.4601C26.9619 26.5049 26.7561 26.5687 26.5574 26.6509C26.1561 26.8192 25.716 27.0684 25.3892 27.2043C25.5735 26.9483 26.868 25.1008 27.6383 23.379C28.4063 21.6606 28.6933 21.2205 28.8616 20.2982C28.9488 19.8419 28.9256 19.1676 28.9488 18.5636C28.9715 17.9648 29.0459 17.4276 28.9975 17.0684C29.198 17.3175 29.9489 18.0198 29.9748 19.5895C29.9974 21.159 29.2565 23.2789 28.4699 24.4211C28.6619 24.4761 29.1594 24.541 29.6705 23.6531C30.1817 22.7652 30.1755 22.5173 30.36 22.1483C30.3827 22.3328 30.376 22.3974 30.376 22.3974C30.376 22.3974 31.1206 21.4946 31.4732 20.3586C31.5445 20.8473 31.7548 21.2779 31.4246 22.1743C31.1302 22.9832 30.7451 23.1808 30.7451 23.1808C30.7451 23.1808 30.936 23.1484 31.2174 22.98C31.2661 23.0997 31.2565 23.236 31.3373 23.2843C31.4182 23.3325 31.5283 23.4137 31.5445 23.4914C31.6317 23.3619 31.7676 23.1968 31.8099 23.0739C31.7774 23.3299 31.7548 24.4493 31.8739 25.0189C32.1232 24.9963 32.3788 24.98 32.5535 24.5301C32.4339 24.9704 32.4339 25.2356 32.5147 25.6111C32.6474 25.5206 32.7671 25.3587 32.7671 25.3587L32.7679 25.3593Z" fill="#C0993A"/>
<path fill-rule="evenodd" clip-rule="evenodd" d="M24.3591 7.521C24.3591 7.521 24.1099 7.62447 23.686 7.62447C23.3172 7.62447 23.4207 7.48218 22.8447 7.48218C21.958 7.48218 18.8609 7.99418 18.3171 7.98692C17.9642 7.98052 19.5079 8.13903 19.5079 8.13903L23.4531 8.19407L24.2458 8.13007L24.5404 7.5306L24.3591 7.521Z" fill="#A88F33"/>
<path fill-rule="evenodd" clip-rule="evenodd" d="M14.1294 15.233C14.1294 15.233 13.6245 15.6181 13.4109 15.9127C13.1974 16.2073 13.0841 16.4013 12.8413 16.6408C12.8983 16.643 12.9552 16.6354 13.0096 16.6182C13.0096 16.6182 13.0096 16.6822 12.9708 16.6991C13.0388 16.6915 13.1065 16.715 13.1551 16.7631C13.0839 16.8019 12.8897 16.9962 13.0418 17.226C13.1551 17.4007 13.3947 17.4167 13.3947 17.4167C13.3947 17.4167 13.3397 17.5754 13.5694 17.5592C14.0646 17.5366 14.6179 17.3197 14.8735 17.3747C15.1295 17.4387 15.275 17.4622 15.4561 17.7762C15.6481 18.0868 15.8154 18.1354 15.8154 18.1354C15.8154 18.1354 15.9287 17.8472 15.9029 17.4169C15.9957 17.185 16.0472 16.9386 16.055 16.6888L15.8866 15.4494L15.1521 14.5205L14.2007 15.0481L14.1294 15.2324V15.233Z" fill="#E3C571"/>
<path fill-rule="evenodd" clip-rule="evenodd" d="M15.0322 15.0486C15.0322 15.0486 15.1035 15.2169 15.4013 15.2329C15.3689 15.3041 15.3689 15.314 15.3787 15.3688C15.3851 15.4238 15.3947 15.5047 15.3947 15.5047C15.4275 15.4888 15.4571 15.4671 15.4821 15.4407C15.4984 15.5119 15.4659 15.625 15.4821 15.7061C15.4922 15.7554 15.5084 15.8032 15.5306 15.8484C15.5353 15.8373 15.5407 15.8265 15.5468 15.8161C15.5532 15.7999 15.6108 15.9909 15.7701 16.1361C15.77 16.1138 15.7755 16.0918 15.7861 16.0721C15.7886 16.1127 15.802 16.1519 15.825 16.1854C15.813 16.1797 15.8022 16.1721 15.7928 16.1628C15.7928 16.1628 15.8088 16.6748 15.8962 16.9396C15.9108 16.9224 15.9238 16.904 15.9351 16.8845C15.9351 16.8685 15.9287 17.027 15.9124 17.1405C15.8898 17.2538 15.906 17.4123 15.906 17.4123C15.9644 17.3664 16.0285 17.3283 16.0968 17.299C16.1938 17.26 16.3528 17.1403 16.4496 16.8749C16.5058 16.7246 16.5491 16.5698 16.5791 16.4122C16.6104 16.4724 16.632 16.5372 16.6431 16.6042C16.6497 16.685 16.8018 16.643 16.8018 16.643L16.8343 16.2902L17.0263 15.4908L17.201 14.9957L18.0424 13.6852L19.5626 12.5144L20.8895 12.8186L22.0091 11.2975L20.0803 10.1389L18.2551 10.3298L16.5985 12.6242L15.2718 14.7053L15.0322 15.0484L15.0322 15.0486Z" fill="#D8B65B"/>
<path fill-rule="evenodd" clip-rule="evenodd" d="M24.592 11.7282C24.592 11.7282 24.4787 11.7508 24.1519 11.9202C23.8251 12.0896 23.5985 12.1433 23.4722 12.3925C23.3459 12.6417 23.3363 12.8392 23.3363 12.8392C23.3363 12.8392 23.5597 12.7422 23.6892 12.7097C23.8251 12.6775 23.9772 12.6871 23.961 12.7422C23.9454 12.7799 23.9238 12.8148 23.897 12.8456C23.897 12.8456 24.153 12.8392 24.1462 12.9655C24.1393 13.0918 24.0977 13.2309 24.0493 13.2923C24.0007 13.3563 23.8001 13.4511 23.7775 13.5255C23.7225 13.6776 23.8001 13.684 23.7709 13.8069C23.7483 13.9268 23.6416 14.1598 23.292 14.5674C22.9327 14.9753 22.78 15.2633 22.78 15.2633C22.78 15.2633 22.6052 14.9365 22.5146 14.6549C22.4506 14.6871 22.1069 14.8781 22.1069 14.8781L21.3107 12.1047L21.3267 11.9202C21.3267 11.9202 21.398 11.8329 21.4142 11.671C21.2945 11.6322 21.2783 11.5998 21.1196 11.4479C20.9609 11.296 20.8316 11.1112 20.5664 10.9849C20.5276 10.9137 20.479 10.8168 20.2848 10.7778C20.0907 10.7387 19.9742 10.7067 19.9742 10.7067C19.9742 10.7067 20.0777 10.6677 20.1263 10.5869C20.0064 10.6031 19.9096 10.6419 19.6474 10.6355C19.382 10.6289 19.3528 10.6193 19.2073 10.6419C19.0618 10.6645 18.8873 10.7294 18.8222 10.506C18.751 10.451 18.5988 10.4996 18.4694 10.6903C18.3399 10.881 18.2946 11.0334 18.0455 11.1078C18.0279 11.2177 17.9895 11.3231 17.9322 11.4184C17.8609 11.5383 17.7476 11.658 17.5955 11.8359C17.356 12.1175 17.3948 12.5802 17.0129 12.9331C16.6279 13.2857 17.0769 11.9556 17.0769 11.9556L17.6918 10.4836L19.4426 8.7716L22.1611 8.58728L22.4265 9.99528L23.7534 10.4516L24.5916 11.7299L24.592 11.7282Z" fill="#D3AE4D"/>
<path fill-rule="evenodd" clip-rule="evenodd" d="M25.0229 12.0388L23.8805 10.3917L23.0812 9.77662C23.0812 9.77662 22.5116 8.7283 22.4727 8.69587C22.4403 8.67326 21.9031 8.61502 21.5601 8.59241L21.6241 8.75091C21.699 8.77523 21.7655 8.8201 21.8161 8.88041C21.9682 9.05513 22.0653 9.38515 21.719 9.73801C21.8549 9.78643 21.911 9.80201 22.0296 9.78643C21.91 9.92894 21.6382 10.2332 21.622 10.4985C21.6058 10.7153 21.7416 10.7799 21.7416 10.7799C21.7416 10.7799 21.5345 11.0195 21.5249 11.4199C21.6227 11.3096 21.7298 11.2078 21.8449 11.1157C22.0845 10.9237 22.4145 10.7078 22.6379 10.5719C22.6348 10.629 22.6425 10.686 22.6605 10.7402C22.6605 10.7402 23.0778 10.3972 23.4285 10.5493C23.587 10.6206 23.5157 10.8439 23.5157 10.8439C23.5157 10.8439 23.7327 10.7631 23.8848 10.9152C24.0369 11.0673 24.2536 11.4588 24.3637 11.6111C24.4122 11.6823 24.5384 11.8182 24.6677 12.0284C24.8444 12.3229 24.9919 12.634 25.108 12.9572C25.1144 12.8277 25.1405 12.6466 25.364 12.6466L25.0242 12.0382L25.0229 12.0388Z" fill="#CAA13E"/>
<path fill-rule="evenodd" clip-rule="evenodd" d="M7.89677 16.7186C7.89677 16.7186 7.81592 16.5178 7.89677 16.1263C7.97763 15.7349 8.10392 15.5503 8.14595 14.9743C8.18797 14.3983 8.56344 13.6798 8.56344 13.6798L9.60216 13.2075L10.3369 13.4081L10.5536 14.3919L9.62477 14.9039C9.62477 14.9039 9.57635 15.1207 9.31416 15.2954C9.05197 15.4701 8.68952 15.606 8.60227 15.7842C8.55011 15.8932 8.51204 16.0085 8.48899 16.1272C8.48899 16.1272 8.2236 16.0722 8.06509 16.2469C7.89677 16.425 7.90317 16.5835 7.89677 16.7194V16.7186Z" fill="#F4EFC8"/>
<path fill-rule="evenodd" clip-rule="evenodd" d="M9.99369 16.4563C9.99369 16.4563 9.90622 16.5113 9.84158 16.6483C9.77758 16.5448 9.62462 15.9298 9.61822 15.3764C9.61182 14.823 9.57876 14.6858 9.70676 14.4951C9.83476 14.3044 10.3367 14.1034 10.2655 13.76C10.1942 13.4331 9.89641 13.2972 9.53076 13.3911C9.27476 13.4551 9.08425 13.9995 8.81886 14.2713C8.61812 14.4785 8.37876 14.446 8.31412 14.5593C8.22665 14.7114 8.3075 14.8635 8.28169 14.9606C8.27508 14.993 8.19422 15.1677 8.04852 15.3781C7.75412 15.802 7.25577 16.4008 7.19092 16.938C7.21353 16.6338 7.19753 16.6274 7.27838 16.2907L7.22974 16.2099L7.54974 15.1613L7.75689 14.2973L8.21982 12.8505L9.03518 11.3717L9.82814 10.4849L10.6533 10.5399L10.7504 11.7794L11.2229 14.1064L12.2164 15.3297L10.6241 16.4012L9.99305 16.4563H9.99369Z" fill="#EBCC73"/>
<path fill-rule="evenodd" clip-rule="evenodd" d="M10.4886 16.8959C10.4886 16.8959 10.3527 16.9284 10.304 16.9026C10.2554 16.8767 10.2072 16.8475 10.2232 16.8151C10.2392 16.7827 10.3266 16.7278 10.3266 16.7018C10.3304 16.6529 10.2946 16.6099 10.2458 16.6047C10.1713 16.5951 10.1487 16.6436 10.1487 16.6436C10.1487 16.6436 10.0775 16.5887 10.0194 16.5796C10.0538 16.5754 10.0883 16.5732 10.1229 16.573C10.0335 16.5324 9.93861 16.5052 9.84131 16.4921C9.92216 16.4437 10.0809 16.3012 10.1843 16.3012C10.2878 16.3012 10.3527 16.2852 10.3365 16.2301C10.3202 16.1751 10.2394 16.0942 10.1521 16.0618C10.1843 16.023 10.2072 15.9647 10.1295 15.8058C10.0485 15.6473 10.0809 15.5404 10.1069 15.5018C10.1295 15.4532 10.2104 15.3659 10.2492 15.3109C10.288 15.2558 10.3205 15.1814 10.3851 15.1426C10.4175 15.1199 10.521 15.0786 10.6247 15.0391C10.7379 15.0003 10.8318 14.9516 10.8965 15.0003C10.9677 15.0487 10.9353 15.1135 10.9353 15.1135C10.9353 15.1135 11.1586 15.0325 11.3592 15.1362C11.5599 15.233 12.0487 15.2947 12.0487 15.2947L12.2238 15.6475L11.0652 16.641L10.5863 16.8806L10.4892 16.8966L10.4886 16.8959Z" fill="#E5C66B"/>
<path fill-rule="evenodd" clip-rule="evenodd" d="M12.0973 15.2719C12.0973 15.2719 11.738 15.5114 11.6571 15.5987C11.7056 15.6053 11.7864 15.6377 11.754 15.6861C11.7152 15.7346 11.4822 15.9029 11.3527 16.0616C11.2168 16.2201 11.0873 16.4209 11.0421 16.5179C10.9937 16.6052 10.6246 16.861 10.4985 16.8932C10.7639 16.8932 11.2979 16.5664 11.4984 16.5664C11.492 16.6634 11.5535 16.7735 11.6667 16.7831C11.78 16.7927 12.1069 16.8544 12.547 16.5826C12.9871 16.3172 12.8416 16.1196 13.0259 15.9904C13.3787 15.7572 13.521 15.55 13.7152 15.4208C13.9093 15.2915 14.0098 15.262 14.0098 15.262C14.0098 15.262 14.0162 15.165 14.0738 15.1748C14.1059 15.1785 14.1334 15.1997 14.145 15.2298C14.145 15.2298 14.4817 14.9903 14.913 14.9256C14.903 14.9211 14.8949 14.9131 14.8904 14.903C14.8904 14.903 14.9226 14.8868 14.9293 14.8706C14.9293 14.8706 14.9519 14.8381 14.9681 14.8544C14.9843 14.8706 15.0069 14.9903 15.0393 15.0389C15.1106 15.0065 15.2465 14.7023 15.2465 14.7023L15.5735 13.767V12.9126L15.3175 12.9612L13.3975 13.7766L12.2323 14.9839L12.0964 15.2719H12.0973Z" fill="#E6BD62"/>
<path fill-rule="evenodd" clip-rule="evenodd" d="M17.6248 11.081C17.7287 11.0558 17.8282 11.0154 17.9203 10.9611C17.8815 11.0648 17.8815 11.1781 17.7131 11.4241C17.5448 11.67 17.5384 11.7057 17.4025 11.9612C17.2666 12.2266 17.2504 12.6085 17.1209 12.7766C17.179 12.7484 17.2412 12.7299 17.3053 12.7218C17.3053 12.7218 17.176 12.835 17.1209 12.9547C17.0659 13.0744 16.9688 13.3236 16.7295 13.4759C16.4901 13.6282 16.1857 13.7251 15.8589 14.0843C15.5318 14.437 15.1954 14.8837 15.0269 15.0443C15.1143 14.8922 15.234 14.588 15.2664 14.3875C15.2989 14.1869 15.2598 13.9472 15.3149 13.682C15.3699 13.4168 15.3699 13.2257 15.6349 12.7627C15.8998 12.2998 16.3534 10.6915 16.3534 10.6915L17.3306 10.3809L17.6253 11.08L17.6248 11.081Z" fill="#B6933F"/>
<path fill-rule="evenodd" clip-rule="evenodd" d="M16.9193 10.4888C16.9193 10.4888 16.6249 10.9127 16.544 11.2882C16.4632 11.6636 16.5374 11.6312 16.489 11.8157C16.46 11.9282 16.46 12.0463 16.489 12.1588C16.591 11.9945 16.7306 11.8569 16.8963 11.7573C17.1747 11.5892 17.4012 11.4693 17.5363 11.327C17.6722 11.1749 17.7854 10.9257 18.0798 10.7348C17.9602 10.7186 17.7918 10.6635 17.7598 10.6708C17.8797 10.5349 18.2388 10.3277 18.6012 10.0786C18.9605 9.82256 18.9379 9.7193 19.5205 9.46373C19.3295 9.49616 19.2389 9.44752 19.0802 9.46373C19.1442 9.32784 19.3682 9.26298 19.5922 9.03984C19.8162 8.81669 19.4499 8.48645 19.4499 8.48645L17.7432 9.51877L16.918 10.4897L16.9193 10.4888Z" fill="#C49937"/>
<path fill-rule="evenodd" clip-rule="evenodd" d="M12.2881 9.71846L12.3269 9.40784L12.8157 8.6247L13.327 7.24934V5.36902L13.2882 4.28166L13.369 3.56955L13.4305 3.3432L13.4953 3.25574L13.9126 3.47248L14.4888 4.25563L14.5439 5.7671L13.9839 8.15216L12.3852 9.89659L12.2881 9.71846Z" fill="#DFC068"/>
<path fill-rule="evenodd" clip-rule="evenodd" d="M13.5597 3.16818C13.5597 3.16818 13.3037 3.17479 13.2491 4.23954C13.1945 5.30428 13.168 5.86407 13.1292 6.39164C13.0904 6.91922 12.9999 7.23943 12.9545 7.55026C12.909 7.86108 12.8832 8.28476 12.7377 8.54375C12.6737 8.66343 12.537 9.0389 12.2166 9.3205C11.8573 9.63111 11.3206 9.84807 11.2393 9.86428C11.0968 9.8965 10.3751 9.96775 10.0807 10.1297C9.97719 10.1847 9.79906 10.2494 9.60173 10.4339C9.21005 10.7865 8.68909 11.4176 8.31362 12.1781C7.73762 13.3141 7.16162 16.5211 7.16162 16.5211L7.29111 16.3044C7.29111 16.3044 7.30733 16.0164 7.59533 15.5114C7.87693 15.0067 7.79607 14.4403 8.18754 13.4726C8.33965 13.1038 8.53058 12.6248 8.76354 12.2169C9.13261 11.5535 9.57911 10.9839 10.029 10.6732C10.7635 10.1685 11.5727 10.0584 11.5727 10.0584L12.4433 9.48242C12.4433 9.48242 12.5954 9.18802 12.7962 8.85138C13.0776 8.37906 13.4362 7.85148 13.5145 7.08455C13.6344 5.94855 13.3462 5.20423 13.3624 4.53116C13.3786 3.8581 13.385 3.36295 13.5211 3.24306C13.6572 3.12316 13.5599 3.1686 13.5599 3.1686L13.5597 3.16818Z" fill="#A88F33"/>
<path fill-rule="evenodd" clip-rule="evenodd" d="M13.56 8.24913C13.56 8.24913 13.944 7.30407 14.1198 6.46588C14.1522 6.29756 14.2168 6.12945 14.2331 5.99356C14.3139 5.2006 14.3365 4.87377 14.2331 4.44007C14.1522 4.12007 13.8416 3.83164 13.6797 3.60807C13.5212 3.37489 13.4467 3.28807 13.4791 3.239C13.5116 3.18993 13.6376 3.10972 13.7605 3.11932C14.0245 3.127 14.2737 3.24268 14.45 3.43932C14.6992 3.72732 14.8965 4.70481 14.8965 4.70481L15.1041 5.99463L15.6317 7.61916L13.5604 8.25041L13.56 8.24913Z" fill="#C99E3D"/>
<path fill-rule="evenodd" clip-rule="evenodd" d="M17.1682 7.26547C17.1682 7.26547 17.0969 7.29769 16.9676 7.26547C16.9789 7.37319 16.9289 7.47813 16.8381 7.53726C16.7022 7.48222 15.4301 7.5923 15.4301 7.5923C15.4301 7.5923 14.8379 7.48862 14.6534 6.70547C14.5241 6.1843 14.7505 5.46601 14.676 4.99347C14.5627 4.29758 14.4042 4.16147 14.388 3.94494C14.3718 3.72841 14.3556 3.67315 14.3556 3.53726C14.2843 3.52105 14.2423 3.49843 14.1713 3.49843C14.155 3.43443 14.1873 3.37854 14.1162 3.26526C14.155 3.28147 14.4204 3.3139 14.731 3.6083C14.987 3.84787 14.987 3.93513 15.0257 3.98377C15.0741 4.03219 15.4658 4.36777 15.6341 4.70227C15.8024 5.03678 16.1292 6.10345 16.2037 6.27817C16.2263 6.34942 16.2749 6.42067 16.3957 6.58238C16.5834 6.81555 16.8584 7.20105 17.169 7.26505L17.1682 7.26547Z" fill="#B58634"/>
<path fill-rule="evenodd" clip-rule="evenodd" d="M15.0713 4C15.2673 4.3167 15.4435 4.6453 15.5986 4.98389C15.7896 5.41419 15.9029 5.76704 16.1424 6.05504C16.0129 5.67979 15.7832 4.94187 15.6473 4.67968C15.4952 4.40235 15.1846 4.10368 15.0713 4.00021V4Z" fill="#A88F33"/>
<path fill-rule="evenodd" clip-rule="evenodd" d="M12.8709 9.32053C12.8709 9.32053 12.5441 9.40138 11.9356 9.72181C11.7349 9.82527 11.5442 9.91253 11.3596 9.99359C10.8803 10.2103 10.3661 10.4107 9.95825 10.5212C9.99067 10.56 10.0067 10.576 10.0067 10.576C10.0067 10.576 10.0067 10.7347 10.0941 10.8252C10.0457 10.8738 9.39825 11.3139 9.58939 12.7863C9.71867 12.7379 9.87078 12.6731 9.89339 12.6731C9.93243 12.6797 9.94203 12.7863 9.99046 12.7863C10.0389 12.7863 10.1976 12.7223 10.3659 12.5047C10.3595 12.5922 10.2625 13.4724 10.7834 14.0646C10.8805 13.9514 11.1265 13.5759 11.1265 13.5759L11.1329 13.4562C11.1329 13.4562 11.1555 13.0387 11.2916 12.6568C11.4277 12.275 11.6929 11.9934 11.6929 11.9934L13.0776 10.016L12.8705 9.32031L12.8709 9.32053Z" fill="#E6C367"/>
<path fill-rule="evenodd" clip-rule="evenodd" d="M11.5761 12.224C11.5127 12.2688 11.4428 12.3037 11.3689 12.3275C11.3463 12.2466 11.3139 11.9682 11.5048 11.6964C11.7282 11.3694 12.2167 10.9455 12.3526 10.6084C12.4401 10.3915 12.4012 9.84788 13.178 9.15199C13.9547 8.45609 14.2587 8.21673 14.2587 8.21673L15.5144 7.58569L17.0581 8.19412L16.2912 11.2L15.6958 12.608L13.3278 12.1615L11.5759 12.224H11.5761Z" fill="#DCBA5A"/>
<path fill-rule="evenodd" clip-rule="evenodd" d="M12.48 11.4078L12.7746 11.0389V10.7767C12.7746 10.7767 13.1014 10.6893 13.4541 10.33C13.8067 9.97075 14.2954 9.28147 14.726 9.32349C15.1565 9.37213 15.1985 10.2587 15.2147 10.5081C15.2309 10.7575 15.286 11.3235 15.3732 11.6279C15.4703 11.9321 14.3247 13.0841 14.3247 13.0841L13.5466 13.6763L12.48 11.4078Z" fill="#E9CE77"/>
<path fill-rule="evenodd" clip-rule="evenodd" d="M13.3916 14.4789C13.3916 14.4789 13.6312 14.1034 13.4556 14.0226C13.5591 13.7896 13.75 13.5436 13.75 13.5436C13.75 13.5436 13.8859 13.2072 14.326 12.7929C14.7661 12.3786 15.0381 12.1034 15.1094 11.8252C15.1533 11.6439 15.1772 11.4584 15.1806 11.2719C15.2282 11.3107 15.2791 11.3453 15.3327 11.3753C15.404 11.4077 15.7404 11.6859 15.692 12.2459C15.6435 12.8059 15.436 13.0389 15.436 13.0389C15.436 13.0389 15.2354 13.2394 15.0931 13.3431C14.9408 13.4466 14.886 13.5663 14.6302 13.5761C14.6565 13.5552 14.6861 13.5387 14.7177 13.5274C14.7177 13.5274 14.4523 13.4952 14.3098 13.6245C14.1673 13.7538 13.8643 14.1521 13.7122 14.272C13.5601 14.369 13.3922 14.4791 13.3922 14.4791L13.3916 14.4789Z" fill="#CDAE50"/>
<path fill-rule="evenodd" clip-rule="evenodd" d="M24.152 8.18428C23.7697 8.04493 23.3679 7.96632 22.9612 7.95132C22.2815 7.9287 21.288 7.96753 20.3139 7.97393C19.2654 7.98033 18.3139 7.61468 16.9936 7.55004C16.7769 7.42054 16.2256 6.85414 14.5049 8.05478C14.6083 8.04838 15.7542 7.7894 16.152 8.28796C16.5533 8.7831 16.44 9.62449 16.3852 9.82502C16.2815 10.2717 15.9449 10.9222 15.8092 11.3785C15.6735 11.8348 15.7055 12.0746 15.6085 12.3946C15.5114 12.7146 15.2978 12.8736 15.4239 13.2424C15.5922 13.1389 15.6799 13.1389 15.9611 12.5079C16.2423 11.8769 16.1845 11.4269 16.6506 10.893C17.1069 10.3558 17.8666 9.62108 18.1554 9.43654C18.4443 9.25201 20.7378 8.06118 23.1393 9.19718C23.7185 9.13574 24.1522 8.18406 24.1522 8.18406L24.152 8.18428Z" fill="#D2A83E"/>
<path fill-rule="evenodd" clip-rule="evenodd" d="M15.4726 7.74404C15.4702 7.71972 15.4648 7.69578 15.4566 7.67278C15.4341 7.62546 15.4046 7.5818 15.3691 7.54329C15.3691 7.54329 14.7995 7.43982 14.5115 7.47204C14.0066 7.52708 13.5502 8.15172 13.3367 8.47214C13.1231 8.79257 12.8578 9.2875 12.5698 9.54329C12.5729 9.51837 12.5672 9.49314 12.5535 9.47204C12.5535 9.47204 12.5698 9.49465 12.5375 9.52708C12.5053 9.5595 12.5051 9.5755 12.5213 9.59108L12.57 9.6395C12.586 9.6395 13.0327 9.43876 13.6411 8.8715C14.2884 8.27929 14.7835 7.9755 15.0425 7.8714C15.1806 7.8127 15.325 7.76997 15.4728 7.74404H15.4726Z" fill="#C29637"/>
<path fill-rule="evenodd" clip-rule="evenodd" d="M26.5214 5.31067C26.5214 5.31067 26.4177 5.43995 26.2882 5.58246C26.0002 5.88667 25.6248 6.2295 25.3043 6.58235C25.0003 6.91899 24.6573 7.18118 24.272 7.62128C23.8867 8.06139 23.44 8.54992 23.3269 8.69243C23.2235 8.83494 23.1426 9.0679 23.1426 9.18758C23.0876 9.14875 23.0229 9.10672 23.0229 9.10672C23.0502 9.15753 23.0827 9.2053 23.12 9.24923C23.2009 9.36251 23.3269 9.50523 23.3918 9.59227C23.4714 9.70307 23.5285 9.82838 23.5599 9.96112C23.5987 9.96752 23.8479 10.0162 24.1587 9.5048C24.4696 8.99344 24.877 8.43366 24.877 8.43366L25.5243 7.47238L25.9322 6.65702L26.4442 5.74438L26.522 5.31067H26.5214Z" fill="#AC8132"/>
<path fill-rule="evenodd" clip-rule="evenodd" d="M27.1847 4.6571C27.1847 4.6571 26.793 4.9771 26.6409 5.1691C26.4888 5.3611 26.1289 5.865 26.1289 5.865L26.2584 5.84878L26.9155 5.26638L27.1715 4.81006L27.1845 4.65796L27.1847 4.6571Z" fill="#A88F33"/>
<path fill-rule="evenodd" clip-rule="evenodd" d="M27.0647 30.3755C27.0647 30.3755 27.0583 30.1101 27.2072 29.9516C27.3593 29.7929 27.7444 29.5599 28.1198 28.6861C28.4953 27.8123 28.5371 27.6149 28.5371 27.6149C28.5371 27.6149 27.8641 28.1909 27.4491 28.3268C27.5462 28.1261 27.6012 27.9838 27.6499 27.8801C27.5948 27.8317 27.3619 27.7767 27.3393 27.7508C27.4685 27.6213 27.5398 27.3041 27.802 27.0938C28.1386 26.8378 28.7534 26.3979 29.2313 26.0058C29.7092 25.6137 30.6487 24.7017 30.7686 24.4363C30.8398 24.5397 30.8558 24.6044 30.8558 24.6044C30.8558 24.6044 30.3835 25.2194 30.1375 25.6109C29.9206 25.9475 29.9368 26.1385 29.9368 26.1385L30.3835 25.9465C30.3835 25.9465 30.5128 26.4254 29.9272 27.1537C30.1832 27.0567 30.2865 27.1149 30.4319 27.0338C30.1924 27.1861 29.8623 27.3933 29.5517 27.9627C29.2475 28.5323 28.8332 29.1957 28.1343 29.6098C27.4547 30.0467 27.063 30.3736 27.063 30.3736L27.0647 30.3755Z" fill="#A67A2E"/>
<path fill-rule="evenodd" clip-rule="evenodd" d="M25.3106 8.52122C25.3106 8.52122 25.0452 9.07439 25.0064 9.5049C25 9.60858 24.974 9.68943 24.974 9.80911C24.9676 10.1942 24.9966 10.6247 24.91 10.8252C24.8776 10.7444 24.8614 10.6893 24.8289 10.6571C24.7805 10.793 24.693 11.2169 24.6218 11.3754C24.5896 11.2719 24.5183 10.9127 24.5249 10.4888C24.5315 10.0649 24.5409 9.98383 24.5409 9.89658C24.5249 10.0259 24.4375 10.2008 24.405 10.3043C24.3566 10.217 24.3016 10.1037 24.2367 10.0099C24.1979 10.0739 24.1495 10.1684 24.1074 10.217C24.1008 10.1782 24.0848 10.0745 24.075 9.92901C24.0686 9.76069 24.0588 9.54394 24.0686 9.4985C24.0846 9.41125 24.2207 9.06821 24.5087 8.75418C24.8518 8.37871 25.2046 7.65722 25.3081 7.43386C25.4115 7.2105 25.8516 6.28186 25.8516 6.28186H26.1883L25.6995 7.39503C25.6995 7.39503 25.4051 8.00346 25.253 8.22703C25.1009 8.45061 24.7805 9.09125 24.638 9.34042C24.7415 9.20453 24.8289 9.13327 24.9326 9.00378C25.0329 8.91311 25.3111 8.52165 25.3111 8.52165L25.3106 8.52122Z" fill="#8C6228"/>
<path fill-rule="evenodd" clip-rule="evenodd" d="M27.1912 4.61487C27.1362 4.78411 27.0493 4.94125 26.9352 5.0778C26.7344 5.31737 26.3039 5.63759 26.0938 5.89316C25.9018 6.14233 25.5178 6.82202 25.6923 7.62777C25.7563 7.45305 25.8768 7.10681 26.1972 6.71513C26.5177 6.32345 26.8607 5.87375 27.0292 5.52431C27.1973 5.17145 27.22 4.89327 27.22 4.89327L27.284 4.81241L27.2451 4.62788L27.1901 4.61487L27.1912 4.61487Z" fill="#CBA94C"/>
<path fill-rule="evenodd" clip-rule="evenodd" d="M33.7445 26.0808C33.7445 26.0808 33.615 25.7282 33.5762 25.4077C33.5373 25.0873 33.6402 25.0237 33.5211 24.657C33.4499 24.4337 33.3206 24.465 33.2882 24.4337C33.2557 24.4023 33.2331 24.0648 33.2395 23.8803C33.2459 23.6957 33.2331 23.4564 33.2007 23.3527C33.1523 23.3139 33.1199 23.2814 33.0486 23.0421C32.9677 22.8025 32.9289 22.6828 32.8901 22.6118C32.8513 22.5407 32.7378 22.4759 32.7378 22.4046C32.7378 22.2621 32.8673 22.1879 32.8673 22.1486C32.8609 22.0678 32.7638 22.1326 32.7378 22.1098C32.7056 22.071 32.8188 21.838 32.7768 21.8056C32.7606 21.7896 32.6473 21.9255 32.6181 21.8867C32.5857 21.8476 32.5468 21.4626 32.4886 21.207C32.4338 20.9578 32.3753 20.7767 32.3689 20.7022C32.3625 20.631 31.9222 19.3753 31.8155 19.0711C31.7296 18.814 31.6572 18.5526 31.5988 18.2879C31.5664 18.1358 31.5437 17.825 31.5275 17.8574C31.5113 17.8899 31.5211 18.0484 31.4951 18.042C31.4725 18.0354 31.3916 17.4822 31.3658 17.3947C31.3432 17.3073 31.2071 17.0107 31.1738 16.7961C31.1414 16.5791 31.0704 16.0127 31.0217 15.6277C30.9731 15.2426 30.9505 15.0841 30.9505 14.9877C30.9584 14.7518 30.9454 14.5157 30.9116 14.2822C30.8476 13.8743 30.7196 13.3791 30.6074 13.0914C30.3907 12.5476 29.8145 11.156 29.7114 10.8098C29.7114 10.7223 29.8247 10.7709 29.8247 10.7709C29.8247 10.7709 30.1061 11.4764 30.3132 12.02C30.514 12.5638 30.7049 13.0427 30.7536 13.0914C30.7924 13.1398 31.0966 13.6738 31.2325 14.5476C31.3684 15.4214 31.4168 16.2271 31.4979 16.7643C31.5367 17.0203 31.5691 17.2919 31.65 17.5637C31.7372 17.8583 31.8731 18.1625 32.0513 18.6284C32.2034 19.0201 32.3167 19.3469 32.3781 19.6285C32.4493 19.9878 32.4493 20.2596 32.4914 20.4377C32.5304 20.5898 32.5884 20.8938 32.7245 21.3337C32.8607 21.7736 33.061 22.3402 33.1969 22.6929C33.4625 23.3983 33.5809 23.9874 33.621 24.3014C33.6564 24.625 33.7763 25.7448 33.7439 26.0812L33.7445 26.0808Z" fill="#A88F33"/>
<path fill-rule="evenodd" clip-rule="evenodd" d="M27.2072 4.57595L27.191 4.61477C27.191 4.61477 27.2395 4.63099 27.2299 4.69584C27.2305 4.78457 27.2251 4.87324 27.2136 4.96123C27.1976 5.07451 27.1652 5.16176 27.1588 5.23301C27.1588 5.38512 27.1814 5.55984 26.9668 5.99355C26.9028 6.11323 26.8633 6.21669 26.8309 6.28795C26.7501 6.46267 26.7339 6.48869 26.6626 6.56955C26.7759 6.50555 27.1838 6.24955 27.3907 6.28795C27.2484 6.3688 27.0315 6.52752 26.8956 6.73467C26.928 6.74107 27.0639 6.76709 27.2796 6.73467C27.6388 6.67963 28.0401 6.55013 28.3927 6.57595C28.778 6.59856 28.6259 6.11323 28.6259 6.11323L28.1813 5.13595L27.3399 4.54395L27.2072 4.57616V4.57595Z" fill="#BE9C44"/>
<path fill-rule="evenodd" clip-rule="evenodd" d="M29.4014 11.8965C29.4014 11.8965 29.0259 11.521 28.8738 10.2325C28.7217 8.93798 28.7541 7.03248 28.7541 7.03248L28.4499 6.28816C28.4499 6.28816 28.3859 5.79302 28.2266 5.6087C28.0672 5.42438 27.7542 5.11355 27.6117 4.96144C27.4692 4.80934 27.3075 4.60219 27.2104 4.56976C27.2589 4.48891 27.4758 4.03259 28.3074 4.02619C29.139 4.01979 29.3954 4.48251 29.4822 4.65083C29.5691 4.81915 29.9612 5.54683 30.1067 6.9335C30.2426 8.31846 30.2492 8.42214 30.2266 8.90107C30.2103 9.16646 30.1229 9.78128 29.9706 10.4381C29.8315 10.9949 29.6794 11.6164 29.401 11.8978L29.4014 11.8965Z" fill="#A17C34"/>
<path fill-rule="evenodd" clip-rule="evenodd" d="M28.224 13.0001C28.3492 13.0092 28.4742 12.981 28.5833 12.9191C28.703 12.9127 29.1367 12.9677 29.4699 12.5438C29.4925 12.6407 29.551 12.9031 29.3986 13.136C29.4797 13.055 29.5994 13.0228 29.6156 13.0001C29.622 13.1198 29.7353 13.4887 29.2564 14.3851C29.3856 14.2428 29.5377 14.2492 29.6736 14.233C29.6802 14.4013 29.7707 14.9675 29.5313 15.2719C29.3728 15.4791 29.1138 15.4142 29.1138 15.4142C29.1176 15.369 29.1176 15.3235 29.1138 15.2783C29.1074 15.1909 29.075 15.1036 29.0978 15.0454C28.9727 14.9882 28.8587 14.9093 28.7612 14.8122C28.4796 14.5468 28.114 14.0939 28.0881 13.7573C28.0557 13.3818 28.3924 13.3009 28.3924 13.3009C28.3642 13.2757 28.3401 13.2462 28.3211 13.2135C28.3049 13.1586 28.2887 13.0712 28.224 13.0001Z" fill="#8C6228"/>
<path fill-rule="evenodd" clip-rule="evenodd" d="M25.728 8.92887C25.728 8.92887 25.7118 8.90626 25.6245 9.00973C25.6407 8.90626 25.6569 8.80898 25.6633 8.71511C25.7046 8.62821 25.7581 8.54762 25.8221 8.47575C25.7734 8.57261 25.741 8.66007 25.741 8.66007C25.741 8.66007 25.8609 8.43671 26.0356 8.30082C26.1553 8.20375 26.3074 8.15853 26.372 8.06786C26.4433 7.97079 26.4271 7.95458 26.4433 7.93837C26.4433 7.93837 26.602 7.8349 26.8448 7.53047C26.877 7.49165 26.9256 7.44962 26.9581 7.41079C27.0129 7.38818 27.1424 7.32994 27.2945 7.25207C27.4532 7.16482 27.6311 7.04514 27.7412 6.99607C27.958 6.89901 28.1879 6.90882 28.2946 6.7565C28.3754 6.73389 28.4627 6.49111 28.4467 6.28418C28.5664 6.33261 29.1812 6.71447 29.3918 7.54946C29.5439 8.14167 29.2719 9.05431 29.1586 9.49463C29.0453 9.93495 29.0293 10.2616 28.8706 10.4621C28.6698 10.7277 28.0228 11.1021 27.8641 11.2875C27.7282 11.4396 27.3205 11.8247 27.3365 12.1028C27.3527 12.31 27.6083 12.4228 27.6636 12.4621C27.7188 12.5014 27.7184 12.5496 27.8221 12.5261C27.9257 12.5026 27.9644 12.4548 28.0066 12.4548C28.055 12.4612 28.055 12.4711 28.0776 12.4711C28.094 12.4706 28.1103 12.4684 28.1263 12.4644C28.1263 12.4644 28.1101 12.7591 27.4208 12.8484C27.3721 12.8551 27.3237 12.8711 27.2621 12.8809C27.3431 12.842 27.3916 12.842 27.479 12.7224C27.382 12.7062 27.1036 12.6899 27.0323 12.6673C27.0549 12.6285 27.1294 12.5248 27.1908 12.4764C27.2458 12.428 27.1844 12.4124 27.136 12.4376C27.0526 12.4943 26.9726 12.5558 26.8964 12.6219C26.8156 12.6931 26.7443 12.7902 26.6148 12.8779C26.576 12.7484 26.5824 12.5024 26.7347 12.3245C26.6957 12.3309 26.6212 12.4442 26.5502 12.4216C26.5373 12.3035 26.545 12.1841 26.5728 12.0687C26.6116 11.923 26.822 11.6674 26.822 11.6674L27.8381 9.85175L28.0548 8.47639L25.728 8.92845V8.92887Z" fill="#92723A"/>
<path fill-rule="evenodd" clip-rule="evenodd" d="M25.6734 9.00653C25.6734 9.00653 25.6183 9.04536 25.7284 9.11981C25.7122 9.14242 25.6734 9.22328 25.6247 9.27832C25.5699 9.34232 25.5114 9.382 25.4888 9.43704C25.4404 9.55032 25.4016 9.62797 25.4016 9.67661C25.4016 9.72525 25.3854 10.0359 25.2495 10.2364C25.2008 10.3077 25.1458 10.4273 25.107 10.5082C25.0261 10.6505 24.9549 10.7642 24.9386 10.8282C24.9064 10.9415 24.8838 11.2521 24.8838 11.2521C24.8838 11.2521 24.9551 11.1646 24.9809 11.1324C24.9418 11.2133 24.8998 11.3005 24.8384 11.3654C24.8772 11.3329 24.9905 11.2521 25.1814 11.0838C25.4468 10.8606 25.8611 10.4851 26.3661 10.1878C26.2137 10.2428 26.0845 10.2428 25.981 10.259C26.0618 10.1782 26.79 9.32376 27.1718 9.2429C27.195 9.2135 27.2065 9.1766 27.2042 9.13922L26.8772 9.10701L26.2137 9.2493L26.1169 8.7373L25.6734 9.00589V9.00653Z" fill="#B18E3E"/>
<path fill-rule="evenodd" clip-rule="evenodd" d="M26.7282 11.9192C26.7282 11.9192 26.6407 12.0065 26.5599 12.2234C26.4976 12.1584 26.4443 12.0855 26.4012 12.0065C26.2815 11.8059 26.0972 11.5501 25.6667 11.6958C25.6603 11.5599 25.6504 11.4887 25.6667 11.3916C25.7379 11.3756 25.9547 11.2009 26.1714 10.9451C26.3237 10.7704 26.466 10.5697 26.5631 10.3141C26.6271 10.2654 26.7378 10.1846 26.8831 10.0907C27.0902 9.94843 27.3394 9.75408 27.3782 9.53733C27.2812 9.57616 27.074 9.67323 26.7632 9.65723C26.8831 9.60219 27.0674 9.54395 27.0448 9.30437C27.0934 9.27195 27.1323 9.24933 27.1323 9.24933C27.0958 9.23717 27.0574 9.23168 27.019 9.23312C27.0124 9.21051 27.0028 9.17829 26.9477 9.19429C26.8927 9.21029 26.8837 9.21051 26.8765 9.23312C26.8539 9.23973 26.7794 9.23312 26.7244 9.27216C26.6693 9.3112 26.5172 9.44027 26.459 9.46288C26.4816 9.42405 26.5138 9.36603 26.5138 9.36603C26.5138 9.36603 26.3553 9.38203 26.242 9.43003C26.0349 9.50128 25.7955 9.63077 25.5527 9.75685C25.5753 9.71803 25.5852 9.69285 25.6012 9.6856C25.6172 9.67835 25.6562 9.6696 25.6562 9.66299C25.6562 9.65637 25.6402 9.59899 25.6498 9.57573C25.7224 9.42197 25.808 9.27473 25.9058 9.13563C26.0191 8.98331 26.0417 8.76656 26.0417 8.76656L26.5368 8.51739L27.9284 8.19739L28.8315 8.25243L28.7182 8.87707L28.1848 9.96763L27.7285 10.9611L27.2073 11.5698L26.7284 11.9192H26.7282Z" fill="#543E26"/>
<path fill-rule="evenodd" clip-rule="evenodd" d="M28.9838 9.21596C28.9838 9.21596 28.44 9.88903 28.2879 9.99271C28.385 9.78556 28.9838 8.5525 29.2005 8.20946C29.1521 8.17063 29.0873 8.17063 29.2394 7.56946C29.1101 7.87346 29.0646 8.03218 28.958 8.11303C28.8513 8.19388 28.8381 8.16807 28.766 8.16807C28.7796 8.14344 28.7852 8.11518 28.782 8.08722C28.782 8.08722 28.3257 8.03218 28.014 8.03218C27.7023 8.03218 27.0853 8.2005 26.7421 8.33639C26.4703 8.44967 26.3182 8.44967 26.2211 8.52071C26.1241 8.60156 26.069 8.68903 26.0204 8.71164C25.9815 8.73426 25.7972 8.7925 25.755 8.85394C25.7162 8.91794 25.6515 8.98983 25.6515 9.00604C25.6515 9.02226 25.6353 9.04508 25.6839 9.02866C25.6999 9.02226 25.8198 8.9574 25.9557 8.87655C26.1401 8.77308 26.3634 8.6534 26.5253 8.58215C26.9881 8.39762 27.1338 8.43004 27.3407 8.39122C27.5574 8.35239 27.8683 8.26172 28.0752 8.26172C28.2823 8.25532 28.674 8.26172 28.7647 8.27794C28.7259 8.31036 28.6934 8.34919 28.7097 8.48508C28.7097 8.52391 28.6772 8.56594 28.6457 8.6598C28.5488 8.92519 28.3643 9.3653 28.2617 9.58866C28.1194 9.89266 27.9577 10.1484 27.8777 10.307C27.7977 10.4655 27.6217 10.883 27.4474 11.1063C27.2731 11.3297 27.182 11.4656 27.1274 11.5142C27.0727 11.5628 26.6806 11.8506 26.7099 11.9543C26.7811 11.9317 27.231 11.7623 27.5577 11.3945C27.8843 11.0267 27.9493 10.8023 28.2049 10.6016C28.4605 10.4008 28.6612 10.0644 28.7809 9.7862C28.8812 9.52722 28.8586 9.44636 28.9846 9.2166L28.9838 9.21596Z" fill="#806031"/>
<path fill-rule="evenodd" clip-rule="evenodd" d="M17.2654 14.2396C17.2654 14.2396 17.1941 14.534 17.0322 14.6797C16.8737 14.8222 16.5921 14.9451 16.5599 15.1847C16.5211 15.424 16.8415 15.5439 16.8415 15.5439C16.8415 15.5439 16.6666 15.8319 16.6666 16.0487C16.6666 16.272 16.6602 16.3141 16.6828 16.5276C16.6571 16.5441 16.6353 16.5659 16.6188 16.5916C16.6188 16.5916 16.6348 16.7988 16.7935 16.928C16.9522 17.0573 17.0879 17.1352 17.1688 17.1028C17.1811 17.1291 17.1919 17.1562 17.2012 17.1838C17.2012 17.1838 17.3211 16.8796 17.4019 16.6142C17.4828 16.3424 17.554 16.381 17.5863 16.0154C17.6185 15.6497 17.9703 15.0219 17.9703 15.0219L18.2103 14.4854L17.8188 14.1812L17.2654 14.2394V14.2396Z" fill="#B6903C"/>
<path fill-rule="evenodd" clip-rule="evenodd" d="M17.9934 14.767C17.9127 14.8498 17.8382 14.9385 17.7705 15.0324C17.667 15.1749 17.5862 15.3041 17.4341 15.3594C17.282 15.4146 17.1849 15.4142 17.1945 15.5665C17.2041 15.7189 17.3466 15.7833 17.4275 15.8609C17.5149 15.9418 17.5862 16.0777 17.5474 16.23C17.5958 16.2074 17.6832 16.1814 17.7641 16.0066C17.845 15.8319 18.4105 14.7672 18.4105 14.7672H17.9934V14.767Z" fill="#685026"/>
<path fill-rule="evenodd" clip-rule="evenodd" d="M20.2241 12.3106C20.2241 12.3106 20.2725 12.1814 20.2241 12.0875C20.1754 11.9904 19.881 11.958 19.7353 11.8479C19.5832 11.7346 19.3987 11.6559 19.2466 11.7056C19.2692 11.6506 19.3599 11.5307 19.2854 11.5049C19.2142 11.4823 18.949 11.602 18.8777 11.657C18.8065 11.712 18.6446 11.7767 18.6123 11.8157C18.5801 11.8548 18.5249 11.929 18.4925 11.8966C18.46 11.874 18.444 11.8157 18.389 11.8479C18.3339 11.8801 18.069 12.0971 18.0201 12.2234C17.9713 12.3497 17.8614 12.6313 17.5314 12.9515C17.2014 13.2717 17.0589 13.4791 17.1559 13.5988C17.253 13.7184 17.2984 13.6312 17.3146 13.7346C17.3271 13.8362 17.3216 13.9392 17.2984 14.0389C17.2596 14.2072 17.195 14.3657 17.2822 14.3981C17.5056 14.4694 17.7225 14.3341 17.771 14.3755C17.868 14.4628 17.7159 14.7768 17.9457 14.8382C18.1789 14.9022 18.4086 14.7832 18.4086 14.7832L19.2564 14.3269L20.072 13.8966L20.4893 13.0712L20.2655 12.3819L20.2228 12.3106H20.2241Z" fill="#D4B968"/>
<path fill-rule="evenodd" clip-rule="evenodd" d="M19.4239 14.2816C19.4239 14.2816 19.2814 14.0648 19.4563 13.8737C19.6312 13.6825 19.8802 13.6019 19.9772 13.4822C19.9588 13.4594 19.934 13.4426 19.906 13.4338C19.9704 13.3185 20.0687 13.2258 20.1876 13.1682C20.1392 13.1197 20.0743 13.0809 20.0033 13.0809C19.8446 13.0809 19.7473 13.178 19.6018 13.178C19.4595 13.178 19.4433 13.1067 19.4433 13.1067C19.4433 13.1067 19.6828 13.0841 19.66 12.9772C19.6374 12.864 19.596 12.864 19.596 12.864C19.596 12.864 20.0587 12.672 20.1396 12.5696C20.2204 12.4672 20.2108 12.3462 20.2271 12.2978C20.2819 12.2978 20.6023 12.1294 20.7318 12.2007C20.8613 12.272 20.7706 12.4661 20.7706 12.4661C20.7706 12.4661 21.1625 12.1715 21.3622 11.8826C21.5369 11.8988 21.6182 11.7629 21.7462 11.7629C21.9049 11.7629 22.1541 11.9797 22.2025 12.4424C22.235 12.7078 22.2834 12.8599 22.235 13.3292C22.2123 13.5946 22.2187 14.1612 22.299 14.4424C22.3538 14.6658 22.4833 14.6432 22.4833 14.6432C22.4634 14.7112 22.424 14.772 22.37 14.8179C22.2825 14.8987 22.2729 15.1125 22.2825 15.1933C22.2954 15.2525 22.3117 15.3108 22.3312 15.3681C22.3312 15.3681 22.2277 15.4877 22.2017 15.5688C22.1791 15.6497 22.0724 15.7047 21.9945 15.7047C21.9167 15.7047 21.9557 15.6981 21.8522 15.7047C21.7488 15.7113 21.7163 15.7273 21.6515 15.7047C21.5866 15.6821 21.5382 15.6561 21.5642 15.4487C21.5868 15.2416 20.7649 14.7594 20.7649 14.7594L19.4209 14.2805L19.4239 14.2816Z" fill="#CCA849"/>
<path fill-rule="evenodd" clip-rule="evenodd" d="M17.8805 16.3268C17.8805 16.3268 18.1749 16.7185 19.3853 16.7185C19.9613 16.7185 20.1621 16.6635 20.2813 16.631C20.4108 16.5986 20.8961 16.4079 21.3849 15.8317C21.825 15.3107 21.7279 15.0972 21.7279 15.0972L21.4719 15.0583L20.6399 15.1716L18.1781 16.2202L17.8794 16.3268H17.8805Z" fill="#585136"/>
<path fill-rule="evenodd" clip-rule="evenodd" d="M18.7834 16.4239C18.7834 16.4239 17.7349 16.6571 17.7349 15.9936C17.7349 15.3464 18.3821 14.6667 18.544 14.547C18.7124 14.4271 19.1136 14.291 19.1136 14.291H20.0813L20.2656 14.7798L20.1848 15.8347L18.7834 16.4237V16.4239Z" fill="#252211"/>
<path fill-rule="evenodd" clip-rule="evenodd" d="M19.751 14.4887C19.751 14.4887 19.5504 14.3042 19.0941 14.5527C18.6378 14.8013 18.2687 15.3207 18.2461 15.7924C18.2235 16.2097 18.5891 16.5205 19.1587 16.5367C19.5826 16.5527 19.8384 16.5043 19.9679 16.4727C19.9355 16.4339 19.7672 16.2236 19.7672 16.2236L19.7512 14.489L19.751 14.4887Z" fill="#C3B378"/>
<path fill-rule="evenodd" clip-rule="evenodd" d="M19.5534 14.592C19.5534 14.592 19.505 14.5532 19.3614 14.6308C19.2417 14.6948 19.067 14.864 18.9311 14.9837C18.8436 15.0549 18.7886 15.0871 18.7391 15.1422C18.5384 15.3817 18.37 15.7734 18.4673 15.9676C18.5646 16.1617 18.8848 16.385 19.7004 16.2329L19.5511 14.5922L19.5534 14.592Z" fill="#E6D89C"/>
<path fill-rule="evenodd" clip-rule="evenodd" d="M19.2878 14.9934C19.2878 14.9934 19.1583 15.1942 19.1583 15.5146C19.1583 15.8414 19.3429 16.3624 20.0225 16.4012C20.5435 16.4337 20.8929 15.6505 21.2716 15.3463C21.5596 15.1133 21.7343 15.1067 21.7343 15.1067C21.7343 15.1067 21.4399 14.7867 20.6536 14.3722C19.8768 13.9547 19.0062 13.8997 18.5337 14.5405C18.7571 14.5243 19.4788 14.3398 19.4788 14.3398L19.8316 14.4531L19.2878 14.9937V14.9934Z" fill="#252211"/>
<path fill-rule="evenodd" clip-rule="evenodd" d="M20.3041 15.4174C20.2814 15.369 20.2652 15.3041 20.3591 15.2881C20.453 15.2721 20.495 15.2815 20.5274 15.3521C20.5598 15.4227 20.5914 15.4816 20.5434 15.5108C20.495 15.5367 20.3687 15.5108 20.3038 15.417L20.3041 15.4174ZM20.1521 14.9611C20.1521 14.9611 20.1197 14.9837 20.1359 14.9385C20.1423 14.8836 20.1845 14.7864 20.288 14.8092C20.3915 14.832 20.3691 14.9451 20.352 14.9775C20.3349 15.0099 20.2485 15.0648 20.1837 15.0415C20.167 15.0373 20.1534 15.0253 20.1469 15.0093C20.1405 14.9933 20.1421 14.9753 20.1512 14.9607L20.1521 14.9611Z" fill="#6F674D"/>
<path fill-rule="evenodd" clip-rule="evenodd" d="M11.3921 15.168C11.3921 15.168 11.6481 15.36 11.9455 15.3525C12.2399 15.3459 12.6185 15.0419 12.7933 14.8476C12.8967 14.7343 12.9853 14.6146 13.0813 14.5208C13.1623 14.4399 13.2172 14.4011 13.256 14.346C13.311 14.282 13.3693 14.1617 13.3985 14.1227C13.3272 14.1777 13.2238 14.275 13.1169 14.3396C13.0134 14.4036 12.7901 14.524 12.6994 14.5564C12.6121 14.5888 11.7059 15.0684 11.7059 15.0684L11.3921 15.168Z" fill="#AC924C"/>
<path fill-rule="evenodd" clip-rule="evenodd" d="M11.7832 12.7768C11.7832 12.7768 11.9255 12.6797 12.2007 12.618C12.4661 12.554 13.0001 12.5048 13.0001 12.5048L13.4402 12.6968L13.6149 13.3602L13.2949 14.0497L12.8872 14.3057L12.4243 13.5614L11.7843 12.778L11.7832 12.7768Z" fill="#9F8E57"/>
<path fill-rule="evenodd" clip-rule="evenodd" d="M11.2075 13.369L11.0552 13.4827C11.0552 13.4827 11.0942 13.4115 11.1264 13.1947C11.1586 12.978 11.3272 12.4504 11.5731 12.1462C11.8191 11.842 11.8127 11.8582 11.8127 11.8582C11.7669 11.8498 11.7198 11.8615 11.6832 11.8904C11.7157 11.8187 11.9228 11.5627 12.1299 11.4347C12.3371 11.3067 12.4179 11.2664 12.6347 11.3707C12.8514 11.475 12.9065 11.5292 13.0652 11.5228C13.2239 11.5164 13.3596 11.3481 13.3596 11.3481C13.3596 11.3481 13.392 11.4516 13.2723 11.6911C13.1527 11.9307 12.6801 12.4192 12.6801 12.4192L11.6962 13.0923L11.2075 13.3696V13.369Z" fill="#EAC970"/>
<path fill-rule="evenodd" clip-rule="evenodd" d="M11.9349 12.6959C11.9349 12.6959 12.647 12.7929 12.8638 12.5924C12.8702 12.615 12.8962 12.615 12.8962 12.6312C12.8945 12.6434 12.8888 12.6547 12.88 12.6634C12.9036 12.6597 12.9274 12.6575 12.9513 12.657C12.9798 12.6655 13.0091 12.6709 13.0387 12.6732C13.0626 12.6727 13.0864 12.6705 13.11 12.6666C13.1054 12.6991 13.0879 12.7284 13.0613 12.7477C13.0938 12.7477 13.1253 12.7541 13.1253 12.7799C13.1253 12.8057 13.1317 12.8836 13.0929 12.8998C13.0607 12.9087 13.0265 12.9064 12.9958 12.8932C12.9984 12.9545 13.0151 13.0143 13.0445 13.0681C13.1085 13.1878 13.245 13.3241 13.4285 13.2849C13.4285 13.2849 13.5253 13.5178 13.1177 14.0356C13.0628 14.1068 13.0044 14.2039 12.9333 14.2848C12.9053 14.3459 12.8838 14.41 12.8693 14.4757C12.8693 14.4757 13.5588 14.2103 13.7562 13.6051C13.9569 12.9967 13.9957 12.398 13.9569 11.8383C13.9503 11.6795 13.9245 11.5665 13.8857 11.4854C13.7886 11.2847 13.5166 11.3171 13.4067 11.4304C13.248 11.5891 12.9826 11.9837 12.6138 12.2555C12.2383 12.5273 12.2223 12.5755 11.9341 12.6959H11.9349Z" fill="#D7BC6B"/>
<path fill-rule="evenodd" clip-rule="evenodd" d="M11.0812 13.5697C11.0812 13.5697 10.9453 13.6506 10.8741 13.9537C10.8028 14.2643 10.9381 14.643 11.0164 14.7627C11.0947 14.8823 11.2724 15.2094 11.641 15.2256C11.7323 15.2251 11.8225 15.2064 11.9064 15.1706C12.0351 15.1116 12.1558 15.0365 12.2657 14.9472C12.4244 14.8275 12.5537 14.7241 12.5374 14.7142C12.4986 14.698 11.5602 13.9213 11.5602 13.9213L11.2073 13.5275L11.081 13.5701L11.0812 13.5697Z" fill="#585136"/>
<path fill-rule="evenodd" clip-rule="evenodd" d="M11.9681 14.8576C11.9681 14.8576 12.1591 14.8416 12.2724 14.7703C12.3856 14.6991 11.6089 13.929 11.6089 13.929L11.6639 14.761L11.9681 14.8576Z" fill="#453A25"/>
<path fill-rule="evenodd" clip-rule="evenodd" d="M11.1423 13.5113C11.1423 13.5113 11.0452 13.6958 11.0452 13.7445C11.029 13.903 11.0776 14.4013 11.1164 14.5598C11.1553 14.7282 11.3656 14.9837 11.6376 14.9837C11.8057 14.9837 12.0389 14.8803 12.0389 14.8545C12.0389 14.822 11.7993 14.7905 11.7347 14.6699C11.6959 14.6059 11.6796 14.4468 11.6707 14.2859C11.6643 14.1825 11.6643 14.0692 11.7031 14.0299C11.7906 13.9329 11.8066 13.6545 11.8066 13.6545L12.1172 13.0774H11.7087L11.2199 13.3816L11.1423 13.5113Z" fill="#84754B"/>
<path fill-rule="evenodd" clip-rule="evenodd" d="M11.0229 13.6894C11.0229 13.6894 11.3429 13.2655 11.6314 13.1683C11.9198 13.071 12.0489 13.1294 12.0489 13.1294L11.8805 13.5599L11.641 13.8253L11.6572 13.9612C11.6572 13.9612 11.6181 14.3205 11.8577 14.5697C12.0973 14.8188 12.2752 14.8092 12.3789 14.8092C12.4826 14.8092 12.7802 14.7218 12.9323 14.3625C13.0682 14.0261 13.1815 13.5945 12.9097 13.1619C12.6441 12.7314 12.1749 12.7147 12.0843 12.7147C11.9936 12.7147 11.2817 12.7503 11.0229 13.6888V13.6894Z" fill="#252211"/>
<path fill-rule="evenodd" clip-rule="evenodd" d="M19.2394 15.1293C19.1197 15.0743 19.233 14.7379 19.3527 14.6342C19.4724 14.5305 19.6245 14.4111 19.8901 14.3946C19.9869 14.3882 20.0808 14.4497 20.0648 14.5145C20.0422 14.6342 19.8739 14.8025 19.7218 14.9222C19.5114 15.0873 19.3753 15.1908 19.2394 15.1293Z" fill="#F7F7E7"/>
<path fill-rule="evenodd" clip-rule="evenodd" d="M12.7672 13.2945C12.8547 13.2881 12.968 13.3585 12.9906 13.4532C13.0132 13.5567 12.9355 13.7638 12.7672 13.7638C12.6313 13.7638 12.5601 13.5955 12.5601 13.5471C12.5616 13.5072 12.5727 13.4684 12.5925 13.4338C12.5989 13.424 12.6151 13.3107 12.7672 13.2945Z" fill="#F8F6DE"/>
<path fill-rule="evenodd" clip-rule="evenodd" d="M11.5048 13.369C11.5048 13.369 11.2815 13.4725 11.178 13.689C11.1041 13.8489 11.0817 14.0278 11.114 14.201C11.1302 14.2819 11.2111 14.4824 11.2661 14.5537C11.3211 14.6249 11.3956 14.6736 11.4506 14.6669C11.5057 14.6603 11.6187 14.5148 11.6187 14.4276C11.6187 14.3403 11.6254 13.9713 11.732 13.7705C11.8259 13.57 11.5055 13.3692 11.5055 13.3692L11.5048 13.369Z" fill="#D4C38B"/>
<path fill-rule="evenodd" clip-rule="evenodd" d="M11.5372 13.3527C11.4984 13.3753 11.4338 13.4078 11.4498 13.4498C11.466 13.4886 11.6019 13.5138 11.6505 13.6085C11.7055 13.7056 11.7055 13.8091 11.6893 13.8577C11.7316 13.8376 11.77 13.8102 11.8026 13.7766C11.8739 13.6958 11.9611 13.5859 12.0356 13.5859C12.0842 13.5859 12.1326 13.6085 12.1781 13.6085C12.2493 13.6085 12.3204 13.5859 12.3302 13.5115C12.3462 13.4144 12.1943 13.3269 12.1068 13.3431C12.123 13.2791 12.1457 13.1846 12.0744 13.1198C12.0031 13.0549 11.78 13.1684 11.7314 13.2008C11.6827 13.2333 11.5372 13.3529 11.5372 13.3529V13.3527Z" fill="#E2D59D"/>
<path fill-rule="evenodd" clip-rule="evenodd" d="M16.6795 20.1521L17.1584 20.0106L17.2943 20.1077C17.2943 20.1077 17.3911 20.3148 17.5435 20.3406C17.4948 20.4441 17.3685 20.5326 17.3751 20.606C17.3818 20.6794 17.4464 20.7355 17.4464 20.7355C17.4464 20.7355 17.0159 21.4474 17.8639 22.1649C17.6631 22.2457 17.4076 22.3569 17.2717 22.4209C17.3685 22.4435 17.5757 22.4849 17.6631 22.5634C17.7506 22.6419 17.7506 22.6668 17.8315 22.7155C17.9123 22.7641 17.9607 22.8288 17.9447 22.8578C17.8897 22.8253 17.7052 22.7285 17.673 22.8189C17.6407 22.9094 16.8736 22.874 16.8736 22.874L15.5791 23.1232C15.5791 23.1232 15.6275 22.9937 15.4916 22.874C15.3331 22.7317 15.139 22.8804 14.9318 22.7219C14.6601 22.5147 14.6502 22.2752 14.563 22.1847C14.6502 22.1297 14.8284 22.0488 15.2523 21.9927C15.2361 21.9603 15.181 21.8632 15.2134 21.776C15.2523 21.6627 15.414 21.5914 15.3655 21.456C15.4368 21.4397 15.469 21.4397 15.6471 21.2164C15.8155 20.993 15.9189 20.9446 16.0484 20.9284C16.1779 20.9122 16.2556 20.9284 16.4951 20.705C16.6633 20.5465 16.6084 20.4106 16.6084 20.4106C16.6084 20.4106 16.7183 20.375 16.6797 20.1516L16.6795 20.1521Z" fill="#CBAC5A"/>
<path fill-rule="evenodd" clip-rule="evenodd" d="M15.2654 20.2239C15.2718 20.1915 15.2978 20.1753 15.4725 20.1915C15.6473 20.2077 16.754 20.0881 17.0551 20.0718C17.3593 20.0492 18.4304 20.0652 18.9516 20.1753C19.4728 20.2854 20.0001 20.4149 20.2557 20.4795C20.5117 20.5508 20.5923 20.5764 20.5825 20.6088C20.5761 20.6412 20.5185 20.6728 20.4855 20.6638C20.4532 20.6574 19.6052 20.3985 19.3433 20.3438C19.0813 20.2892 18.1748 20.1431 17.6793 20.1518C17.2165 20.1585 17.032 20.1454 16.6405 20.1907C16.2489 20.2393 15.6016 20.3039 15.4075 20.2781C15.2155 20.2555 15.2552 20.2555 15.265 20.2231L15.2654 20.2239Z" fill="#D6BC6F"/>
<path fill-rule="evenodd" clip-rule="evenodd" d="M17.8705 22.7605C17.8705 22.7605 18.5339 23.1198 18.7735 23.5599C18.9482 23.8867 18.67 24.0486 18.67 24.0486C18.67 24.0486 19.0455 24.0486 18.9969 24.2558C18.9742 24.385 18.3496 24.7345 17.9321 24.919C17.5082 25.1036 17.5244 25.094 17.3173 25.1262C17.1165 25.1586 16.5664 25.0622 16.4531 25.2232C16.3398 25.3843 16.3891 25.5503 16.4206 25.5761C16.4531 25.5987 16.7153 25.6311 16.7153 25.6311C16.7153 25.6311 16.6602 25.7832 16.1166 25.7994C15.5731 25.8157 15.437 25.8543 15.4045 25.9127C15.3721 25.9676 15.508 25.9353 15.7574 25.9767C16.0066 26.0156 16.356 26.0407 16.356 26.0407C16.356 26.0407 16.2427 26.1378 15.9483 26.2154C15.6117 26.3027 15.0841 26.3838 14.9256 26.4808C15.0065 26.5359 15.1264 26.6167 15.1816 26.6231C15.0457 26.6556 14.8546 26.7268 14.8224 26.7526C14.8708 26.785 14.9356 26.8239 14.9356 26.8239C14.9356 26.8239 14.6636 27.1507 14.5051 27.2318C14.3466 27.3128 13.434 27.7365 13.12 27.6557C12.3368 27.4485 12.2397 26.5909 12.0488 26.5263C11.7608 26.4292 11.6249 26.6231 11.3691 26.4872C11.4824 26.4064 11.5441 26.358 11.6637 26.3029C11.5342 26.2389 10.8644 25.8142 10.8644 25.8142C10.7943 25.6615 10.7166 25.5125 10.6314 25.3677C10.5019 25.1443 10.3114 24.8465 10.1685 24.5843C9.85787 24.0083 9.84166 23.7429 9.56006 23.4161C9.6087 23.3521 9.77681 23.361 9.77681 23.361L12.1363 24.1378L16.32 24.259L17.408 22.7057L17.8707 22.7607L17.8705 22.7605Z" fill="#DFC677"/>
<path fill-rule="evenodd" clip-rule="evenodd" d="M11.6733 25.1293C11.6986 25.1574 11.728 25.1815 11.7606 25.2006C11.8417 25.2556 11.9613 25.3205 12.0422 25.4173C12.0746 25.3689 12.1555 25.2814 12.2982 25.4173C12.4409 25.5532 12.6182 25.4564 12.7285 25.4886C12.8418 25.5276 12.8482 25.5436 12.8482 25.5436C12.8482 25.5436 12.9122 25.4886 13.0553 25.4304C13.1428 25.3979 13.2462 25.3753 13.3595 25.3431C13.463 25.3205 13.5763 25.2881 13.6541 25.2881C13.7254 25.3365 13.981 25.6081 15.0069 25.2072C15.9746 24.8317 16.1977 24.7897 16.3596 24.8477C16.3758 24.8089 16.3921 24.7345 16.6412 24.7443C16.6412 24.6408 16.4341 24.288 16.4341 24.288L15.2917 23.8965H14.6668L12.7931 24.2395L11.7548 24.832L11.674 25.1306L11.6733 25.1293Z" fill="#C4A859"/>
<path fill-rule="evenodd" clip-rule="evenodd" d="M11.0483 24.4725C11.0483 24.4725 11.071 24.6472 11.3299 24.8317C11.5859 25.0161 11.6664 25.1261 11.6664 25.1261C11.6664 25.1261 11.715 25.0621 11.7538 24.9969C11.7927 24.9256 11.8251 24.8448 11.8897 24.8221C12.0192 24.7671 12.3136 24.8706 12.3785 24.8544C12.4335 24.8384 12.4173 24.7251 12.4755 24.7251C12.6114 24.7185 12.6987 24.8123 12.7473 24.8123C12.796 24.8123 12.9154 24.8059 12.9316 24.7801C12.9479 24.7543 12.9543 24.4855 13.1388 24.356C13.3395 24.2137 13.5855 24.2752 13.6508 24.3076C13.6508 24.356 13.6572 24.4759 13.7867 24.4823C13.9162 24.4887 13.929 24.4661 14.0427 24.5049C14.1564 24.5437 14.2919 24.4985 14.3533 24.6892C14.4083 24.6732 14.5378 24.657 14.5054 24.4725C14.5694 24.4241 14.6253 24.3916 14.7614 24.2007C14.7938 24.1523 14.8487 24.0972 14.8909 24.026C15.0042 24.026 15.1401 24.0034 15.3212 24.1619C15.2662 24.2007 15.2337 24.2259 15.2177 24.2653C15.2651 24.3123 15.3083 24.3631 15.347 24.4175C15.3956 24.4815 15.4281 24.56 15.4895 24.5762C15.6254 24.615 15.8488 24.56 16.0979 24.5762C16.3375 24.5924 16.538 24.6796 16.6255 24.7347C16.6579 24.7187 16.6579 24.7121 16.7388 24.7283C16.8196 24.7445 16.8811 24.7509 16.7938 24.6474C16.8423 24.67 16.8973 24.7187 16.9459 24.67C16.9946 24.6214 17.0332 24.5504 17.1691 24.5341C17.305 24.5179 17.3536 24.5405 17.4087 24.3983C17.4799 24.2235 17.2339 24.2235 17.2339 24.2235C17.2339 24.2235 17.3472 24.1199 17.4735 23.984C17.6256 23.8417 17.8003 23.6571 17.8424 23.4306C17.9136 23.0131 17.5059 22.9583 17.5059 22.9583L15.5286 23.5667L13.1111 23.4468L11.0496 24.4727L11.0483 24.4725Z" fill="#927D49"/>
<path fill-rule="evenodd" clip-rule="evenodd" d="M9.27161 18.7605C9.27161 18.7605 9.20761 18.8414 9.16814 19.0323C9.12868 19.2233 9.14553 19.2007 9.1131 19.3365C9.08068 19.4724 8.68238 20.8252 8.83172 21.2815C8.98105 21.7378 9.23961 21.9061 9.40132 22.275C9.43374 22.3559 9.46532 22.4045 9.48217 22.4757C9.53721 22.7151 9.48878 22.8996 9.55342 23.1392C9.57604 23.2201 9.63449 23.3139 9.72174 23.411C9.91374 23.6115 10.2267 23.8025 10.3617 23.9384C10.5525 24.1391 10.8245 24.547 11.1707 24.5856C11.3552 24.6082 11.6174 24.5306 11.8342 24.4013C12.0262 24.2814 12.1448 24.1133 12.3462 24.0173C12.4885 23.946 12.6406 23.9202 12.7765 23.8878C13.0581 23.8328 13.3138 23.8238 13.466 23.8554C13.6989 23.904 14.2491 24.0723 14.554 24.0723C14.7922 24.0685 15.029 24.0359 15.2594 23.9753C15.7222 23.8394 16.282 23.6062 16.651 23.5027C16.8678 23.4387 17.0425 23.4219 17.2206 23.3831C17.5248 23.3118 17.7804 23.2147 17.9261 23.0302C17.829 22.9169 17.7094 22.7422 17.0619 22.7486C16.3274 22.7648 15.4794 23.1725 15.0619 23.2373C14.6444 23.3022 14.4633 23.357 13.9972 23.1887C13.5402 23.0187 13.525 22.9063 13.525 22.9063C13.525 22.9063 13.0453 22.5707 12.8445 21.7152C12.6438 20.8597 12.8445 20.2364 13.3657 19.644C13.5016 19.4919 13.4692 19.356 13.4692 19.356C13.4692 19.356 13.8122 18.8932 13.7183 18.46C13.6149 18.0295 12.9514 18.1169 12.9514 18.1169L9.27182 18.7605H9.27161Z" fill="#6E6342"/>
<path fill-rule="evenodd" clip-rule="evenodd" d="M9.8254 20.2008C9.79687 20.2545 9.78345 20.3148 9.78658 20.3755C9.79298 20.4628 9.819 20.5761 10.081 20.8318C10.3043 21.055 10.2557 21.3042 10.2557 21.3042C10.2557 21.3042 10.3681 21.3268 10.6732 21.1841C10.9128 21.0708 10.9932 21.2715 10.9932 21.2715C11.0629 21.235 11.1385 21.2108 11.2166 21.2003C11.2872 21.1938 11.3557 21.1719 11.4171 21.1363C11.4171 21.1363 11.6987 21.4243 11.9447 21.5602C12.168 21.6801 12.2975 21.7609 12.4076 21.6801C12.5111 21.6088 12.5111 21.4631 12.5044 21.3985C12.4788 21.3388 12.4463 21.2823 12.4076 21.2301C12.3363 21.1267 12.2231 21.0068 12.2156 20.9101C12.1994 20.687 12.3839 20.4214 12.3449 20.3568C12.3058 20.2921 12.1606 20.2759 11.8013 20.4054C11.4292 20.5283 9.82391 20.2014 9.82391 20.2014L9.8254 20.2008Z" fill="#39331F"/>
<path fill-rule="evenodd" clip-rule="evenodd" d="M10.673 21.6473C10.673 21.6473 10.4887 21.4726 10.5533 20.6246C10.6315 20.6235 10.7097 20.6311 10.7863 20.6472C10.7863 20.6472 10.8867 21.3043 10.673 21.6473Z" fill="#292311"/>
<path fill-rule="evenodd" clip-rule="evenodd" d="M9.35913 18.1132C9.38485 18.0942 9.40871 18.0728 9.43038 18.0492C9.36638 18.1689 9.07091 18.6479 9.31049 19.402C9.55006 20.1527 10.1519 20.7125 10.893 20.7385C11.6341 20.7646 12.0237 20.4019 12.4691 19.8583C12.6438 19.6416 12.8446 19.3696 13.0225 19.1852C13.2879 18.897 13.495 18.8162 13.495 18.538C13.495 17.9684 12.9124 17.7126 12.0548 17.457C11.1972 17.2015 10.4237 17.233 10.0224 17.408C9.63091 17.5987 9.46259 17.7994 9.35891 18.1135L9.35913 18.1132Z" fill="#252211"/>
<path fill-rule="evenodd" clip-rule="evenodd" d="M12.1134 21.9029L12.1774 21.8705C12.1774 21.8705 12.1934 21.6145 12.2971 21.6213C12.4006 21.6376 12.4492 21.7737 12.4394 21.8221C12.433 21.8705 12.4072 21.9516 12.3035 21.9418C12.1676 21.945 12.1128 21.9029 12.1128 21.9029H12.1134Z" fill="#3F3824"/>
<path fill-rule="evenodd" clip-rule="evenodd" d="M11.8252 20.8156C11.8252 20.8156 11.8892 20.7929 11.9675 20.8706C12.0315 20.8706 12.3105 20.8382 12.398 20.8932C12.4855 20.9483 12.5113 20.9967 12.5113 20.9967C12.5113 20.9967 12.1844 21.0679 12.0063 20.9967C11.8252 20.9352 11.8252 20.8156 11.8252 20.8156H11.8252Z" fill="#2D2815"/>
<path fill-rule="evenodd" clip-rule="evenodd" d="M13.2655 20.864C13.2655 20.8478 13.0907 20.7281 12.9062 20.6891C12.8738 20.6827 12.8672 20.7053 12.8422 20.7053C12.826 20.6989 12.8196 20.6503 12.8196 20.6503L12.7146 20.7055C12.7146 20.7055 12.6984 20.7281 12.7535 20.7695C12.8019 20.8083 12.883 20.8408 12.9056 20.9054C12.9282 20.9701 12.9282 20.9927 12.938 21.0025C12.9444 21.0089 13.0577 21.0025 13.1127 20.9701C13.1678 20.9376 13.2714 20.8847 13.2648 20.8634L13.2655 20.864Z" fill="#82764F"/>
<path fill-rule="evenodd" clip-rule="evenodd" d="M11.6313 21.5211C11.6313 21.5211 11.6636 21.2979 11.8805 21.2881C12.1037 21.2719 12.1459 21.4886 12.1459 21.4886L12.0164 21.6181C12.0164 21.6149 11.9193 21.479 11.6324 21.5211H11.6313Z" fill="#2D2816"/>
<path fill-rule="evenodd" clip-rule="evenodd" d="M13.0391 20.5598C13.0391 20.5598 12.9192 20.6893 12.654 20.7281C12.6314 20.6957 12.5828 20.6311 12.654 20.5276C12.7253 20.4241 12.8061 20.3917 12.887 20.4239C12.9598 20.4357 13.0192 20.4888 13.0391 20.5598Z" fill="#574F35"/>
<path fill-rule="evenodd" clip-rule="evenodd" d="M13.5275 20.7185C13.5341 20.6861 13.5115 20.6797 13.5275 20.6635C13.5435 20.6473 13.6312 20.615 13.6474 20.631C13.6538 20.6377 13.6474 20.6635 13.6474 20.695C13.6474 20.7266 13.6474 20.759 13.6312 20.7823C13.6085 20.8147 13.5439 20.8309 13.5115 20.8213C13.4791 20.8117 13.4727 20.7663 13.4727 20.7573C13.4887 20.7509 13.5275 20.7347 13.5275 20.7185ZM14.0801 20.3691C14.0801 20.3529 14.1351 20.3204 14.1675 20.3204C14.216 20.3204 14.216 20.3593 14.2226 20.3691C14.2386 20.3755 14.2386 20.3625 14.2548 20.3917C14.271 20.4209 14.2938 20.4725 14.2774 20.505C14.261 20.5374 14.1966 20.5598 14.1806 20.5534C14.1579 20.5372 14.0867 20.3917 14.0801 20.3691Z" fill="#82764F"/>
<path fill-rule="evenodd" clip-rule="evenodd" d="M12.9678 20.7929C12.9678 20.7929 13.039 20.8089 13.1361 20.89C13.1037 20.9126 13.055 20.9384 13.055 20.9384C13.055 20.9384 13.0486 20.864 12.9678 20.7927V20.7929Z" fill="#6E6342"/>
<path fill-rule="evenodd" clip-rule="evenodd" d="M12.8092 20.0809C12.793 20.0649 12.8576 20.026 12.8965 20.0324C12.9353 20.0388 12.9515 20.0649 12.9935 20.0713C13.0355 20.0777 13.0422 20.055 13.0575 20.0388C13.0729 20.0226 13.1288 20.0324 13.1384 20.0388C13.1444 20.0459 13.1498 20.0535 13.1546 20.0614C13.156 20.0366 13.1676 20.0134 13.1868 19.9974C13.2119 19.979 13.2442 19.973 13.2743 19.9812C13.2807 20.0038 13.3131 20.0847 13.3067 20.1009C13.3003 20.1171 13.2032 20.1399 13.1868 20.1235C13.203 20.1626 13.2743 20.2434 13.2839 20.2594C13.2935 20.2754 13.2126 20.3145 13.1804 20.3081C13.1352 20.3049 12.8568 20.1429 12.8083 20.0815L12.8092 20.0809ZM13.233 19.5437C13.227 19.5274 13.2156 19.5137 13.2006 19.5049C13.178 19.4985 13.1035 19.5049 13.1035 19.5437C13.1035 19.5825 13.1675 19.7997 13.2394 19.9127C13.3205 20.026 13.3753 20.1197 13.4303 20.1457C13.4662 20.162 13.5086 20.1479 13.5274 20.1133C13.5338 20.0971 13.55 19.9774 13.5436 19.6958C13.5372 19.4142 13.5274 19.1424 13.5112 19.1262C13.495 19.11 13.4303 19.1102 13.4077 19.1424C13.3851 19.1746 13.2394 19.4953 13.2328 19.5437H13.233Z" fill="#585136"/>
<path fill-rule="evenodd" clip-rule="evenodd" d="M12.945 21.2006C12.945 21.2006 12.8317 21.1294 12.7217 21.178C12.6182 21.2266 12.6246 21.4176 12.6246 21.4176C12.6718 21.4361 12.7252 21.43 12.7671 21.4014C12.8383 21.3529 12.9288 21.2721 12.945 21.2008V21.2006Z" fill="#574F35"/>
<path fill-rule="evenodd" clip-rule="evenodd" d="M13.1587 21.4564C13.1523 21.3924 13.0947 21.3924 13.0947 21.3593C13.1029 21.3268 13.1322 21.3041 13.1658 21.3043C13.1982 21.3043 13.2298 21.3431 13.2694 21.3683C13.3083 21.3909 13.3665 21.4323 13.3729 21.4816C13.3793 21.5308 13.3089 21.6659 13.2306 21.6659C13.1523 21.6659 13.1756 21.5202 13.1594 21.4555L13.1587 21.4564ZM13.7835 21.3689C13.7835 21.3689 13.654 21.4078 13.6636 21.3689C13.6732 21.3301 13.7026 21.3205 13.7447 21.3205C13.766 21.2981 13.7947 21.2843 13.8255 21.2815C13.8431 21.2806 13.8604 21.2864 13.8739 21.2977C13.8739 21.2977 13.9614 21.2588 13.9872 21.2815C14.013 21.3041 13.9938 21.3041 14.0098 21.3301C14.0302 21.359 14.0436 21.3922 14.0489 21.4272C14.0489 21.453 13.9518 21.508 13.8739 21.4984C13.7835 21.479 13.7995 21.3851 13.7835 21.3689ZM14.5372 21.2232C14.5372 21.2232 14.576 21.2458 14.5438 21.2719C14.5212 21.2945 14.4079 21.3359 14.3106 21.3431C14.2136 21.3431 14.1263 21.3591 14.1263 21.3269C14.1263 21.2947 14.2072 21.2298 14.2556 21.2136C14.2753 21.189 14.3051 21.1747 14.3366 21.1748C14.3755 21.1748 14.5274 21.1586 14.5696 21.1522C14.6084 21.1456 14.6409 21.1682 14.618 21.2006C14.6084 21.2232 14.5372 21.2232 14.5372 21.2232ZM14.7605 20.224C14.7605 20.224 14.7119 20.3274 14.657 20.3274C14.602 20.321 14.602 20.3048 14.602 20.2886C14.602 20.266 14.657 20.2077 14.6504 20.1915C14.6344 20.1915 14.5954 20.1915 14.602 20.1527C14.602 20.1203 14.657 20.0815 14.7055 20.0887C14.742 20.0586 14.7876 20.0416 14.8349 20.0403C14.89 20.0403 14.9384 20.0563 14.9384 20.0887C14.9384 20.1211 14.8744 20.1922 14.8509 20.2086C14.8251 20.2344 14.7927 20.2513 14.7605 20.2246V20.224ZM14.0227 22.1365C14.0227 22.1365 13.9587 22.1431 13.9587 22.1753C13.9587 22.1915 13.9747 22.1915 13.9975 22.1819C14.0106 22.1812 14.0237 22.179 14.0363 22.1753C14.0427 22.1819 14.0427 22.2141 14.0914 22.2141C14.1313 22.2088 14.1698 22.1956 14.2046 22.1753C14.2435 22.1593 14.2759 22.1429 14.2759 22.1113C14.2597 22.0563 14.2272 22.0303 14.1788 22.0303C14.154 22.0287 14.1293 22.0343 14.1076 22.0465C14.1076 22.0465 14.0914 22.014 14.0363 22.0465C13.9813 22.0789 13.9877 22.0789 14.0039 22.0951C14.0329 22.1209 14.0233 22.1378 14.0233 22.1378L14.0227 22.1365ZM13.6569 22.4731C13.6569 22.4569 13.7378 22.4245 13.7604 22.4343C13.783 22.4407 13.8477 22.5636 13.8477 22.5766C13.8477 22.5928 13.7668 22.6316 13.7344 22.6316C13.702 22.6316 13.6471 22.5766 13.6471 22.5676C13.6471 22.5612 13.686 22.5516 13.686 22.545C13.6956 22.529 13.6569 22.49 13.6569 22.4738V22.4731ZM13.4009 22.0006C13.4171 21.9942 13.4171 21.978 13.4398 21.9618C13.4541 21.9522 13.4721 21.9499 13.4884 21.9554C13.4999 21.9348 13.5202 21.9204 13.5434 21.9163C13.5823 21.9099 13.6147 21.9163 13.6074 21.9326C13.6074 21.9812 13.6399 22.0134 13.6399 22.0522C13.6399 22.0911 13.6172 22.1397 13.5364 22.1721C13.4555 22.1947 13.3455 22.1947 13.3292 22.1883C13.313 22.1819 13.2968 22.1171 13.313 22.0847C13.3292 22.0522 13.3745 22.0168 13.4005 22.0006H13.4009Z" fill="#82764F"/>
<path fill-rule="evenodd" clip-rule="evenodd" d="M13.5039 22.0226C13.5039 22.0226 13.4489 22.055 13.4489 22.0712C13.444 22.0869 13.4418 22.1033 13.4425 22.1196C13.4425 22.1292 13.5137 22.1132 13.5233 22.1034C13.5265 22.097 13.5039 22.0394 13.5039 22.0226Z" fill="#6E6342"/>
<path fill-rule="evenodd" clip-rule="evenodd" d="M13.0227 21.8706C13.0549 21.8772 13.11 21.8706 13.152 21.8868C13.1844 21.903 13.207 21.9354 13.1746 21.9742C13.1422 22.0131 13.1106 22.0713 13.0387 22.0615C12.9579 22.0551 12.8802 22.0131 12.8802 21.9806C12.8775 21.9392 12.8915 21.8984 12.919 21.8674C12.9515 21.8415 12.9675 21.8578 13.0225 21.8706H13.0227Z" fill="#585136"/>
<path fill-rule="evenodd" clip-rule="evenodd" d="M12.9837 21.903C12.9837 21.903 12.8802 21.9838 12.8542 22.0228C12.8217 22.0617 12.6632 22.2622 12.6148 22.3042C12.6309 22.2759 12.6492 22.2488 12.6696 22.2234C12.6056 22.2643 12.5577 22.326 12.5337 22.3981C12.4949 22.518 12.7507 22.5826 12.9188 22.6313C13.0869 22.6799 13.152 22.6953 13.152 22.6953C13.0901 22.6023 13.037 22.5037 12.9933 22.4009C12.9293 22.2488 12.8962 22.2326 12.9382 22.1613C12.9706 22.09 13.0193 22.0416 13.0193 21.9866C12.9999 21.9354 12.9837 21.903 12.9837 21.903Z" fill="#574F35"/>
<path fill-rule="evenodd" clip-rule="evenodd" d="M9.29437 22.1587C9.31793 22.163 9.34207 22.163 9.36563 22.1587C9.41405 22.1521 9.91901 21.9667 10.4466 22C10.8415 22.0238 11.233 22.0882 11.6148 22.192C12.2783 22.3667 13.1034 22.7129 13.6374 22.9105C13.7797 22.9653 13.919 23.0626 14.0214 23.1012C14.4293 23.2599 14.4453 23.2599 14.6849 23.3019C14.9665 23.3408 15.2545 23.2469 15.5555 23.1823C15.9243 23.1012 16.5554 23.0624 17.1088 22.9815C17.2877 22.9567 17.4642 22.9167 17.6363 22.8618C17.6363 22.8618 17.1962 23.3019 16.1411 23.4604C15.7146 23.5252 15.2812 23.5307 14.8532 23.4767C14.5166 23.4442 14.2934 23.3956 14.1251 23.3472C13.9342 23.2921 13.5425 23.1464 13.0603 23.0272C12.7237 22.9397 12.3482 22.8751 11.9179 22.7942C10.8564 22.5999 9.7044 22.3767 9.29395 22.16L9.29437 22.1587Z" fill="#252211"/>
<path fill-rule="evenodd" clip-rule="evenodd" d="M8.1034 20.1587C7.8474 20.3754 7.57582 20.5826 7.31065 20.7831L6.51129 21.3973C6.2395 21.5978 5.97412 21.805 5.70212 22.0057C5.43012 22.2065 5.15854 22.3972 4.87012 22.5817C5.12612 22.365 5.39769 22.1642 5.66948 21.9669C5.94126 21.7696 6.22308 21.5761 6.48526 21.376L7.28462 20.7609C7.55961 20.5604 7.825 20.3533 8.1034 20.1591V20.1587ZM6.68934 22.4241C6.68934 22.4241 6.97734 22.1845 7.33659 21.8481C7.7831 21.4308 8.33009 20.8966 8.50481 20.7998L6.68913 22.4243L6.68934 22.4241Z" fill="#CFB66C"/>
<path fill-rule="evenodd" clip-rule="evenodd" d="M6.68896 22.4239C6.83147 22.2816 6.98358 22.1425 7.13568 22.0064L7.36864 21.8058C7.4399 21.7418 7.52096 21.67 7.592 21.5987C7.7343 21.4564 7.8736 21.3041 8.0159 21.1586C8.08642 21.0854 8.16099 21.0163 8.23926 20.9514C8.27839 20.9168 8.32184 20.8874 8.36854 20.864C8.40758 20.8414 8.4496 20.8 8.50443 20.7927C8.47222 20.8414 8.43339 20.864 8.40096 20.906C8.36214 20.9384 8.32971 20.9773 8.2975 21.0095C8.22624 21.0807 8.14539 21.1454 8.07414 21.2102C7.92203 21.3397 7.76352 21.4662 7.61142 21.6017C7.45931 21.7372 7.31702 21.8833 7.1647 22.0192C6.99979 22.1585 6.84768 22.2944 6.68896 22.4245V22.4239ZM8.62427 21.1294C8.62427 21.1294 7.56934 22.1619 7.35238 22.33L8.62427 21.1294Z" fill="#CFB66C"/>
<path fill-rule="evenodd" clip-rule="evenodd" d="M8.62492 21.1294C8.53002 21.2392 8.42827 21.343 8.32028 21.44L8.00028 21.7442C7.89681 21.8477 7.79953 21.9514 7.68967 22.0548C7.57639 22.1519 7.47292 22.2468 7.35303 22.3364L7.66364 22.0322C7.76732 21.9288 7.8806 21.8415 7.99068 21.7378L8.30129 21.4336C8.40796 21.3269 8.51164 21.2233 8.62492 21.1294ZM8.67346 21.6892C8.57622 21.9606 8.46164 22.2254 8.33042 22.4821C8.05863 23.0259 7.65095 23.7054 7.47282 24.0518L8.67346 21.6892Z" fill="#CFB66C"/>
<path fill-rule="evenodd" clip-rule="evenodd" d="M8.67303 21.6893C8.67303 21.809 8.6406 21.9127 8.60177 22.0162C8.56393 22.1197 8.52078 22.2213 8.47249 22.3204C8.42385 22.4174 8.36881 22.5211 8.31377 22.615C8.25873 22.7089 8.19409 22.8057 8.14545 22.903L7.81863 23.479C7.70535 23.671 7.59527 23.8641 7.47559 24.0486C7.55644 23.8414 7.66652 23.6473 7.7702 23.4564C7.88348 23.2644 7.98695 23.0724 8.0902 22.8738C8.14061 22.7748 8.18597 22.6733 8.22609 22.5698C8.27452 22.4661 8.32295 22.369 8.36199 22.2751C8.41041 22.1717 8.44924 22.0744 8.49788 21.9807C8.55271 21.8803 8.59815 21.7832 8.6726 21.6893L8.67303 21.6893Z" fill="#CFB66C"/>
<path fill-rule="evenodd" clip-rule="evenodd" d="M9.82541 24.343C9.82541 24.343 9.50541 24.7669 9.53741 25.3041C9.62466 25.0227 9.73474 24.5922 9.82541 24.343ZM10.1297 24.768C10.1297 24.768 10.0164 25.92 9.92253 26.4864C10.0552 25.8317 10.081 25.8867 10.1297 24.768ZM12.2492 26.5544C12.2492 26.5544 11.7702 27.9624 11.7604 28.3537C11.8641 27.9513 12.0646 27.1294 12.2492 26.5534V26.5544Z" fill="#DEC270"/>
<path fill-rule="evenodd" clip-rule="evenodd" d="M13.3687 24.256C13.3687 24.256 14.1454 25.5375 14.728 26.6312C14.5704 26.0808 14.2077 25.0713 13.3687 24.256Z" fill="#CBAF59"/>
<path fill-rule="evenodd" clip-rule="evenodd" d="M15.4565 26.1425C15.883 26.8963 16.2676 27.6731 16.6085 28.4693C16.5439 27.9191 16.369 26.9774 15.4565 26.1425Z" fill="#E3C677"/>
<path fill-rule="evenodd" clip-rule="evenodd" d="M21.5921 28.032C21.7214 27.9511 21.9771 27.5108 22.2005 27.4009C22.4236 27.2877 22.592 27.2651 22.7927 27.0417C22.9932 26.8085 23.0487 26.6662 23.4884 26.4819C24.1034 26.2163 23.6804 25.8733 23.6804 25.8733C23.7481 25.8067 23.8206 25.7451 23.8971 25.6889C24.0559 25.5693 24.2402 25.4236 24.2242 25.1678C24.2016 24.7375 24.1207 24.1128 23.7679 23.7504C24.1109 23.6791 24.7678 23.6307 25.1759 23.5272C25.6482 23.4073 25.8651 23.239 25.8651 23.239C25.8651 23.239 25.5934 22.7763 26.0335 22.3104C26.4736 21.8445 26.8328 21.5661 27.0982 21.0449C26.794 21.0061 26.3302 20.8444 25.1466 21.2941C25.2105 21.3241 25.2722 21.3587 25.3312 21.3975C25.3312 21.3975 24.6031 21.5983 24.3377 21.8216C23.8747 22.2131 23.8165 22.5335 23.315 22.7731C22.8134 23.0127 22.3084 22.9478 21.8912 23.142C21.4739 23.3361 21.4122 23.5012 21.2599 23.5725C21.2923 23.6113 21.2535 23.6759 21.315 23.731C21.2761 23.786 21.0496 24.1549 20.8198 24.1549C20.8424 24.2423 21.0366 24.307 21.0366 24.307C21.0366 24.307 20.8943 24.4107 20.5318 24.4365C20.7161 24.6285 20.8911 24.8377 21.3732 25.142C21.3344 25.2228 21.1724 25.3427 21.2373 25.4948C21.3086 25.6469 21.4933 25.8541 22.2308 26.0224C21.8553 26.0384 21.4154 26.1259 20.8228 26.045C20.2306 25.9737 20.1335 25.9317 19.7679 26.0224C19.8067 26.0612 19.9102 26.0612 20.0008 26.1647C19.9038 26.1711 19.2953 26.0934 19.0882 26.3654C18.8714 26.6468 18.7776 27.1097 18.7938 27.4204C18.6805 27.4754 18.5704 27.5725 18.6255 27.7732C18.6805 27.974 18.9685 28.0386 19.153 28.1647C19.3374 28.3006 19.3536 28.349 19.5285 28.3168C19.7128 28.278 19.9846 28.0936 20.1433 28.0936C20.302 28.0936 20.4151 28.2133 20.4151 28.2133C20.4151 28.2133 20.8456 28.0062 20.8876 28.045C20.9265 28.0838 20.894 28.333 20.9361 28.3718C20.9787 28.4011 21.4636 28.1131 21.5931 28.032H21.5921Z" fill="#ECD592"/>
<path fill-rule="evenodd" clip-rule="evenodd" d="M31.0002 15.0809C28.9776 9.85769 23.9775 8.89001 23.9775 8.89001H9.71213L9.76717 14.2103H12.6081V26.0907H9.71191V31.4014H23.5826C26.9256 31.4014 29.6052 28.042 29.6052 28.042C33.8964 21.9516 31 15.0809 31 15.0809H31.0002ZM23.6572 24.4627C23.6572 24.4627 22.5692 26.0324 21.3854 26.0324H19.0174L18.9613 14.2233H22.0002C22.0002 14.2233 23.4082 14.5177 24.3919 17.3041C24.3919 17.3041 25.696 21.2934 23.6572 24.4627Z" fill="white" fill-opacity="0.8"/>
</svg>
