<svg width="16" height="17" viewBox="0 0 16 17" fill="none" xmlns="http://www.w3.org/2000/svg">
<path d="M8.00065 15.1668C11.6825 15.1668 14.6673 12.1821 14.6673 8.50016C14.6673 4.81826 11.6825 1.8335 8.00065 1.8335C4.31875 1.8335 1.33398 4.81826 1.33398 8.50016C1.33398 12.1821 4.31875 15.1668 8.00065 15.1668Z" stroke="#8591B1" stroke-linecap="round" stroke-linejoin="round"/>
<path d="M5.33372 2.5H6.00039C4.70039 6.39333 4.70039 10.6067 6.00039 14.5H5.33372" stroke="#8591B1" stroke-linecap="round" stroke-linejoin="round"/>
<path d="M10 2.5C11.3 6.39333 11.3 10.6067 10 14.5" stroke="#8591B1" stroke-linecap="round" stroke-linejoin="round"/>
<path d="M2 11.1667V10.5C5.89333 11.8 10.1067 11.8 14 10.5V11.1667" stroke="#8591B1" stroke-linecap="round" stroke-linejoin="round"/>
<path d="M2 6.4999C5.89333 5.1999 10.1067 5.1999 14 6.4999" stroke="#8591B1" stroke-linecap="round" stroke-linejoin="round"/>
</svg>
