<svg width="21" height="22" viewBox="0 0 21 22" fill="none" xmlns="http://www.w3.org/2000/svg">
<g id="Frame" clip-path="url(#clip0_0_235)">
<path id="Vector" d="M11.2855 10.7319V11.9011C11.2855 12.2548 11.2149 12.5912 11.0866 12.8986C11.0679 12.9434 11.0477 12.9881 11.0275 13.0314C11.0535 12.9795 11.0751 12.9318 11.0924 12.8885C11.0953 12.9015 11.0982 12.9145 11.1025 12.9289C11.1054 12.9376 11.1068 12.9477 11.1097 12.9564C11.3028 13.7748 11.4974 14.5933 11.6905 15.4118C11.705 15.4002 11.7179 15.3872 11.7323 15.3757C11.8102 15.3079 11.8851 15.2371 11.9586 15.1635C12.3809 14.7406 12.7139 14.2469 12.9459 13.6983C13.1867 13.1281 13.3077 12.5247 13.3077 11.9026V10.7333H11.2855V10.7319ZM11.0045 13.0747C11.0073 13.069 11.0102 13.0632 11.0131 13.0574C11.0174 13.0487 11.0218 13.0401 11.0261 13.0314C11.0189 13.0459 11.0117 13.0603 11.0045 13.0747ZM10.9857 13.1094C10.9886 13.1036 10.9915 13.0978 10.9958 13.0921C10.9973 13.0906 10.9973 13.0877 10.9987 13.0863C11.0001 13.0819 11.003 13.0791 11.0045 13.0762C10.9987 13.0863 10.9929 13.0978 10.9857 13.1094ZM10.967 13.1455C10.9699 13.1397 10.9742 13.1339 10.9771 13.1267C10.98 13.1209 10.9828 13.1151 10.9857 13.1108C10.98 13.1224 10.9728 13.1339 10.967 13.1455ZM7.20366 16.2649C7.25555 16.2822 7.30599 16.2996 7.35788 16.3154C7.30744 16.2996 7.25555 16.2837 7.20366 16.2649ZM7.08259 16.2216C7.10997 16.2317 7.13736 16.2418 7.1633 16.2519C7.13592 16.2418 7.10853 16.2317 7.08259 16.2216ZM19.8543 5.10361C19.4406 4.12491 18.8497 3.24725 18.0958 2.49373C17.342 1.74021 16.4657 1.14692 15.4885 0.732634C14.4781 0.302465 13.4043 0.0859375 12.2973 0.0859375C11.1918 0.0859375 10.1166 0.302465 9.10334 0.732634C8.12612 1.14692 7.24978 1.73877 6.4974 2.49373C6.03618 2.95421 5.63548 3.46233 5.29965 4.01231C5.08634 4.3602 4.89896 4.72541 4.73897 5.10506C4.69285 5.21332 4.64961 5.32158 4.60925 5.43129C4.38585 6.03324 4.23306 6.6554 4.15523 7.29055H2.64471C2.07682 7.30354 1.54353 7.53161 1.14284 7.93436C0.770971 8.3039 0.547564 8.79036 0.505765 9.31292C0.502883 9.35478 0.5 9.3952 0.5 9.43706V11.9011C0.5 13.0098 0.716201 14.0852 1.14572 15.0985C1.55938 16.0773 2.15033 16.9549 2.90415 17.7084C3.65797 18.4634 4.53286 19.0552 5.51009 19.4695C6.52191 19.8983 7.5957 20.1162 8.70265 20.1162C8.97074 20.1162 9.23883 20.1032 9.50259 20.0772C9.50259 20.0772 9.50259 20.0772 9.50403 20.0787C10.327 20.9073 11.3807 21.5034 12.5597 21.7662C12.9416 21.8513 13.338 21.9019 13.743 21.9134C13.828 21.9163 13.9189 21.9163 14.0976 21.9163C14.2763 21.9163 14.3671 21.9163 14.4521 21.9134C17.7514 21.8225 20.4078 19.1621 20.4986 15.8578V15.8564C20.5014 15.7712 20.5014 15.6817 20.5014 15.5027V8.30101C20.5 7.19239 20.2824 6.11696 19.8543 5.10361ZM6.11689 9.31292H7.69227V14.2858C7.64903 14.2671 7.60579 14.2483 7.56399 14.2267C7.54237 14.2166 7.52075 14.205 7.49769 14.1935C7.33915 14.1097 7.19213 14.0101 7.0552 13.8975C7.05376 13.8961 7.05088 13.8947 7.04944 13.8932C7.02782 13.8744 7.0062 13.8571 6.98458 13.8369C6.97305 13.8268 6.96152 13.8167 6.94998 13.8052C6.90098 13.759 6.85197 13.7113 6.80729 13.6622C6.80009 13.6536 6.79144 13.6449 6.78423 13.6377C6.76693 13.6189 6.74964 13.6002 6.73378 13.5814C6.72514 13.5713 6.71649 13.5598 6.70784 13.5496C6.69919 13.5395 6.69054 13.528 6.6819 13.5179C6.67325 13.5078 6.66604 13.4962 6.65739 13.4861C6.64875 13.476 6.64154 13.4659 6.63289 13.4544C6.61704 13.4342 6.60262 13.4125 6.58677 13.3923C6.57956 13.3822 6.57235 13.3721 6.56515 13.362C6.55794 13.3519 6.55073 13.3418 6.54497 13.3317C6.52479 13.3028 6.50605 13.2725 6.48732 13.2407C6.48155 13.2306 6.47578 13.2205 6.47002 13.2119C6.45849 13.1931 6.4484 13.1743 6.43831 13.1556C6.43831 13.1556 6.43831 13.1541 6.43687 13.1541C6.4311 13.144 6.42678 13.1354 6.42101 13.1253C6.40948 13.105 6.39939 13.0848 6.3893 13.0646C6.35471 12.9953 6.323 12.9246 6.29418 12.851C6.17743 12.5565 6.11401 12.236 6.11401 11.9011V9.31292H6.11689ZM2.51931 11.9011V9.48181C2.5222 9.38942 2.5957 9.31436 2.68795 9.31292H4.09325V11.9011C4.09325 12.5233 4.21433 13.1267 4.45503 13.6969C4.67844 14.2252 4.99409 14.7001 5.39334 15.113C5.40199 15.1216 5.40919 15.1303 5.41784 15.139C5.42505 15.1476 5.4337 15.1548 5.44235 15.1635C5.77818 15.4998 6.15869 15.7799 6.57524 15.9964C6.58821 16.0036 6.60262 16.0109 6.61559 16.0166C6.63866 16.0282 6.66172 16.0397 6.68478 16.0513C6.70784 16.0628 6.73234 16.0744 6.7554 16.0845C6.77126 16.0917 6.78711 16.0989 6.80297 16.1061C6.82026 16.1133 6.83612 16.1206 6.85342 16.1292C6.87071 16.1364 6.88801 16.1437 6.9053 16.1509C6.9644 16.1769 7.02349 16.2 7.08115 16.2216C7.10853 16.2317 7.13592 16.2418 7.16186 16.2519C7.17483 16.2563 7.18781 16.2606 7.20222 16.2664C7.25411 16.2837 7.30455 16.301 7.35644 16.3169C7.36221 16.3183 7.36941 16.3212 7.37518 16.3227C7.38094 16.3241 7.38815 16.327 7.39392 16.3284C7.40401 16.3313 7.41265 16.3342 7.42274 16.3371C7.43716 16.3414 7.45301 16.3457 7.46742 16.3501C7.54526 16.3717 7.62021 16.3905 7.68795 16.4064C7.6966 16.4078 7.70525 16.4107 7.71389 16.4121C7.71966 16.4136 7.72542 16.415 7.73119 16.4165C7.73119 16.4165 7.73119 16.4223 7.73263 16.4324C7.73551 16.4555 7.74128 16.5002 7.74704 16.5493C7.74993 16.5652 7.75137 16.5825 7.75425 16.5984C7.75569 16.6114 7.75858 16.6243 7.76002 16.6359C7.76146 16.6446 7.7629 16.6518 7.76434 16.6604C7.76578 16.6677 7.76722 16.6749 7.76722 16.6821C7.76722 16.6835 7.76722 16.685 7.76722 16.685C7.76722 16.6908 7.76866 16.6951 7.77011 16.7009C7.77155 16.7066 7.77155 16.711 7.77299 16.7167C7.77731 16.7456 7.78164 16.7716 7.78596 16.7961C7.79173 16.825 7.79749 16.8553 7.80182 16.8842C7.80326 16.8928 7.8047 16.9029 7.80758 16.9102C7.81046 16.9217 7.8119 16.9333 7.81479 16.9448C7.81479 16.9477 7.81623 16.952 7.81623 16.9549C7.81623 16.9578 7.81767 16.9607 7.81911 16.965C7.82055 16.9737 7.82344 16.9823 7.82488 16.991C7.82632 16.9953 7.82632 17.0011 7.82776 17.0054C7.82776 17.0054 7.82776 17.0054 7.82776 17.0069C7.83064 17.0213 7.83497 17.0372 7.83785 17.0531C7.83785 17.056 7.83929 17.0603 7.84073 17.0632C7.84361 17.0776 7.84794 17.092 7.85082 17.1065C7.85514 17.1238 7.85947 17.1411 7.86235 17.157C7.86379 17.1642 7.86668 17.1729 7.86812 17.1801C7.87821 17.2191 7.88685 17.2552 7.8955 17.2884C7.90127 17.3086 7.90559 17.3288 7.91136 17.3476C7.91856 17.3721 7.92433 17.3966 7.93154 17.4183C7.93298 17.4255 7.9373 17.4356 7.94018 17.45C7.94163 17.4558 7.94451 17.4616 7.94595 17.4688C7.94883 17.4789 7.95171 17.489 7.95604 17.502C7.95892 17.5107 7.96036 17.5179 7.96324 17.5265C7.96757 17.5395 7.97189 17.5525 7.97622 17.567C7.97766 17.5713 7.9791 17.5756 7.98054 17.5814C7.98198 17.5857 7.98342 17.5886 7.98486 17.593C7.98775 17.6002 7.98919 17.6088 7.99207 17.616C7.99351 17.6204 7.99495 17.6247 7.9964 17.629C8.00072 17.642 8.00504 17.6536 8.00793 17.6666C8.01225 17.6796 8.01802 17.694 8.02234 17.7084C8.02522 17.7171 8.02811 17.7258 8.03099 17.7359C8.03243 17.7402 8.03387 17.746 8.03531 17.7503C8.04108 17.7662 8.0454 17.7806 8.05117 17.7965C8.05837 17.8181 8.06702 17.8412 8.07711 17.8658C8.08576 17.8889 8.09441 17.9134 8.10306 17.9365C8.1117 17.9582 8.12035 17.9798 8.129 18.0029C8.13332 18.0159 8.13909 18.0274 8.14341 18.0404C8.14774 18.0534 8.1535 18.0664 8.15927 18.0794C5.00562 17.795 2.51931 15.1332 2.51931 11.9011ZM9.71303 14.283V9.31436H11.2163C11.2178 9.31436 11.2192 9.31436 11.2207 9.31436C11.2567 9.3158 11.287 9.34612 11.287 9.38365V11.9011C11.287 12.2548 11.2163 12.5912 11.0881 12.8986C11.0693 12.9434 11.0491 12.9881 11.029 13.0314C11.0218 13.0459 11.0146 13.0603 11.0073 13.0747V13.0762C11.0016 13.0877 10.9958 13.0993 10.9901 13.1094V13.1108C10.9843 13.1224 10.9771 13.1339 10.9713 13.1455C10.9641 13.1599 10.9569 13.1729 10.9483 13.1859C10.9439 13.1931 10.9396 13.2003 10.9353 13.2075C10.931 13.2133 10.9281 13.2205 10.9238 13.2263C10.9151 13.2422 10.905 13.2581 10.8949 13.2739C10.8906 13.2812 10.8848 13.2898 10.8805 13.297C10.8704 13.3129 10.8603 13.3288 10.8488 13.3447C10.8402 13.3577 10.8315 13.3707 10.8229 13.3836C10.8142 13.3952 10.807 13.4053 10.7984 13.4168C10.7969 13.4197 10.7955 13.4212 10.7926 13.4241C10.5202 13.7979 10.1498 14.0967 9.72023 14.2815C9.71591 14.2815 9.71447 14.283 9.71303 14.283ZM10.3227 17.8701C10.0532 17.4241 9.86149 16.9232 9.77212 16.3891C9.77356 16.3891 9.77645 16.3876 9.77933 16.3876C9.78509 16.3862 9.79086 16.3847 9.79807 16.3833C9.81536 16.3789 9.8341 16.3746 9.85284 16.3688C9.86869 16.3645 9.88455 16.3602 9.90184 16.3559C9.91337 16.353 9.9249 16.3501 9.93644 16.3457C9.97823 16.3342 10.0229 16.3212 10.0662 16.3068C10.0849 16.301 10.1036 16.2952 10.1238 16.288C10.1627 16.275 10.2016 16.262 10.242 16.2476C10.2535 16.2433 10.2636 16.2389 10.2752 16.236C10.3501 16.2086 10.4236 16.1797 10.4957 16.148C10.9324 15.9632 11.3317 15.7149 11.6905 15.4075C11.705 15.3959 11.7179 15.3829 11.7323 15.3714C11.8102 15.3035 11.8851 15.2328 11.9586 15.1592C12.3809 14.7362 12.7139 14.2425 12.9459 13.694C13.1867 13.1238 13.3077 12.5204 13.3077 11.8983V9.38221C13.3077 9.35911 13.3077 9.33746 13.3063 9.31436C13.2688 8.1913 12.3464 7.2891 11.2163 7.2891H9.9177C10.3112 6.36236 11.2308 5.71134 12.2973 5.71134C12.3838 5.71134 12.4674 5.71567 12.5525 5.72433C13.3279 5.80083 14.0024 6.2209 14.4233 6.83006C14.713 7.24868 14.8831 7.75536 14.8831 8.30245V11.9026C14.8831 14.7535 12.9488 17.1599 10.327 17.8773C10.3242 17.8744 10.3242 17.8715 10.3227 17.8701ZM18.4792 15.5013C18.4792 15.6615 18.4792 15.7424 18.4778 15.8015C18.4158 18.0318 16.6228 19.8275 14.3945 19.8896C14.3368 19.891 14.2561 19.891 14.0961 19.891C13.9361 19.891 13.8554 19.891 13.7978 19.8896C13.7632 19.8881 13.7286 19.8867 13.6954 19.8853C13.0843 19.8549 12.5078 19.6918 11.9947 19.4262C12.933 19.0148 13.7747 18.4374 14.5012 17.707C15.255 16.952 15.8459 16.0744 16.2596 15.0971C16.6877 14.0838 16.9053 13.0083 16.9053 11.8997V8.30101C16.9053 7.67885 16.7842 7.07546 16.5435 6.50527C16.3115 5.95673 15.9785 5.46305 15.5562 5.0401C15.2204 4.70376 14.8413 4.42516 14.4248 4.20863C14.3167 4.15233 14.2057 4.10037 14.0933 4.05129C13.6046 3.84486 13.0886 3.72505 12.5597 3.69618C12.4732 3.69185 12.3882 3.68896 12.3017 3.68896C11.6805 3.68896 11.078 3.81022 10.5086 4.05129C9.96094 4.28369 9.468 4.61715 9.04569 5.0401C8.62338 5.46305 8.29043 5.95673 8.05837 6.50527C7.95171 6.75933 7.86668 7.02205 7.80758 7.2891H6.19761C6.30571 6.62797 6.52047 6.00293 6.82026 5.42985C7.09412 4.90874 7.4386 4.43093 7.84361 4.01087C8.9693 2.84017 10.5504 2.10975 12.2973 2.10975C15.7061 2.10975 18.4792 4.88708 18.4792 8.30101V15.5013ZM7.08259 16.2216C7.10997 16.2317 7.13736 16.2418 7.1633 16.2519C7.13592 16.2418 7.10853 16.2317 7.08259 16.2216ZM7.20366 16.2649C7.25555 16.2822 7.30599 16.2996 7.35788 16.3154C7.30744 16.2996 7.25555 16.2837 7.20366 16.2649ZM7.37662 16.3212C7.38239 16.3226 7.38959 16.3255 7.39536 16.327C7.40545 16.3299 7.4141 16.3328 7.42418 16.3356C7.40833 16.3299 7.39248 16.3255 7.37662 16.3212ZM10.9857 13.1094C10.9785 13.1224 10.9728 13.1339 10.967 13.1455C10.9699 13.1397 10.9742 13.1339 10.9771 13.1267C10.9843 13.1151 10.9901 13.1036 10.9958 13.0906C10.9973 13.0892 10.9973 13.0863 10.9987 13.0848C11.0001 13.0805 11.003 13.0776 11.0045 13.0747C10.9987 13.0863 10.9929 13.0978 10.9857 13.1094ZM11.2855 10.7319V11.9011C11.2855 12.2548 11.2149 12.5912 11.0866 12.8986C11.0679 12.9434 11.0477 12.9881 11.0275 13.0314C11.0535 12.9795 11.0751 12.9318 11.0924 12.8885C11.0953 12.9015 11.0982 12.9145 11.1025 12.9289C11.1054 12.9376 11.1068 12.9477 11.1097 12.9564C11.3028 13.7748 11.4974 14.5933 11.6905 15.4118C11.705 15.4002 11.7179 15.3872 11.7323 15.3757C11.8102 15.3079 11.8851 15.2371 11.9586 15.1635C12.3809 14.7406 12.7139 14.2469 12.9459 13.6983C13.1867 13.1281 13.3077 12.5247 13.3077 11.9026V10.7333H11.2855V10.7319ZM11.0045 13.0747C11.0073 13.069 11.0102 13.0632 11.0131 13.0574C11.0174 13.0487 11.0218 13.0401 11.0261 13.0314C11.0189 13.0459 11.0117 13.0603 11.0045 13.0747ZM7.08259 16.2216C7.10997 16.2317 7.13736 16.2418 7.1633 16.2519C7.13592 16.2418 7.10853 16.2317 7.08259 16.2216ZM7.20366 16.2649C7.25555 16.2822 7.30599 16.2996 7.35788 16.3154C7.30744 16.2996 7.25555 16.2837 7.20366 16.2649ZM11.2855 10.7319V11.9011C11.2855 12.2548 11.2149 12.5912 11.0866 12.8986C11.0679 12.9434 11.0477 12.9881 11.0275 13.0314C11.0535 12.9795 11.0751 12.9318 11.0924 12.8885C11.0953 12.9015 11.0982 12.9145 11.1025 12.9289C11.1054 12.9376 11.1068 12.9477 11.1097 12.9564C11.3028 13.7748 11.4974 14.5933 11.6905 15.4118C11.705 15.4002 11.7179 15.3872 11.7323 15.3757C11.8102 15.3079 11.8851 15.2371 11.9586 15.1635C12.3809 14.7406 12.7139 14.2469 12.9459 13.6983C13.1867 13.1281 13.3077 12.5247 13.3077 11.9026V10.7333H11.2855V10.7319ZM11.0045 13.0747C11.0073 13.069 11.0102 13.0632 11.0131 13.0574C11.0174 13.0487 11.0218 13.0401 11.0261 13.0314C11.0189 13.0459 11.0117 13.0603 11.0045 13.0747ZM10.9857 13.1094C10.9886 13.1036 10.9915 13.0978 10.9958 13.0921C10.9973 13.0906 10.9973 13.0877 10.9987 13.0863C11.0001 13.0819 11.003 13.0791 11.0045 13.0762C10.9987 13.0863 10.9929 13.0978 10.9857 13.1094ZM10.967 13.1455C10.9699 13.1397 10.9742 13.1339 10.9771 13.1267C10.98 13.1209 10.9828 13.1151 10.9857 13.1108C10.98 13.1224 10.9728 13.1339 10.967 13.1455Z" fill="url(#paint0_linear_0_235)"/>
<path id="Vector_2" d="M7.84374 4.01048C7.44016 4.43054 7.09424 4.90835 6.82039 5.42946C6.46149 5.42801 6.10404 5.42657 5.74659 5.42657C5.36752 5.42657 4.98845 5.42657 4.60938 5.42801C4.64973 5.31831 4.69297 5.21004 4.7391 5.10178C4.89908 4.72213 5.08646 4.35692 5.29978 4.00903H7.84374V4.01048Z" fill="url(#paint1_linear_0_235)"/>
<path id="Vector_3" d="M14.4236 6.82797C14.0027 6.21881 13.3267 5.79874 12.5527 5.72224C12.5527 5.64284 12.5542 5.57933 12.5542 5.48117C12.5585 4.86912 12.5599 4.29027 12.5556 3.69409C13.086 3.72296 13.602 3.84277 14.0892 4.0492C14.2016 4.09683 14.3126 4.1488 14.4207 4.20654C14.4178 5.19968 14.425 5.85937 14.4236 6.82797Z" fill="url(#paint2_linear_0_235)" fill-opacity="0.71"/>
<path id="Vector_4" d="M7.80049 7.28906C7.76446 7.47816 7.69671 7.86503 7.69671 8.15229C7.69671 8.53915 7.69671 8.92601 7.6996 9.31288C7.44304 9.31576 7.18504 9.31721 6.92416 9.31576C6.69787 9.31576 6.47302 9.31432 6.24817 9.31288C6.25682 8.63731 6.26547 7.96463 6.27411 7.28906C6.74831 7.28906 7.32485 7.28906 7.80049 7.28906Z" fill="url(#paint3_linear_0_235)"/>
<path id="Vector_5" d="M11.7279 15.3742C11.7135 15.3857 11.7005 15.3987 11.6861 15.4103C11.3272 15.7177 10.9279 15.9646 10.4912 16.1508C10.4177 16.1826 10.3442 16.2114 10.2707 16.2389C10.2592 16.2432 10.2476 16.2475 10.2375 16.2504C10.1972 16.2648 10.1583 16.2778 10.1193 16.2908C10.1006 16.2966 10.0819 16.3024 10.0617 16.3096C10.017 16.324 9.97377 16.3356 9.93197 16.3486C9.92044 16.3515 9.90891 16.3543 9.89738 16.3587C9.88152 16.363 9.86423 16.3673 9.84837 16.3717C9.82964 16.376 9.81234 16.3818 9.7936 16.3861C9.78784 16.3875 9.78207 16.389 9.77487 16.3904C9.77198 16.3904 9.77054 16.3919 9.76766 16.3919C9.73451 16.0801 9.71001 15.7437 9.69848 15.3872C9.6855 14.996 9.69127 14.6264 9.70856 14.2858C9.71001 14.2843 9.71145 14.2843 9.71289 14.2829C10.1424 14.0981 10.5128 13.7993 10.7852 13.4254C10.7867 13.4226 10.7896 13.4211 10.791 13.4182C10.7997 13.4067 10.8069 13.3966 10.8155 13.385C10.8242 13.372 10.8342 13.359 10.8415 13.346C10.853 13.3302 10.8631 13.3143 10.8732 13.2984C10.8789 13.2912 10.8833 13.2825 10.8876 13.2753C10.8977 13.2594 10.9078 13.2436 10.9164 13.2277C10.9207 13.2219 10.9236 13.2147 10.9279 13.2089C10.9323 13.2017 10.9366 13.1945 10.9409 13.1873C10.9481 13.1743 10.9568 13.1598 10.964 13.1468C10.9697 13.1353 10.9769 13.1237 10.9827 13.1122V13.1108C10.9885 13.0992 10.9942 13.0877 11 13.0776V13.0761C11.0072 13.0617 11.0144 13.0472 11.0216 13.0328C11.0432 12.9895 11.062 12.9447 11.0807 12.9C11.0822 12.8957 11.0836 12.8928 11.085 12.8899C11.0879 12.9029 11.0908 12.9159 11.0951 12.9303C11.098 12.939 11.0995 12.9491 11.1023 12.9577C11.245 13.5366 11.5405 14.664 11.7279 15.3742Z" fill="url(#paint4_linear_0_235)"/>
<path id="Vector_6" d="M7.69336 14.2842V14.2815C7.6947 14.2828 7.6947 14.2842 7.69336 14.2842Z" fill="url(#paint5_linear_0_235)"/>
<path id="Vector_7" d="M7.73238 16.4117C7.72661 16.4102 7.72085 16.4088 7.71508 16.4073C7.70644 16.4059 7.69779 16.403 7.68914 16.4016C7.61996 16.3857 7.54645 16.3684 7.46862 16.3453C7.4542 16.3409 7.43979 16.3366 7.42393 16.3323C7.41384 16.3294 7.4052 16.3265 7.39511 16.3236C7.38934 16.3222 7.38214 16.3193 7.37637 16.3178C7.3706 16.3164 7.3634 16.3135 7.35763 16.3121C7.30574 16.2962 7.25386 16.2789 7.20341 16.2615C7.19044 16.2572 7.17747 16.2529 7.16305 16.2471C7.13567 16.237 7.10828 16.2283 7.08234 16.2168C7.02468 16.1951 6.96703 16.172 6.90649 16.1461C6.8892 16.1388 6.8719 16.1316 6.85461 16.1244C6.83731 16.1172 6.82001 16.11 6.80416 16.1013C6.7883 16.0941 6.77245 16.0869 6.7566 16.0797C6.73353 16.0681 6.70903 16.058 6.68597 16.0465C6.66291 16.0349 6.63985 16.0234 6.61679 16.0118C6.60381 16.0046 6.5894 15.9974 6.57643 15.9916C6.15988 15.7751 5.77937 15.495 5.44354 15.1587C5.43489 15.15 5.42768 15.1428 5.41903 15.1342C5.41039 15.1255 5.40318 15.1168 5.39453 15.1082C5.73325 14.2551 6.13394 13.2417 6.28816 12.8289C6.2896 12.8346 6.29248 12.8404 6.29681 12.8462C6.32564 12.9184 6.35734 12.9891 6.39194 13.0598C6.40203 13.08 6.41212 13.1002 6.42365 13.1204C6.42797 13.1291 6.43374 13.1392 6.4395 13.1493C6.4395 13.1493 6.4395 13.1508 6.44094 13.1508C6.45103 13.1695 6.46112 13.1883 6.47265 13.2071C6.47842 13.2172 6.48418 13.2273 6.48995 13.2359C6.50868 13.2662 6.52742 13.2966 6.5476 13.3269C6.55481 13.337 6.56057 13.3471 6.56778 13.3572C6.57499 13.3673 6.58219 13.3774 6.5894 13.3875C6.60381 13.4092 6.61967 13.4294 6.63552 13.4496C6.64273 13.4597 6.65138 13.4698 6.66003 13.4813C6.66867 13.4914 6.67588 13.503 6.68453 13.5131C6.69318 13.5232 6.70182 13.5347 6.71047 13.5448C6.71912 13.5549 6.72777 13.5665 6.73642 13.5766C6.75227 13.5954 6.76957 13.6141 6.78686 13.6329C6.79407 13.6416 6.80128 13.6502 6.80992 13.6574C6.85605 13.7065 6.90361 13.7542 6.95262 13.8003C6.96415 13.8105 6.97568 13.822 6.98721 13.8321C7.00883 13.8509 7.03045 13.8696 7.05207 13.8884C7.05351 13.8898 7.05639 13.8913 7.05783 13.8927C7.19476 14.0053 7.34322 14.1049 7.50033 14.1887C7.52339 14.2002 7.54501 14.2117 7.56663 14.2219C7.60843 14.2421 7.65167 14.2623 7.69491 14.281C7.6704 14.6203 7.65743 14.9941 7.66608 15.394C7.67329 15.7621 7.69779 16.0999 7.73238 16.4117Z" fill="url(#paint6_linear_0_235)"/>
<path id="Vector_8" d="M13.6934 19.8863C13.4945 20.2067 12.9958 21.0353 12.5576 21.7657C11.3786 21.503 10.325 20.9054 9.50195 20.0783C9.53222 20.0739 10.1621 19.9787 10.5138 19.8964C11.0759 19.765 11.5703 19.599 11.9911 19.4272C12.5057 19.6929 13.0822 19.8545 13.6934 19.8863Z" fill="url(#paint7_linear_0_235)"/>
<path id="Vector_9" d="M10.3259 17.8757C10.0564 17.9565 9.7263 18.0316 9.34723 18.072C8.886 18.1211 8.48243 18.1052 8.16245 18.0691C8.15669 18.0561 8.15236 18.0431 8.1466 18.0301C8.14083 18.0171 8.13651 18.0056 8.13218 17.9926C8.10336 17.919 8.07741 17.8497 8.05435 17.7876C8.04859 17.7717 8.04282 17.7573 8.0385 17.7414C8.03706 17.7371 8.03561 17.7313 8.03417 17.727C8.03129 17.7183 8.02841 17.7082 8.02552 17.6996C8.0212 17.6851 8.01544 17.6707 8.01111 17.6577C8.00679 17.6447 8.00246 17.6332 7.99958 17.6202C7.99814 17.6158 7.9967 17.6115 7.99526 17.6072C7.99237 17.6 7.99093 17.5913 7.98805 17.5841C7.98661 17.5798 7.98517 17.5769 7.98373 17.5725C7.98229 17.5682 7.98084 17.5624 7.9794 17.5581C7.97508 17.5437 7.97075 17.5307 7.96643 17.5177C7.96355 17.509 7.96211 17.5018 7.95922 17.4931C7.9549 17.4816 7.95202 17.47 7.94913 17.4599C7.94769 17.4542 7.94481 17.447 7.94337 17.4412C7.93905 17.4267 7.93616 17.4166 7.93472 17.4094C7.92896 17.3878 7.92175 17.3647 7.91454 17.3387C7.90878 17.3199 7.90445 17.3012 7.89869 17.2795C7.89004 17.2463 7.87995 17.2088 7.8713 17.1712C7.86986 17.164 7.86698 17.1554 7.86554 17.1481C7.86121 17.1308 7.85689 17.1149 7.85401 17.0976C7.85256 17.0904 7.85112 17.0832 7.84824 17.076C7.8468 17.0688 7.84536 17.0615 7.84392 17.0543C7.84248 17.0514 7.84248 17.0471 7.84103 17.0442C7.83671 17.0269 7.83383 17.0125 7.83094 16.998C7.83094 16.998 7.83094 16.998 7.83094 16.9966C7.8295 16.9922 7.8295 16.9865 7.82806 16.9821C7.82518 16.972 7.82374 16.9634 7.8223 16.9562C7.82086 16.9518 7.82086 16.9489 7.81941 16.9461C7.81941 16.9432 7.81797 16.9388 7.81797 16.9359C7.81509 16.9258 7.81365 16.9143 7.81077 16.9013C7.80932 16.8926 7.80788 16.884 7.805 16.8753C7.80068 16.8493 7.79491 16.8205 7.78915 16.7873C7.78482 16.7627 7.7805 16.7353 7.77617 16.7079C7.77473 16.7035 7.77473 16.6978 7.77329 16.692C7.77185 16.6862 7.77185 16.6819 7.77041 16.6761C7.77041 16.6747 7.77041 16.6747 7.77041 16.6732C7.76897 16.666 7.76753 16.6588 7.76753 16.6516C7.76608 16.6429 7.76464 16.6357 7.7632 16.627C7.76176 16.6155 7.75888 16.6025 7.75744 16.5895C7.75455 16.5736 7.75311 16.5563 7.75023 16.5404C7.74302 16.4913 7.7387 16.4466 7.73582 16.4235C7.73438 16.4134 7.73438 16.4076 7.73438 16.4076L9.77387 16.3845C9.86467 16.9186 10.0549 17.4195 10.3245 17.8656C10.3245 17.8713 10.3245 17.8742 10.3259 17.8757Z" fill="url(#paint8_linear_0_235)"/>
<path id="Vector_10" d="M2.68795 9.31274C2.59571 9.31419 2.5222 9.38925 2.51931 9.48164V10.7317H0.5V9.43689C0.501441 9.39502 0.502883 9.35316 0.505765 9.31274H2.68795Z" fill="url(#paint9_linear_0_235)"/>
<path id="Vector_11" d="M13.3058 9.38181V10.7315H11.2851V9.38325C11.2851 9.34572 11.2548 9.31541 11.2188 9.31396H13.3044C13.3058 9.33562 13.3058 9.35871 13.3058 9.38181Z" fill="url(#paint10_linear_0_235)"/>
</g>
<defs>
<linearGradient id="paint0_linear_0_235" x1="21.1315" y1="13.7899" x2="1.99642" y2="7.17052" gradientUnits="userSpaceOnUse">
<stop stop-color="#00FFFF"/>
<stop offset="1" stop-color="#0152FF"/>
</linearGradient>
<linearGradient id="paint1_linear_0_235" x1="6.10918" y1="4.03985" x2="6.39284" y2="5.67108" gradientUnits="userSpaceOnUse">
<stop stop-color="#004ABE"/>
<stop offset="1" stop-color="#0164FF" stop-opacity="0"/>
</linearGradient>
<linearGradient id="paint2_linear_0_235" x1="12.5203" y1="5.26479" x2="13.9913" y2="5.25911" gradientUnits="userSpaceOnUse">
<stop stop-color="#003992"/>
<stop offset="1" stop-color="#00B8FF" stop-opacity="0"/>
</linearGradient>
<linearGradient id="paint3_linear_0_235" x1="7.83308" y1="8.30434" x2="6.23344" y2="8.29701" gradientUnits="userSpaceOnUse">
<stop stop-color="#003992"/>
<stop offset="1" stop-color="#0164FF" stop-opacity="0"/>
</linearGradient>
<linearGradient id="paint4_linear_0_235" x1="11.4815" y1="14.6881" x2="9.56947" y2="14.5988" gradientUnits="userSpaceOnUse">
<stop stop-color="#00B5FF" stop-opacity="0"/>
<stop offset="1" stop-color="#003992"/>
</linearGradient>
<linearGradient id="paint5_linear_0_235" x1="7.69372" y1="14.283" x2="7.69287" y2="14.2831" gradientUnits="userSpaceOnUse">
<stop stop-color="#9B3F00"/>
<stop offset="0.2168" stop-color="#AB4500" stop-opacity="0.7832"/>
<stop offset="0.641" stop-color="#D65600" stop-opacity="0.359"/>
<stop offset="1" stop-color="#FF6600" stop-opacity="0"/>
</linearGradient>
<linearGradient id="paint6_linear_0_235" x1="7.69787" y1="14.7868" x2="5.42882" y2="14.2477" gradientUnits="userSpaceOnUse">
<stop stop-color="#003992"/>
<stop offset="0.3315" stop-color="#0056BC" stop-opacity="0.653"/>
<stop offset="0.7479" stop-color="#0176EC" stop-opacity="0.2171"/>
<stop offset="0.9553" stop-color="#0183FF" stop-opacity="0"/>
</linearGradient>
<linearGradient id="paint7_linear_0_235" x1="12.1307" y1="21.5103" x2="11.3997" y2="19.4192" gradientUnits="userSpaceOnUse">
<stop offset="0.219" stop-color="#00D6FF" stop-opacity="0"/>
<stop offset="0.9001" stop-color="#003992"/>
</linearGradient>
<linearGradient id="paint8_linear_0_235" x1="9.13266" y1="18.194" x2="8.93393" y2="16.1812" gradientUnits="userSpaceOnUse">
<stop offset="0.00559998" stop-color="#003992"/>
<stop offset="0.2157" stop-color="#0059B4" stop-opacity="0.7589"/>
<stop offset="0.5073" stop-color="#0180DC" stop-opacity="0.4243"/>
<stop offset="0.7379" stop-color="#0198F6" stop-opacity="0.1597"/>
<stop offset="0.8771" stop-color="#01A1FF" stop-opacity="0"/>
</linearGradient>
<linearGradient id="paint9_linear_0_235" x1="1.59683" y1="10.7603" x2="1.59116" y2="9.29767" gradientUnits="userSpaceOnUse">
<stop stop-color="#0164FF" stop-opacity="0"/>
<stop offset="1" stop-color="#003992"/>
</linearGradient>
<linearGradient id="paint10_linear_0_235" x1="12.2596" y1="10.7603" x2="12.2653" y2="9.29922" gradientUnits="userSpaceOnUse">
<stop stop-color="#00B2FF" stop-opacity="0"/>
<stop offset="1" stop-color="#003992"/>
</linearGradient>
<clipPath id="clip0_0_235">
<rect width="20" height="21.8289" fill="white" transform="translate(0.5 0.0854492)"/>
</clipPath>
</defs>
</svg>
