<svg width="46" height="51" viewBox="0 0 46 51" fill="none" xmlns="http://www.w3.org/2000/svg">
<g clip-path="url(#clip0_0_143)">
<path d="M24.6856 25.143V27.8191C24.6856 28.6286 24.5239 29.3984 24.2303 30.1021C24.1874 30.2045 24.1413 30.307 24.0951 30.4061C24.1544 30.2871 24.2039 30.1781 24.2435 30.079C24.2501 30.1087 24.2567 30.1385 24.2666 30.1715C24.2732 30.1913 24.2765 30.2144 24.2831 30.2343C24.7252 32.1076 25.1705 33.9809 25.6126 35.8542C25.6455 35.8277 25.6752 35.798 25.7082 35.7716C25.8864 35.6163 26.0579 35.4544 26.2261 35.2859C27.1927 34.3179 27.9548 33.1879 28.4859 31.9325C29.0368 30.6274 29.3139 29.2464 29.3139 27.8224V25.1463H24.6856V25.143ZM24.0423 30.5052C24.0489 30.492 24.0555 30.4788 24.0621 30.4655C24.072 30.4457 24.0819 30.4259 24.0918 30.4061C24.0753 30.4391 24.0588 30.4721 24.0423 30.5052ZM23.9994 30.5845C24.006 30.5713 24.0126 30.5581 24.0225 30.5448C24.0258 30.5415 24.0258 30.5349 24.0291 30.5316C24.0324 30.5217 24.039 30.5151 24.0423 30.5085C24.0291 30.5316 24.0159 30.5581 23.9994 30.5845ZM23.9565 30.6671C23.9631 30.6539 23.973 30.6406 23.9796 30.6241C23.9862 30.6109 23.9928 30.5977 23.9994 30.5878C23.9862 30.6142 23.9697 30.6406 23.9565 30.6671ZM15.3431 37.8068C15.4619 37.8464 15.5773 37.8861 15.6961 37.9224C15.5806 37.8861 15.4619 37.8497 15.3431 37.8068ZM15.066 37.7077C15.1287 37.7308 15.1914 37.7539 15.2508 37.777C15.1881 37.7539 15.1254 37.7308 15.066 37.7077ZM44.2975 12.2612C43.3507 10.0211 41.9981 8.01236 40.2728 6.28773C38.5475 4.5631 36.5418 3.20521 34.3051 2.25699C31.9926 1.27244 29.5349 0.776855 27.0014 0.776855C24.4711 0.776855 22.0102 1.27244 19.6911 2.25699C17.4544 3.20521 15.4487 4.5598 13.7267 6.28773C12.671 7.34167 11.7539 8.50464 10.9853 9.76342C10.4971 10.5597 10.0682 11.3955 9.70203 12.2645C9.59646 12.5122 9.4975 12.76 9.40513 13.0111C8.8938 14.3889 8.54412 15.8128 8.36598 17.2665H4.90874C3.60898 17.2963 2.38839 17.8183 1.4713 18.7401C0.620191 19.5859 0.108863 20.6993 0.0131955 21.8953C0.00659777 21.9911 0 22.0836 0 22.1794V27.8191C0 30.3565 0.494833 32.8179 1.4779 35.1372C2.42468 37.3773 3.77723 39.386 5.50254 41.1107C7.22786 42.8386 9.23028 44.1932 11.4669 45.1414C13.7827 46.1226 16.2404 46.6215 18.774 46.6215C19.3876 46.6215 20.0011 46.5918 20.6048 46.5323C20.6048 46.5323 20.6048 46.5323 20.6081 46.5356C22.4918 48.4321 24.9033 49.7966 27.6018 50.3979C28.476 50.5928 29.3832 50.7084 30.3102 50.7349C30.5048 50.7415 30.7126 50.7415 31.1217 50.7415C31.5308 50.7415 31.7386 50.7415 31.9332 50.7349C39.4844 50.5267 45.5642 44.4377 45.7721 36.8751V36.8718C45.7786 36.6768 45.7786 36.472 45.7786 36.0623V19.5792C45.7753 17.0419 45.2772 14.5805 44.2975 12.2612ZM12.8558 21.8953H16.4614V33.2771C16.3625 33.2342 16.2635 33.1912 16.1678 33.1417C16.1184 33.1186 16.0689 33.0921 16.0161 33.0657C15.6532 32.8741 15.3167 32.6461 15.0033 32.3884C15 32.3851 14.9934 32.3818 14.9901 32.3785C14.9407 32.3355 14.8912 32.2959 14.8417 32.2496C14.8153 32.2265 14.7889 32.2034 14.7625 32.177C14.6504 32.0712 14.5382 31.9622 14.4359 31.8499C14.4194 31.83 14.3996 31.8102 14.3831 31.7937C14.3436 31.7508 14.304 31.7078 14.2677 31.6649C14.2479 31.6417 14.2281 31.6153 14.2083 31.5922C14.1885 31.569 14.1687 31.5426 14.1489 31.5195C14.1291 31.4964 14.1126 31.4699 14.0928 31.4468C14.0731 31.4237 14.0566 31.4005 14.0368 31.3741C14.0005 31.3279 13.9675 31.2783 13.9312 31.232C13.9147 31.2089 13.8982 31.1858 13.8817 31.1627C13.8652 31.1395 13.8487 31.1164 13.8355 31.0933C13.7893 31.0272 13.7465 30.9578 13.7036 30.8851C13.6904 30.862 13.6772 30.8389 13.664 30.8191C13.6376 30.7761 13.6145 30.7332 13.5914 30.6902C13.5914 30.6902 13.5914 30.6869 13.5881 30.6869C13.5749 30.6638 13.565 30.644 13.5518 30.6208C13.5254 30.5746 13.5023 30.5283 13.4793 30.4821C13.4001 30.3235 13.3275 30.1616 13.2615 29.9931C12.9943 29.3191 12.8492 28.5856 12.8492 27.8191V21.8953H12.8558ZM4.62174 27.8191V22.2818C4.62834 22.0704 4.79658 21.8986 5.00771 21.8953H8.22412V27.8191C8.22412 29.2431 8.50123 30.6241 9.05214 31.9292C9.56347 33.1384 10.2859 34.2254 11.1997 35.1703C11.2195 35.1901 11.236 35.2099 11.2558 35.2297C11.2723 35.2496 11.2921 35.2661 11.3119 35.2859C12.0805 36.0557 12.9514 36.6967 13.9048 37.1922C13.9345 37.2088 13.9675 37.2253 13.9972 37.2385C14.05 37.2649 14.1027 37.2914 14.1555 37.3178C14.2083 37.3442 14.2644 37.3707 14.3172 37.3938C14.3535 37.4103 14.3897 37.4268 14.426 37.4433C14.4656 37.4599 14.5019 37.4764 14.5415 37.4962C14.5811 37.5127 14.6207 37.5292 14.6603 37.5458C14.7955 37.6052 14.9308 37.6581 15.0627 37.7077C15.1254 37.7308 15.1881 37.7539 15.2475 37.777C15.2771 37.7869 15.3068 37.7969 15.3398 37.8101C15.4586 37.8497 15.574 37.8894 15.6928 37.9257C15.706 37.929 15.7225 37.9356 15.7357 37.9389C15.7489 37.9422 15.7654 37.9488 15.7786 37.9521C15.8017 37.9587 15.8215 37.9654 15.8446 37.972C15.8775 37.9819 15.9138 37.9918 15.9468 38.0017C16.125 38.0513 16.2965 38.0942 16.4515 38.1305C16.4713 38.1339 16.4911 38.1405 16.5109 38.1438C16.5241 38.1471 16.5373 38.1504 16.5505 38.1537C16.5505 38.1537 16.5505 38.1669 16.5538 38.19C16.5604 38.2429 16.5736 38.3453 16.5868 38.4576C16.5934 38.494 16.5967 38.5336 16.6033 38.57C16.6066 38.5997 16.6132 38.6294 16.6165 38.6559C16.6198 38.6757 16.6231 38.6922 16.6264 38.712C16.6297 38.7285 16.633 38.7451 16.633 38.7616C16.633 38.7649 16.633 38.7682 16.633 38.7682C16.633 38.7814 16.6363 38.7913 16.6396 38.8045C16.6429 38.8178 16.6429 38.8277 16.6462 38.8409C16.6561 38.907 16.666 38.9664 16.6759 39.0226C16.6891 39.0887 16.7023 39.1581 16.7122 39.2241C16.7155 39.244 16.7188 39.2671 16.7254 39.2836C16.732 39.31 16.7353 39.3365 16.7418 39.3629C16.7418 39.3695 16.7451 39.3794 16.7451 39.386C16.7451 39.3926 16.7484 39.3992 16.7517 39.4092C16.755 39.429 16.7616 39.4488 16.7649 39.4686C16.7682 39.4785 16.7682 39.4917 16.7715 39.5017C16.7715 39.5017 16.7715 39.5017 16.7715 39.505C16.7781 39.538 16.788 39.5743 16.7946 39.6107C16.7946 39.6173 16.7979 39.6272 16.8012 39.6338C16.8078 39.6669 16.8177 39.6999 16.8243 39.7329C16.8342 39.7726 16.8441 39.8122 16.8507 39.8486C16.854 39.8651 16.8606 39.8849 16.8639 39.9014C16.887 39.9906 16.9068 40.0732 16.9266 40.1492C16.9398 40.1955 16.9497 40.2417 16.9629 40.2847C16.9794 40.3408 16.9926 40.397 17.0091 40.4466C17.0124 40.4631 17.0223 40.4862 17.0289 40.5193C17.0322 40.5325 17.0387 40.5457 17.042 40.5622C17.0486 40.5853 17.0552 40.6085 17.0651 40.6382C17.0717 40.658 17.075 40.6745 17.0816 40.6944C17.0915 40.7241 17.1014 40.7538 17.1113 40.7869C17.1146 40.7968 17.1179 40.8067 17.1212 40.8199C17.1245 40.8298 17.1278 40.8364 17.1311 40.8463C17.1377 40.8629 17.141 40.8827 17.1476 40.8992C17.1509 40.9091 17.1542 40.919 17.1575 40.9289C17.1674 40.9587 17.1773 40.9851 17.1839 41.0148C17.1938 41.0446 17.207 41.0776 17.2169 41.1107C17.2235 41.1305 17.2301 41.1503 17.2367 41.1734C17.24 41.1833 17.2433 41.1965 17.2466 41.2065C17.2598 41.2428 17.2697 41.2758 17.2829 41.3122C17.2994 41.3617 17.3192 41.4146 17.3422 41.4708C17.362 41.5236 17.3818 41.5798 17.4016 41.6327C17.4214 41.6822 17.4412 41.7318 17.461 41.7846C17.4709 41.8144 17.4841 41.8408 17.494 41.8705C17.5039 41.9003 17.5171 41.93 17.5303 41.9597C10.3123 41.3089 4.62174 35.2165 4.62174 27.8191ZM21.0865 33.2705V21.8986H24.5272C24.5305 21.8986 24.5338 21.8986 24.5371 21.8986C24.6196 21.9019 24.6889 21.9713 24.6889 22.0572V27.8191C24.6889 28.6286 24.5272 29.3984 24.2336 30.1021C24.1907 30.2045 24.1446 30.307 24.0984 30.4061C24.0819 30.4391 24.0654 30.4721 24.0489 30.5052V30.5085C24.0357 30.5349 24.0225 30.5614 24.0093 30.5845V30.5878C23.9961 30.6142 23.9796 30.6406 23.9664 30.6671C23.9499 30.7001 23.9334 30.7299 23.9136 30.7596C23.9037 30.7761 23.8938 30.7926 23.8839 30.8091C23.874 30.8224 23.8674 30.8389 23.8575 30.8521C23.8378 30.8884 23.8147 30.9248 23.7916 30.9611C23.7817 30.9776 23.7685 30.9975 23.7586 31.014C23.7355 31.0503 23.7124 31.0867 23.686 31.123C23.6662 31.1528 23.6464 31.1825 23.6266 31.2122C23.6068 31.2387 23.5903 31.2618 23.5705 31.2882C23.5672 31.2948 23.5639 31.2981 23.5573 31.3047C22.9339 32.1604 22.086 32.8443 21.103 33.2672C21.0931 33.2672 21.0898 33.2705 21.0865 33.2705ZM22.4819 41.4807C21.865 40.4598 21.4263 39.3133 21.2217 38.0909C21.225 38.0909 21.2316 38.0876 21.2382 38.0876C21.2514 38.0843 21.2646 38.081 21.2811 38.0777C21.3207 38.0678 21.3636 38.0579 21.4065 38.0447C21.4428 38.0347 21.4791 38.0248 21.5186 38.0149C21.545 38.0083 21.5714 38.0017 21.5978 37.9918C21.6935 37.9654 21.7957 37.9356 21.8947 37.9026C21.9376 37.8894 21.9805 37.8762 22.0267 37.8596C22.1157 37.8299 22.2048 37.8002 22.2972 37.7671C22.3236 37.7572 22.3467 37.7473 22.373 37.7407C22.5446 37.6779 22.7128 37.6118 22.8778 37.5392C23.8773 37.1163 24.7911 36.548 25.6126 35.8443C25.6455 35.8178 25.6752 35.7881 25.7082 35.7617C25.8864 35.6064 26.0579 35.4445 26.2261 35.276C27.1927 34.308 27.9548 33.178 28.4859 31.9226C29.0368 30.6175 29.3139 29.2365 29.3139 27.8125V22.0539C29.3139 22.001 29.3139 21.9514 29.3106 21.8986C29.2248 19.3282 27.1136 17.2632 24.5272 17.2632H21.5549C22.4555 15.1421 24.5602 13.6521 27.0014 13.6521C27.1993 13.6521 27.3907 13.662 27.5853 13.6818C29.3601 13.8569 30.904 14.8184 31.8672 16.2126C32.5303 17.1707 32.9196 18.3304 32.9196 19.5826V27.8224C32.9196 34.3476 28.4925 39.8552 22.4918 41.4972C22.4852 41.4906 22.4852 41.484 22.4819 41.4807ZM41.1503 36.059C41.1503 36.4257 41.1503 36.6108 41.147 36.7462C41.0052 41.8507 36.9013 45.9608 31.8013 46.1028C31.6693 46.1061 31.4846 46.1061 31.1184 46.1061C30.7522 46.1061 30.5675 46.1061 30.4355 46.1028C30.3564 46.0995 30.2772 46.0962 30.2013 46.0929C28.8026 46.0235 27.483 45.6502 26.3086 45.0423C28.4562 44.1007 30.3827 42.7791 32.0454 41.1073C33.7707 39.3794 35.1232 37.3707 36.07 35.1339C37.0498 32.8146 37.5479 30.3532 37.5479 27.8158V19.5792C37.5479 18.1553 37.2708 16.7743 36.7199 15.4692C36.1888 14.2137 35.4267 13.0838 34.4602 12.1158C33.6915 11.346 32.8239 10.7083 31.8705 10.2127C31.6231 10.0839 31.3691 9.96495 31.1118 9.85262C29.9935 9.38017 28.8125 9.10594 27.6018 9.03987C27.4039 9.02995 27.2092 9.02335 27.0113 9.02335C25.5895 9.02335 24.2105 9.30087 22.9075 9.85262C21.6539 10.3845 20.5257 11.1477 19.5591 12.1158C18.5925 13.0838 17.8305 14.2137 17.2994 15.4692C17.0552 16.0507 16.8606 16.652 16.7254 17.2632H13.0405C13.2879 15.7501 13.7794 14.3195 14.4656 13.0078C15.0924 11.8151 15.8808 10.7215 16.8078 9.76011C19.3843 7.08066 23.0031 5.4089 27.0014 5.4089C34.8033 5.4089 41.1503 11.7656 41.1503 19.5792V36.059ZM15.066 37.7077C15.1287 37.7308 15.1914 37.7539 15.2508 37.777C15.1881 37.7539 15.1254 37.7308 15.066 37.7077ZM15.3431 37.8068C15.4619 37.8464 15.5773 37.8861 15.6961 37.9224C15.5806 37.8861 15.4619 37.8497 15.3431 37.8068ZM15.739 37.9356C15.7522 37.9389 15.7687 37.9455 15.7819 37.9488C15.805 37.9554 15.8248 37.9621 15.8479 37.9687C15.8116 37.9554 15.7753 37.9455 15.739 37.9356ZM23.9994 30.5845C23.9829 30.6142 23.9697 30.6406 23.9565 30.6671C23.9631 30.6539 23.973 30.6406 23.9796 30.6241C23.9961 30.5977 24.0093 30.5713 24.0225 30.5415C24.0258 30.5382 24.0258 30.5316 24.0291 30.5283C24.0324 30.5184 24.039 30.5118 24.0423 30.5052C24.0291 30.5316 24.0159 30.5581 23.9994 30.5845ZM24.6856 25.143V27.8191C24.6856 28.6286 24.5239 29.3984 24.2303 30.1021C24.1874 30.2045 24.1413 30.307 24.0951 30.4061C24.1544 30.2871 24.2039 30.1781 24.2435 30.079C24.2501 30.1087 24.2567 30.1385 24.2666 30.1715C24.2732 30.1913 24.2765 30.2144 24.2831 30.2343C24.7252 32.1076 25.1705 33.9809 25.6126 35.8542C25.6455 35.8277 25.6752 35.798 25.7082 35.7716C25.8864 35.6163 26.0579 35.4544 26.2261 35.2859C27.1927 34.3179 27.9548 33.1879 28.4859 31.9325C29.0368 30.6274 29.3139 29.2464 29.3139 27.8224V25.1463H24.6856V25.143ZM24.0423 30.5052C24.0489 30.492 24.0555 30.4788 24.0621 30.4655C24.072 30.4457 24.0819 30.4259 24.0918 30.4061C24.0753 30.4391 24.0588 30.4721 24.0423 30.5052ZM15.066 37.7077C15.1287 37.7308 15.1914 37.7539 15.2508 37.777C15.1881 37.7539 15.1254 37.7308 15.066 37.7077ZM15.3431 37.8068C15.4619 37.8464 15.5773 37.8861 15.6961 37.9224C15.5806 37.8861 15.4619 37.8497 15.3431 37.8068ZM24.6856 25.143V27.8191C24.6856 28.6286 24.5239 29.3984 24.2303 30.1021C24.1874 30.2045 24.1413 30.307 24.0951 30.4061C24.1544 30.2871 24.2039 30.1781 24.2435 30.079C24.2501 30.1087 24.2567 30.1385 24.2666 30.1715C24.2732 30.1913 24.2765 30.2144 24.2831 30.2343C24.7252 32.1076 25.1705 33.9809 25.6126 35.8542C25.6455 35.8277 25.6752 35.798 25.7082 35.7716C25.8864 35.6163 26.0579 35.4544 26.2261 35.2859C27.1927 34.3179 27.9548 33.1879 28.4859 31.9325C29.0368 30.6274 29.3139 29.2464 29.3139 27.8224V25.1463H24.6856V25.143ZM24.0423 30.5052C24.0489 30.492 24.0555 30.4788 24.0621 30.4655C24.072 30.4457 24.0819 30.4259 24.0918 30.4061C24.0753 30.4391 24.0588 30.4721 24.0423 30.5052ZM23.9994 30.5845C24.006 30.5713 24.0126 30.5581 24.0225 30.5448C24.0258 30.5415 24.0258 30.5349 24.0291 30.5316C24.0324 30.5217 24.039 30.5151 24.0423 30.5085C24.0291 30.5316 24.0159 30.5581 23.9994 30.5845ZM23.9565 30.6671C23.9631 30.6539 23.973 30.6406 23.9796 30.6241C23.9862 30.6109 23.9928 30.5977 23.9994 30.5878C23.9862 30.6142 23.9697 30.6406 23.9565 30.6671Z" fill="url(#paint0_linear_0_143)"/>
<path d="M16.809 9.76014C15.8853 10.7216 15.0935 11.8152 14.4667 13.0079C13.6453 13.0046 12.8272 13.0012 12.0091 13.0012C11.1415 13.0012 10.2739 13.0012 9.40625 13.0046C9.49862 12.7535 9.59759 12.5057 9.70315 12.2579C10.0693 11.389 10.4982 10.5531 10.9864 9.75684H16.809V9.76014Z" fill="url(#paint1_linear_0_143)"/>
<path d="M31.8679 16.2084C30.9046 14.8141 29.3574 13.8527 27.5859 13.6776C27.5859 13.4959 27.5892 13.3505 27.5892 13.1258C27.5991 11.725 27.6024 10.4001 27.5925 9.03564C28.8065 9.10172 29.9875 9.37594 31.1026 9.8484C31.3599 9.95743 31.6139 10.0764 31.8613 10.2085C31.8547 12.4816 31.8712 13.9915 31.8679 16.2084Z" fill="url(#paint2_linear_0_143)" fill-opacity="0.71"/>
<path d="M16.7091 17.2637C16.6266 17.6965 16.4716 18.5819 16.4716 19.2394C16.4716 20.1248 16.4716 21.0103 16.4782 21.8957C15.891 21.9023 15.3005 21.9056 14.7034 21.9023C14.1855 21.9023 13.6708 21.899 13.1562 21.8957C13.176 20.3495 13.1958 18.8099 13.2156 17.2637C14.3009 17.2637 15.6205 17.2637 16.7091 17.2637Z" fill="url(#paint3_linear_0_143)"/>
<path d="M25.7001 35.7685C25.6671 35.7949 25.6374 35.8247 25.6044 35.8511C24.783 36.5548 23.8692 37.1198 22.8696 37.546C22.7014 37.6187 22.5331 37.6848 22.3649 37.7475C22.3385 37.7574 22.3121 37.7674 22.289 37.774C22.1967 37.807 22.1076 37.8367 22.0185 37.8665C21.9756 37.8797 21.9327 37.8929 21.8866 37.9094C21.7843 37.9425 21.6853 37.9689 21.5897 37.9986C21.5633 38.0052 21.5369 38.0118 21.5105 38.0217C21.4742 38.0317 21.4346 38.0416 21.3983 38.0515C21.3554 38.0614 21.3159 38.0746 21.273 38.0845C21.2598 38.0878 21.2466 38.0911 21.2301 38.0944C21.2235 38.0944 21.2202 38.0977 21.2136 38.0977C21.1377 37.3841 21.0816 36.6143 21.0552 35.7982C21.0256 34.9029 21.0387 34.0571 21.0783 33.2774C21.0816 33.2741 21.0849 33.2741 21.0882 33.2708C22.0713 32.8479 22.9191 32.164 23.5426 31.3083C23.5459 31.3017 23.5525 31.2983 23.5558 31.2917C23.5756 31.2653 23.5921 31.2422 23.6119 31.2158C23.6317 31.186 23.6548 31.1563 23.6713 31.1265C23.6976 31.0902 23.7207 31.0539 23.7438 31.0175C23.757 31.001 23.7669 30.9812 23.7768 30.9647C23.7999 30.9283 23.823 30.892 23.8428 30.8556C23.8527 30.8424 23.8593 30.8259 23.8692 30.8127C23.8791 30.7962 23.889 30.7796 23.8989 30.7631C23.9154 30.7334 23.9352 30.7003 23.9517 30.6706C23.9649 30.6442 23.9814 30.6177 23.9946 30.5913V30.588C24.0077 30.5616 24.0209 30.5352 24.0341 30.512V30.5087C24.0506 30.4757 24.0671 30.4426 24.0836 30.4096C24.1331 30.3105 24.176 30.2081 24.2189 30.1056C24.2222 30.0957 24.2255 30.0891 24.2288 30.0825C24.2354 30.1123 24.242 30.142 24.2519 30.175C24.2585 30.1949 24.2618 30.218 24.2684 30.2378C24.5949 31.5627 25.2712 34.143 25.7001 35.7685Z" fill="url(#paint4_linear_0_143)"/>
<path d="M16.4648 33.2737V33.2676C16.4679 33.2706 16.4679 33.2737 16.4648 33.2737Z" fill="url(#paint5_linear_0_143)"/>
<path d="M16.5539 38.1436C16.5407 38.1403 16.5275 38.137 16.5143 38.1337C16.4946 38.1304 16.4748 38.1238 16.455 38.1205C16.2966 38.0841 16.1284 38.0445 15.9502 37.9916C15.9172 37.9817 15.8843 37.9718 15.848 37.9619C15.8249 37.9553 15.8051 37.9487 15.782 37.9421C15.7688 37.9388 15.7523 37.9321 15.7391 37.9288C15.7259 37.9255 15.7094 37.9189 15.6962 37.9156C15.5775 37.8793 15.4587 37.8396 15.3432 37.8C15.3136 37.7901 15.2839 37.7802 15.2509 37.767C15.1882 37.7438 15.1255 37.724 15.0661 37.6976C14.9342 37.648 14.8022 37.5952 14.6637 37.5357C14.6241 37.5192 14.5845 37.5026 14.5449 37.4861C14.5053 37.4696 14.4657 37.4531 14.4295 37.4333C14.3932 37.4167 14.3569 37.4002 14.3206 37.3837C14.2678 37.3573 14.2117 37.3341 14.1589 37.3077C14.1062 37.2813 14.0534 37.2549 14.0006 37.2284C13.9709 37.2119 13.9379 37.1954 13.9082 37.1822C12.9548 36.6866 12.0839 36.0456 11.3153 35.2758C11.2955 35.256 11.279 35.2395 11.2592 35.2197C11.2394 35.1998 11.2229 35.18 11.2031 35.1602C11.9784 33.2076 12.8955 30.8883 13.2484 29.9434C13.2517 29.9566 13.2583 29.9698 13.2682 29.983C13.3342 30.1482 13.4068 30.3101 13.486 30.472C13.5091 30.5182 13.5322 30.5645 13.5585 30.6107C13.5684 30.6306 13.5816 30.6537 13.5948 30.6768C13.5948 30.6768 13.5948 30.6801 13.5981 30.6801C13.6212 30.7231 13.6443 30.766 13.6707 30.809C13.6839 30.8321 13.6971 30.8552 13.7103 30.8751C13.7532 30.9444 13.7961 31.0138 13.8422 31.0832C13.8587 31.1063 13.8719 31.1295 13.8884 31.1526C13.9049 31.1757 13.9214 31.1988 13.9379 31.222C13.9709 31.2715 14.0072 31.3178 14.0435 31.364C14.06 31.3872 14.0798 31.4103 14.0996 31.4367C14.1194 31.4598 14.1359 31.4863 14.1556 31.5094C14.1754 31.5325 14.1952 31.559 14.215 31.5821C14.2348 31.6052 14.2546 31.6316 14.2744 31.6548C14.3107 31.6977 14.3503 31.7407 14.3899 31.7836C14.4064 31.8034 14.4229 31.8233 14.4426 31.8398C14.5482 31.9521 14.6571 32.0611 14.7692 32.1669C14.7956 32.19 14.822 32.2164 14.8484 32.2396C14.8979 32.2825 14.9474 32.3255 14.9969 32.3684C15.0002 32.3717 15.0068 32.375 15.0101 32.3783C15.3234 32.636 15.6632 32.864 16.0228 33.0556C16.0756 33.082 16.1251 33.1085 16.1746 33.1316C16.2702 33.1779 16.3692 33.2241 16.4682 33.2671C16.4121 34.0435 16.3824 34.8992 16.4022 35.8144C16.4187 36.6568 16.4748 37.43 16.5539 38.1436Z" fill="url(#paint6_linear_0_143)"/>
<path d="M30.1985 46.0956C29.7432 46.829 28.6018 48.7254 27.599 50.3972C24.9005 49.7959 22.489 48.4281 20.6053 46.535C20.6746 46.5251 22.1162 46.307 22.9212 46.1187C24.2077 45.818 25.3392 45.4381 26.3025 45.0449C27.4802 45.6528 28.7998 46.0229 30.1985 46.0956Z" fill="url(#paint7_linear_0_143)"/>
<path d="M22.4881 41.494C21.8712 41.679 21.1158 41.8508 20.2482 41.9433C19.1925 42.0556 18.2688 42.0193 17.5365 41.9367C17.5233 41.907 17.5134 41.8772 17.5002 41.8475C17.487 41.8177 17.4771 41.7913 17.4672 41.7616C17.4012 41.5931 17.3418 41.4345 17.2891 41.2924C17.2759 41.2561 17.2627 41.223 17.2528 41.1867C17.2495 41.1768 17.2462 41.1636 17.2429 41.1537C17.2363 41.1338 17.2297 41.1107 17.2231 41.0909C17.2132 41.0579 17.2 41.0248 17.1901 40.9951C17.1802 40.9653 17.1703 40.9389 17.1637 40.9092C17.1604 40.8993 17.1571 40.8894 17.1538 40.8794C17.1472 40.8629 17.1439 40.8431 17.1373 40.8266C17.134 40.8167 17.1307 40.8101 17.1274 40.8002C17.1241 40.7902 17.1208 40.777 17.1175 40.7671C17.1076 40.7341 17.0977 40.7043 17.0878 40.6746C17.0812 40.6548 17.0779 40.6383 17.0713 40.6184C17.0614 40.592 17.0548 40.5656 17.0482 40.5424C17.0449 40.5292 17.0383 40.5127 17.035 40.4995C17.0251 40.4665 17.0185 40.4433 17.0152 40.4268C17.0021 40.3773 16.9856 40.3244 16.9691 40.2649C16.9559 40.222 16.946 40.179 16.9328 40.1295C16.913 40.0535 16.8899 39.9676 16.8701 39.8817C16.8668 39.8652 16.8602 39.8453 16.8569 39.8288C16.847 39.7892 16.8371 39.7528 16.8305 39.7132C16.8272 39.6967 16.8239 39.6801 16.8173 39.6636C16.814 39.6471 16.8107 39.6306 16.8074 39.6141C16.8041 39.6074 16.8041 39.5975 16.8008 39.5909C16.7909 39.5513 16.7843 39.5182 16.7777 39.4852C16.7777 39.4852 16.7777 39.4852 16.7777 39.4819C16.7744 39.472 16.7744 39.4588 16.7711 39.4489C16.7645 39.4257 16.7612 39.4059 16.7579 39.3894C16.7546 39.3795 16.7546 39.3729 16.7513 39.3663C16.7513 39.3597 16.748 39.3497 16.748 39.3431C16.7414 39.32 16.7381 39.2936 16.7315 39.2638C16.7282 39.244 16.7249 39.2242 16.7183 39.2044C16.7085 39.1449 16.6953 39.0788 16.6821 39.0028C16.6722 38.9467 16.6623 38.8839 16.6524 38.8211C16.6491 38.8112 16.6491 38.798 16.6458 38.7848C16.6425 38.7716 16.6425 38.7617 16.6392 38.7484C16.6392 38.7451 16.6392 38.7451 16.6392 38.7418C16.6359 38.7253 16.6326 38.7088 16.6326 38.6923C16.6293 38.6724 16.626 38.6559 16.6227 38.6361C16.6194 38.6097 16.6128 38.5799 16.6095 38.5502C16.6029 38.5139 16.5996 38.4742 16.593 38.4379C16.5765 38.3255 16.5666 38.2231 16.56 38.1703C16.5567 38.1471 16.5567 38.1339 16.5567 38.1339L21.2246 38.0811C21.4325 39.3035 21.8679 40.4499 22.4848 41.4708C22.4848 41.4841 22.4848 41.4907 22.4881 41.494Z" fill="url(#paint8_linear_0_143)"/>
<path d="M5.00771 21.895C4.79658 21.8983 4.62834 22.0701 4.62174 22.2816V25.1427H0V22.1792C0.00329889 22.0833 0.00659777 21.9875 0.0131955 21.895H5.00771Z" fill="url(#paint9_linear_0_143)"/>
<path d="M29.31 22.0537V25.1429H24.685V22.057C24.685 21.9711 24.6157 21.9017 24.5332 21.8984H29.3067C29.31 21.948 29.31 22.0009 29.31 22.0537Z" fill="url(#paint10_linear_0_143)"/>
</g>
<defs>
<linearGradient id="paint0_linear_0_143" x1="47.2208" y1="32.1419" x2="3.42496" y2="16.9918" gradientUnits="userSpaceOnUse">
<stop stop-color="#00FFFF"/>
<stop offset="1" stop-color="#0152FF"/>
</linearGradient>
<linearGradient id="paint1_linear_0_143" x1="12.8389" y1="9.82737" x2="13.4882" y2="13.5609" gradientUnits="userSpaceOnUse">
<stop stop-color="#004ABE"/>
<stop offset="1" stop-color="#0164FF" stop-opacity="0"/>
</linearGradient>
<linearGradient id="paint2_linear_0_143" x1="27.5117" y1="12.6306" x2="30.8785" y2="12.6176" gradientUnits="userSpaceOnUse">
<stop stop-color="#003992"/>
<stop offset="1" stop-color="#00B8FF" stop-opacity="0"/>
</linearGradient>
<linearGradient id="paint3_linear_0_143" x1="16.7837" y1="19.5874" x2="13.1225" y2="19.5706" gradientUnits="userSpaceOnUse">
<stop stop-color="#003992"/>
<stop offset="1" stop-color="#0164FF" stop-opacity="0"/>
</linearGradient>
<linearGradient id="paint4_linear_0_143" x1="25.1362" y1="34.1981" x2="20.76" y2="33.9938" gradientUnits="userSpaceOnUse">
<stop stop-color="#00B5FF" stop-opacity="0"/>
<stop offset="1" stop-color="#003992"/>
</linearGradient>
<linearGradient id="paint5_linear_0_143" x1="16.4657" y1="33.2711" x2="16.4637" y2="33.2713" gradientUnits="userSpaceOnUse">
<stop stop-color="#9B3F00"/>
<stop offset="0.2168" stop-color="#AB4500" stop-opacity="0.7832"/>
<stop offset="0.641" stop-color="#D65600" stop-opacity="0.359"/>
<stop offset="1" stop-color="#FF6600" stop-opacity="0"/>
</linearGradient>
<linearGradient id="paint6_linear_0_143" x1="16.475" y1="34.4246" x2="11.2816" y2="33.1906" gradientUnits="userSpaceOnUse">
<stop stop-color="#003992"/>
<stop offset="0.3315" stop-color="#0056BC" stop-opacity="0.653"/>
<stop offset="0.7479" stop-color="#0176EC" stop-opacity="0.2171"/>
<stop offset="0.9553" stop-color="#0183FF" stop-opacity="0"/>
</linearGradient>
<linearGradient id="paint7_linear_0_143" x1="26.6218" y1="49.8125" x2="24.9487" y2="45.0264" gradientUnits="userSpaceOnUse">
<stop offset="0.219" stop-color="#00D6FF" stop-opacity="0"/>
<stop offset="0.9001" stop-color="#003992"/>
</linearGradient>
<linearGradient id="paint8_linear_0_143" x1="19.7571" y1="42.2224" x2="19.3022" y2="37.6158" gradientUnits="userSpaceOnUse">
<stop offset="0.00559998" stop-color="#003992"/>
<stop offset="0.2157" stop-color="#0059B4" stop-opacity="0.7589"/>
<stop offset="0.5073" stop-color="#0180DC" stop-opacity="0.4243"/>
<stop offset="0.7379" stop-color="#0198F6" stop-opacity="0.1597"/>
<stop offset="0.8771" stop-color="#01A1FF" stop-opacity="0"/>
</linearGradient>
<linearGradient id="paint9_linear_0_143" x1="2.51039" y1="25.2082" x2="2.49741" y2="21.8605" gradientUnits="userSpaceOnUse">
<stop stop-color="#0164FF" stop-opacity="0"/>
<stop offset="1" stop-color="#003992"/>
</linearGradient>
<linearGradient id="paint10_linear_0_143" x1="26.9156" y1="25.2088" x2="26.9285" y2="21.8647" gradientUnits="userSpaceOnUse">
<stop stop-color="#00B2FF" stop-opacity="0"/>
<stop offset="1" stop-color="#003992"/>
</linearGradient>
<clipPath id="clip0_0_143">
<rect width="45.7754" height="49.9613" fill="white" transform="translate(0 0.776367)"/>
</clipPath>
</defs>
</svg>
