<svg width="175" height="25" viewBox="0 0 175 25" fill="none" xmlns="http://www.w3.org/2000/svg">
<g clip-path="url(#clip0_282_747)">
<path d="M25.131 24.1872H41.9097V19.7698H30.2166V14.3501H39.9052V9.93266H30.2166V4.92132H41.984V0.503906H25.131V24.1872ZM62.1036 15.4266L51.1158 0.503906H43.5431L45.9188 3.51072V24.2614H50.9673V8.70767L62.3263 24.1872H67.1892V0.503906H62.1036V15.4266ZM17.484 12.0114C19.7113 11.6031 21.5674 9.52433 21.5674 6.59177C21.5674 3.43647 19.2659 0.503906 14.7 0.503906H0L2.30151 3.43647V24.2243H15.2197C19.7855 24.2243 22.1613 21.366 22.1613 17.8023C22.0499 14.8698 20.0454 12.3455 17.484 12.0114ZM7.34998 4.95844H13.6977C15.4053 4.95844 16.4818 5.96071 16.4818 7.44555C16.4818 8.9304 15.4053 9.93266 13.6977 9.93266H7.34998V4.95844ZM13.9204 19.8069H7.34998V14.3501H13.9204C15.8507 14.3501 16.9272 15.5751 16.9272 17.0599C16.9272 18.7675 15.7765 19.7698 13.9204 19.8069ZM141.357 15.4266H143.993V18.2107C142.619 19.3243 140.912 19.9554 139.13 19.9925C134.898 19.9925 131.928 16.7629 131.928 12.4198C131.928 8.07661 134.935 4.84707 139.13 4.84707C141.32 4.84707 143.362 5.99783 144.55 7.85388L148.559 5.62662C146.851 2.91678 143.844 0.503906 139.093 0.503906C132.374 0.503906 126.806 5.14404 126.806 12.3455C126.806 19.547 132.3 24.1872 139.093 24.1872C142.805 24.2614 146.331 22.6652 148.781 19.9182V11.1577H137.942L141.357 15.4266ZM118.528 15.4266L107.503 0.503906H99.9671L102.306 3.51072V24.2614H107.391V8.70767L118.75 24.1872H123.576V0.503906H118.528V15.4266ZM165.56 0.503906H155.797L158.136 3.51072L157.728 4.66147L150.155 24.2614H155.871L157.356 20.2523H167.565L169.049 24.2614H174.766L165.56 0.503906ZM158.656 15.7978L162.368 5.5895L166.08 15.7978H158.656ZM91.949 0.503906H97.0346V24.2985H91.949V0.503906ZM87.9028 4.58723V0.503906H70.0475V4.92132H81.2581L70.0475 20.141V24.1872H88.0884V19.7698H76.6179L87.9028 4.58723Z" fill="white"/>
</g>
<defs>
<clipPath id="clip0_282_747">
<rect width="174.877" height="23.6833" fill="white" transform="translate(0 0.503906)"/>
</clipPath>
</defs>
</svg>
